<svg width="181" height="145" viewBox="0 0 181 145" fill="none" xmlns="http://www.w3.org/2000/svg">
<path d="M45.3235 19.0973C35.6461 15.5803 24.0982 17.6405 20.133 35.7431C-16.1668 56.079 0.847996 120.777 41.0722 108.385C44.7823 107.457 45.7388 107.517 45.9776 108.385C55.7883 122.048 72.4561 121.513 87.1828 111.88C101.267 120.721 109.215 121.355 123.483 114.422C127.37 111.752 129.865 113.57 134.602 119.824C148.302 143.624 169.354 163.273 151.934 111.88C151.289 107.773 152.234 106.471 156.185 105.843C170.95 97.427 171.226 89.8234 165.144 81.8703C191.81 65.9641 180.712 37.8444 162.072 29.583C155.531 11.4712 145.393 5.43401 129.042 8.61158C125.618 9.78936 123.758 9.35067 120.539 6.70508C109.911 -0.788836 103.533 -1.21376 91.4341 4.48084C68.9119 -3.97252 58.6788 -1.19418 45.3235 19.0973Z" fill="#58021A"/>
</svg>
