<?xml version="1.0" encoding="UTF-8"?>
<svg xmlns="http://www.w3.org/2000/svg" width="30" height="30" viewBox="0 0 512 512">
<path d="M0 0 C10.21872764 6.82169115 14.85408441 15.09121733 19.140625 26.3046875 C20.16422119 26.31927002 21.18781738 26.33385254 22.24243164 26.34887695 C26.06520311 26.40715255 29.88740345 26.48438171 33.7097168 26.56713867 C35.3593616 26.6002511 37.00911596 26.62832506 38.65893555 26.65112305 C41.04002268 26.68492283 43.42011806 26.73724754 45.80078125 26.79296875 C46.89496117 26.80255363 46.89496117 26.80255363 48.01124573 26.81233215 C53.76798279 26.9750716 58.43775623 28.22638602 63.1015625 31.8125 C63.56820313 32.34617188 64.03484375 32.87984375 64.515625 33.4296875 C65.23878906 34.20699219 65.23878906 34.20699219 65.9765625 35 C67.22676579 37.47523471 67.44454453 39.20784874 67.71337891 41.94873047 C67.79568756 42.76324677 67.87799622 43.57776306 67.96279907 44.41696167 C68.02148163 45.03991119 68.08016418 45.66286072 68.140625 46.3046875 C69.04993774 46.30024628 69.95925049 46.29580505 70.89611816 46.29122925 C79.48784298 46.25106659 88.07953601 46.22065949 96.67133331 46.20106316 C101.08789594 46.19064965 105.50438065 46.1765351 109.92089844 46.15380859 C114.18731954 46.13199317 118.45366595 46.12010059 122.72013855 46.11493301 C124.34353307 46.11125283 125.96692375 46.1040665 127.59028625 46.09322739 C129.87343005 46.07859658 132.1562696 46.07671435 134.43945312 46.07763672 C135.73629028 46.0731955 137.03312744 46.06875427 138.3692627 46.06417847 C144.09410685 46.42926583 149.67749684 47.39175056 154.390625 50.8671875 C155.01453125 51.30160156 155.6384375 51.73601563 156.28125 52.18359375 C162.59591442 59.38708699 162.68892792 67.48460344 162.53125 76.65234375 C162.52559021 77.90478378 162.51993042 79.15722382 162.51409912 80.44761658 C162.49560658 83.74733791 162.45978913 87.0462501 162.4152832 90.34570312 C162.37406829 93.72450962 162.35603271 97.10343546 162.3359375 100.48242188 C162.29199605 107.09015546 162.22517768 113.69735543 162.140625 120.3046875 C162.91494873 120.60358887 163.68927246 120.90249023 164.48706055 121.21044922 C167.25095733 122.35018474 169.49206412 123.74000391 171.953125 125.4296875 C172.74332031 125.96851563 173.53351563 126.50734375 174.34765625 127.0625 C174.93933594 127.47242188 175.53101563 127.88234375 176.140625 128.3046875 C176.78386719 127.79679688 177.42710937 127.28890625 178.08984375 126.765625 C193.33837141 115.14977083 208.23600463 110.70475101 227.140625 112.3046875 C238.48048907 114.40886228 250.07374012 121.08346357 257.140625 130.3046875 C267.76176215 146.70119159 272.1408002 164.02115032 268.11499023 183.46850586 C263.17552271 203.88988652 250.33698047 221.90029563 234.4296875 235.3359375 C231.4733776 237.87856581 228.62263074 240.52654726 225.765625 243.1796875 C221.10444224 247.50024794 216.40954916 251.77838309 211.67578125 256.01953125 C208.7714912 258.63741982 205.89298943 261.28229663 203.015625 263.9296875 C199.08229226 267.54547587 195.13163205 271.13391648 191.06640625 274.6015625 C189.64646027 275.85733623 188.27515619 277.16862451 186.93359375 278.5078125 C180.43959841 284.83586247 180.43959841 284.83586247 176.203125 285.3046875 C172.21954984 284.79661106 169.9253581 282.76313274 166.88671875 280.2421875 C165.99525146 279.50871094 165.10378418 278.77523438 164.18530273 278.01953125 C163.51055908 277.45363281 162.83581543 276.88773437 162.140625 276.3046875 C162.14523396 277.39836828 162.14984293 278.49204906 162.15459156 279.61887169 C162.26564149 306.2435207 162.34777851 332.86813964 162.39968586 359.49297142 C162.42545576 372.3686077 162.46058342 385.24409089 162.51782227 398.11962891 C162.56769399 409.34333704 162.59992483 420.56693429 162.61106747 431.79075015 C162.61757975 437.73245957 162.6328608 443.67385179 162.66927528 449.61545944 C162.70329393 455.211658 162.71366591 460.80740964 162.70616341 466.40370178 C162.70753531 468.45392411 162.71743247 470.50416189 162.73665237 472.55429459 C162.92062229 493.19593421 162.92062229 493.19593421 157.140625 500.3046875 C152.32836677 504.80068702 147.95863024 506.42702949 141.45268726 506.44170189 C140.26032642 506.44677643 139.06796558 506.45185097 137.83947259 506.45707929 C136.52296376 506.45757705 135.20645492 506.45807481 133.85005188 506.45858765 C132.4424813 506.4626021 131.03491187 506.4670403 129.62734383 506.4718672 C125.75022937 506.48384037 121.87312736 506.48948287 117.99599802 506.49404836 C113.81793629 506.5000016 109.63988946 506.51161211 105.46183777 506.52233887 C95.3673065 506.54686872 85.2727703 506.56149061 75.17821839 506.57439893 C72.32765382 506.57811036 69.47708973 506.58208363 66.62652564 506.5861516 C48.92933528 506.61138693 31.23214415 506.63344258 13.53493977 506.64587975 C9.43515838 506.6488095 5.33537703 506.65177115 1.2355957 506.65478516 C0.21660044 506.65553121 -0.80239482 506.65627726 -1.85226873 506.65704592 C-18.36223471 506.66970164 -34.87209305 506.70292734 -51.38200869 506.74458699 C-68.32780899 506.78699643 -85.27355415 506.81057361 -102.21940738 506.81580031 C-111.7357533 506.81921548 -121.25193099 506.83098323 -130.76822472 506.86390305 C-138.87219325 506.89189107 -146.97595906 506.90290837 -155.07997217 506.89170758 C-159.21471519 506.88651777 -163.3490336 506.88942831 -167.48371506 506.91417313 C-171.27083519 506.93664869 -175.05722529 506.93593963 -178.84435806 506.91696925 C-180.85944237 506.91284169 -182.87453097 506.93332745 -184.88950557 506.95475614 C-192.0916854 506.89158952 -197.41985313 506.31912107 -202.859375 501.3046875 C-207.89568226 495.54341575 -209.00833255 490.80757546 -209.00654602 483.34010315 C-209.01022271 482.51956811 -209.0138994 481.69903308 -209.0176875 480.85363334 C-209.02873144 478.09455462 -209.03256933 475.33551355 -209.03637695 472.57641602 C-209.04264089 470.60219198 -209.04928763 468.62796912 -209.05628967 466.65374756 C-209.07370176 461.28399728 -209.08425127 455.91425589 -209.0924952 450.54448438 C-209.09764324 447.1920635 -209.10371896 443.8396454 -209.11000633 440.48722649 C-209.12905607 430.00499974 -209.14328959 419.52278005 -209.1516183 409.04053932 C-209.16140124 396.92728845 -209.18774927 384.8142198 -209.22811919 372.70103317 C-209.25823251 363.34557199 -209.27308248 353.99016319 -209.27639931 344.63465446 C-209.27875459 339.04311827 -209.28777749 333.45177679 -209.31286049 327.86029243 C-209.33606361 322.60307563 -209.34040581 317.34618287 -209.33009911 312.08892822 C-209.3296018 310.1571387 -209.33597935 308.22533363 -209.34965515 306.29359245 C-209.36725501 303.66075384 -209.36032734 301.02909331 -209.34712219 298.39625549 C-209.35809144 297.62787261 -209.36906068 296.85948973 -209.38036233 296.06782252 C-209.33835885 292.61059784 -209.11683195 290.65501269 -207.04373455 287.83412075 C-203.7992029 285.56238184 -201.72420802 285.69445071 -197.859375 286.3046875 C-194.27874046 289.01821073 -192.99718638 290.49926167 -192.2313118 294.97534466 C-192.20437903 296.42778744 -192.20477845 297.88089528 -192.22686768 299.3334198 C-192.21921757 300.13665706 -192.21156745 300.93989431 -192.20368552 301.76747209 C-192.18409523 304.45636524 -192.20004351 307.14386286 -192.21582031 309.83276367 C-192.20900479 311.76127488 -192.19998305 313.68977936 -192.18891907 315.61827087 C-192.16500951 320.85361286 -192.17163814 326.08852954 -192.18340778 331.32389617 C-192.19024998 336.79763484 -192.16815902 342.27125152 -192.14886475 347.74494934 C-192.11654696 358.11222696 -192.10875016 368.4793654 -192.11043906 378.84668761 C-192.11189969 394.07816803 -192.07842587 409.30958035 -192.04270554 424.54101276 C-192.03748084 426.78452873 -192.0322585 429.0280447 -192.02703857 431.27156067 C-192.02313114 432.91389261 -192.02313114 432.91389261 -192.01914477 434.58940297 C-192.00447359 441.11442296 -191.99756147 447.63939483 -191.99739027 454.16443098 C-191.99674519 458.21471008 -191.9924042 462.2649803 -191.98741722 466.31525612 C-191.98605131 468.19949932 -191.98643766 470.08374468 -191.98866463 471.96798706 C-191.99155439 474.53098625 -191.98847367 477.09391097 -191.98394775 479.65690613 C-191.98638025 480.41029571 -191.98881274 481.1636853 -191.99131894 481.93990487 C-192.04355579 485.74858852 -192.04355579 485.74858852 -190.859375 489.3046875 C-187.75266486 490.34025755 -185.62060125 490.42999775 -182.36328983 490.43052864 C-181.21374634 490.43313639 -180.06420284 490.43574414 -178.8798247 490.43843091 C-177.61116971 490.43620018 -176.34251473 490.43396946 -175.03541565 490.43167114 C-173.67861751 490.43282274 -172.32181968 490.43441053 -170.9650225 490.43639839 C-167.2283968 490.44058638 -163.49179652 490.43850339 -159.7551707 490.43541217 C-155.72852266 490.43315613 -151.70187909 490.43663872 -147.67523193 490.43939209 C-139.78348562 490.44384669 -131.89174879 490.44287465 -124.00000209 490.43997945 C-117.58753964 490.43772405 -111.17507985 490.43741349 -104.76261711 490.43850327 C-103.85108462 490.4386565 -102.93955214 490.43880973 -102.00039745 490.43896761 C-100.14881198 490.43928732 -98.29722651 490.43961154 -96.44564103 490.4399402 C-79.06895414 490.44279412 -61.69227252 490.43950942 -44.3155865 490.43413983 C-29.39715594 490.42967262 -14.47873316 490.43044721 0.43969727 490.43505859 C17.75127941 490.44040719 35.06285692 490.44251865 52.37443978 490.43944633 C54.21964363 490.43912777 56.06484749 490.4388134 57.91005135 490.43850327 C59.27196805 490.43827185 59.27196805 490.43827185 60.66139821 490.43803576 C67.06758058 490.43717141 73.47376002 490.43863175 79.87994194 490.44098282 C87.68497183 490.4437842 95.48999166 490.4430354 103.29502039 490.43770207 C107.27924167 490.43506954 111.26344615 490.43405245 115.24766731 490.43735123 C118.89248501 490.4403234 122.5372703 490.43870591 126.18208504 490.43337367 C128.13050049 490.43172133 130.07891817 490.43499891 132.02733129 490.43843091 C133.75555816 490.43451928 133.75555816 490.43451928 135.51869869 490.43052864 C137.01311691 490.43028511 137.01311691 490.43028511 138.53772539 490.43003666 C140.89473153 490.31652912 142.88732513 489.97732347 145.140625 489.3046875 C145.41464894 460.31898393 145.62688014 431.33340721 145.75340895 402.34666623 C145.7684166 398.92096871 145.78394855 395.49527376 145.79980469 392.06958008 C145.80295241 391.38761471 145.80610014 390.70564934 145.80934325 390.00301836 C145.86149429 378.97492188 145.95607122 367.94757958 146.06645855 356.91992982 C146.17886201 345.59603438 146.24447072 334.27269635 146.26968694 322.94820768 C146.28531598 316.59058135 146.32197469 310.23466273 146.40938568 303.87758446 C146.49105507 297.88935686 146.51592237 291.90353419 146.49791718 285.91480255 C146.50120911 283.72137424 146.52495742 281.52786265 146.5710907 279.33491707 C147.22610579 267.22281448 147.22610579 267.22281448 142.48300934 256.55977821 C139.62964464 253.68831992 136.55458707 251.46794501 133.140625 249.3046875 C132.150625 248.6446875 131.160625 247.9846875 130.140625 247.3046875 C130.13704247 248.96620063 130.13704247 248.96620063 130.13338757 250.66127968 C130.0746176 277.60175688 129.99875026 304.54214447 129.90491009 331.48252296 C129.85992652 344.5106386 129.82051772 357.53872674 129.79418945 370.56689453 C129.77123017 381.92099431 129.73785525 393.27500727 129.69192344 404.62903821 C129.6679634 410.64203457 129.64925281 416.6549448 129.64301109 422.66798782 C129.63697289 428.32653576 129.61701857 433.98486322 129.58634949 439.64332962 C129.57754902 441.72099274 129.57385082 443.79868465 129.57561684 445.87636566 C129.57726632 448.71215452 129.56059784 451.5472687 129.53935242 454.38296509 C129.54662378 455.61741676 129.54662378 455.61741676 129.55404204 456.87680686 C129.49371156 461.75324021 128.80014604 465.06318143 126.140625 469.3046875 C119.59718054 475.67128211 112.53418479 475.59614106 103.9122467 475.56538391 C102.20912399 475.57112223 102.20912399 475.57112223 100.47159475 475.57697648 C96.66469129 475.58730029 92.85793882 475.58331544 89.05102539 475.5793457 C86.32261214 475.58259896 83.5942073 475.58881102 80.86579895 475.59483337 C74.22274513 475.60757781 67.57973173 475.60937441 60.93666775 475.60703311 C55.53688502 475.6052496 50.13711456 475.60700031 44.7373333 475.61125755 C43.96861687 475.61185274 43.19990045 475.61244793 42.40788959 475.61306116 C40.84621291 475.61427291 39.28453623 475.61548705 37.72285955 475.61670353 C23.0800909 475.62757798 8.43734528 475.62541696 -6.20542467 475.61931869 C-19.59898612 475.61414896 -32.99247484 475.6254066 -46.3860219 475.64441691 C-60.1418935 475.66379168 -73.89773068 475.67205198 -87.65361601 475.66829365 C-95.37516489 475.66638114 -103.09665187 475.66887407 -110.81818962 475.68300819 C-117.39120813 475.69491833 -123.96412663 475.696331 -130.5371465 475.68421803 C-133.88997857 475.67832679 -137.24247765 475.67886208 -140.59532166 475.68922043 C-144.23172249 475.69964555 -147.86763017 475.69162063 -151.50401306 475.6789093 C-152.56121408 475.68628359 -153.6184151 475.69365787 -154.70765251 475.70125562 C-161.15296156 475.65379251 -166.55915669 475.2127274 -171.6015625 470.76953125 C-175.06674579 466.09750826 -175.9844646 464.01429789 -175.99359608 458.21883774 C-175.99805392 456.91228249 -176.00251176 455.60572725 -176.00710469 454.25957942 C-176.00701539 452.79575395 -176.00682552 451.33192848 -176.00654602 449.86810303 C-176.00984356 448.32385199 -176.01356889 446.77960182 -176.0176875 445.23535275 C-176.02772811 440.97586366 -176.0314276 436.71638865 -176.03407681 432.45688939 C-176.03797376 427.86916709 -176.0475525 423.281456 -176.05628967 418.69374084 C-176.07607124 407.60657652 -176.08612239 396.51941126 -176.09501746 385.43223369 C-176.09939755 380.21492571 -176.10476508 374.99761876 -176.11000633 369.78031158 C-176.12702022 352.44338059 -176.14151531 335.10645024 -176.14875507 317.76951218 C-176.15066506 313.2683792 -176.15258538 308.76724624 -176.15454102 304.26611328 C-176.15502476 303.14733761 -176.1555085 302.02856193 -176.1560069 300.87588397 C-176.16431059 282.7446595 -176.18965254 264.61350094 -176.22212169 246.48230526 C-176.25516382 227.8799475 -176.27320125 209.27762326 -176.27639931 190.67523599 C-176.27856704 180.22558524 -176.28735403 169.77603059 -176.31286049 159.32640839 C-176.33452863 150.4285728 -176.3426371 141.53085664 -176.33289371 132.63299766 C-176.32833771 128.09149949 -176.33031039 123.55024795 -176.34965515 119.00878334 C-176.36720723 114.85235802 -176.36635428 110.69636069 -176.35075786 106.53993133 C-176.34836963 105.03517851 -176.35276799 103.53039668 -176.36458651 102.02568838 C-176.37964725 99.98181217 -176.36767669 97.93779014 -176.35435963 95.89390182 C-176.35582484 94.19020404 -176.35582484 94.19020404 -176.35731965 92.45208812 C-175.56733739 87.45878082 -173.00462688 84.36404549 -169.359375 80.9921875 C-165.69285106 78.51728384 -162.63784521 78.17890528 -158.27441406 78.19116211 C-156.92346649 78.19127541 -156.92346649 78.19127541 -155.54522705 78.19139099 C-154.58155212 78.19655228 -153.6178772 78.20171356 -152.625 78.20703125 C-151.63183777 78.2084462 -150.63867554 78.20986115 -149.61541748 78.21131897 C-146.44670588 78.21691162 -143.27806521 78.2294628 -140.109375 78.2421875 C-137.95963644 78.24720345 -135.80989677 78.25176619 -133.66015625 78.25585938 C-128.39320188 78.26687865 -123.12630046 78.28413827 -117.859375 78.3046875 C-117.859375 73.0246875 -117.859375 67.7446875 -117.859375 62.3046875 C-127.06495573 62.39013985 -136.27034963 62.48386406 -145.47568989 62.59221458 C-149.74995481 62.64219232 -154.02419483 62.68852215 -158.29858398 62.7265625 C-162.42245782 62.76339676 -166.54612413 62.80975149 -170.66982079 62.86275101 C-172.24426832 62.88130488 -173.81876035 62.89640918 -175.39327431 62.90803146 C-177.59613998 62.92487716 -179.79852934 62.95390727 -182.0012207 62.98583984 C-183.88318901 63.00582535 -183.88318901 63.00582535 -185.80317688 63.0262146 C-189.03224694 63.07550027 -189.03224694 63.07550027 -191.859375 65.3046875 C-192.15511521 67.94369994 -192.253262 70.34897387 -192.22445679 72.99043274 C-192.22757578 73.79307357 -192.23069478 74.59571441 -192.2339083 75.4226777 C-192.2408838 78.12742971 -192.22648765 80.83165858 -192.21240234 83.53637695 C-192.21323265 85.46942244 -192.21544729 87.40246776 -192.21894836 89.33551025 C-192.22390849 93.50603015 -192.21977912 97.67640972 -192.20893478 101.84691811 C-192.19262114 108.4392798 -192.20101745 115.03146401 -192.21377563 121.62382507 C-192.24394612 139.18832446 -192.24242937 156.75279261 -192.22352278 174.31730479 C-192.21119879 185.85030874 -192.21302507 197.38311269 -192.24191058 208.91609353 C-192.25717311 215.47140123 -192.24961951 222.02616739 -192.22520041 228.58144152 C-192.21514343 232.65927108 -192.22580575 236.7368511 -192.24231529 240.81465149 C-192.24577286 242.70731214 -192.24064473 244.60001066 -192.22634697 246.49262047 C-192.20804431 249.07505828 -192.22036925 251.65560712 -192.24032593 254.23799133 C-192.22760631 254.9885797 -192.21488669 255.73916807 -192.20178163 256.51250154 C-192.26685591 260.41492746 -192.74647229 262.15995324 -195.17540932 265.27369976 C-197.859375 267.3046875 -197.859375 267.3046875 -201.421875 267.8671875 C-205.50027221 267.19981341 -206.4367797 266.59605298 -208.859375 263.3046875 C-209.25223706 260.48801295 -209.40015086 258.06229728 -209.36730957 255.24676514 C-209.37666951 254.01891434 -209.37666951 254.01891434 -209.38621855 252.76625848 C-209.4021918 250.0193363 -209.38952739 247.27329618 -209.37695312 244.52636719 C-209.38237249 242.55848166 -209.3894941 240.5906002 -209.39819336 238.62272644 C-209.41645642 233.27332237 -209.40934555 227.92422628 -209.39667702 222.5748167 C-209.38655913 216.97713571 -209.39593986 211.37948133 -209.40222168 205.78179932 C-209.40950402 196.37645734 -209.39989749 186.97124089 -209.38085938 177.56591797 C-209.35911486 166.69820277 -209.36612212 155.83078802 -209.388165 144.96308017 C-209.40633246 135.63214003 -209.40886995 126.30129022 -209.39841032 116.97033811 C-209.39217957 111.39772448 -209.39132784 105.82525191 -209.40455627 100.2526474 C-209.41613274 95.00931094 -209.40805594 89.76636044 -209.38497925 84.52306557 C-209.3797007 82.60103559 -209.38119128 80.678973 -209.39002991 78.7569561 C-209.40100352 76.12771729 -209.38720012 73.49970561 -209.36730957 70.87054443 C-209.3806939 69.73647034 -209.3806939 69.73647034 -209.39434862 68.57948565 C-209.30628789 62.55491241 -207.62141629 57.22937645 -203.41214037 52.77222991 C-196.64177645 46.91847964 -190.43699448 46.17554583 -181.66064453 46.19116211 C-180.62057503 46.19094307 -180.62057503 46.19094307 -179.55949402 46.1907196 C-177.28702574 46.19141154 -175.01464131 46.19917 -172.7421875 46.20703125 C-171.15892583 46.20889799 -169.57566358 46.21032068 -167.99240112 46.21131897 C-163.83974594 46.21512401 -159.68712614 46.22493699 -155.53448486 46.23602295 C-151.29122394 46.24628047 -147.04795727 46.25082587 -142.8046875 46.25585938 C-134.48956716 46.26656117 -126.17447549 46.28361326 -117.859375 46.3046875 C-117.80363815 45.68468369 -117.74790131 45.06467987 -117.69047546 44.42588806 C-117.61045792 43.61366287 -117.53044037 42.80143768 -117.44799805 41.96459961 C-117.33345528 40.75615639 -117.33345528 40.75615639 -117.21659851 39.52330017 C-116.74417401 36.58920723 -115.69693039 35.01741188 -113.671875 32.8671875 C-113.10082031 32.22910156 -112.52976562 31.59101562 -111.94140625 30.93359375 C-106.82112849 26.92767287 -101.15158165 27.02951934 -94.9609375 27.109375 C-93.70849747 27.11361984 -93.70849747 27.11361984 -92.43075562 27.11795044 C-89.78181209 27.12908449 -87.13321516 27.15417623 -84.484375 27.1796875 C-82.68099449 27.18972607 -80.87760864 27.19885038 -79.07421875 27.20703125 C-74.66913867 27.2290016 -70.26431547 27.26348429 -65.859375 27.3046875 C-65.67979248 26.64299561 -65.50020996 25.98130371 -65.31518555 25.29956055 C-62.36296991 14.8786871 -56.92954933 6.49319186 -47.859375 0.3046875 C-32.72848468 -7.7861358 -15.0484867 -8.9221902 0 0 Z M-42.859375 17.3046875 C-48.21687456 22.3280891 -49.97652365 28.18169606 -51.47973633 35.20092773 C-52.56670993 40.10957746 -52.56670993 40.10957746 -55.859375 42.3046875 C-57.92178345 42.57643127 -57.92178345 42.57643127 -60.31494141 42.60766602 C-61.66116074 42.63262901 -61.66116074 42.63262901 -63.03457642 42.65809631 C-64.00027557 42.66651047 -64.96597473 42.67492462 -65.9609375 42.68359375 C-66.95314301 42.70058823 -67.94534851 42.7175827 -68.96762085 42.73509216 C-72.13980746 42.78827447 -75.31198042 42.82855244 -78.484375 42.8671875 C-81.66384452 42.91105382 -84.84321032 42.95769024 -88.02255249 43.00999451 C-90.00231156 43.04205665 -91.98216268 43.06891349 -93.96206665 43.09022522 C-94.85324188 43.10371506 -95.74441711 43.1172049 -96.66259766 43.13110352 C-97.84482407 43.14537132 -97.84482407 43.14537132 -99.05093384 43.15992737 C-100.88051719 43.10968603 -100.88051719 43.10968603 -101.859375 44.3046875 C-101.9522476 45.71693796 -101.97684272 47.13377684 -101.97290039 48.54907227 C-101.97282486 49.44993057 -101.97274933 50.35078888 -101.97267151 51.27894592 C-101.96751022 52.25810471 -101.96234894 53.23726349 -101.95703125 54.24609375 C-101.95490883 55.74220436 -101.95490883 55.74220436 -101.95274353 57.26853943 C-101.94712614 60.46811874 -101.93457071 63.66762919 -101.921875 66.8671875 C-101.91686224 69.03059795 -101.91229895 71.19400949 -101.90820312 73.35742188 C-101.89715107 78.67320075 -101.88039604 83.98893921 -101.859375 89.3046875 C-99.98233887 89.34227173 -99.98233887 89.34227173 -98.06738281 89.38061523 C-93.42307357 89.47481313 -88.77890957 89.57500369 -84.13476562 89.67700195 C-82.12503457 89.72030394 -80.11526785 89.76198238 -78.10546875 89.80200195 C-75.21603652 89.85981915 -72.32678302 89.92348074 -69.4375 89.98828125 C-68.53944641 90.00499374 -67.64139282 90.02170624 -66.71612549 90.03892517 C-65.87555603 90.05887039 -65.03498657 90.07881561 -64.16894531 90.09936523 C-63.43170227 90.11490952 -62.69445923 90.1304538 -61.93487549 90.14646912 C-59.81226214 90.30827898 -57.90524244 90.72878898 -55.859375 91.3046875 C-54.63715278 98.63802083 -54.63715278 98.63802083 -55.671875 101.7421875 C-56.859375 103.3046875 -56.859375 103.3046875 -58.859375 104.3046875 C-60.33328443 104.41436844 -61.81191947 104.46371491 -63.28979492 104.48168945 C-64.66714058 104.50094231 -64.66714058 104.50094231 -66.0723114 104.52058411 C-67.56598991 104.53166451 -67.56598991 104.53166451 -69.08984375 104.54296875 C-70.6255175 104.55507637 -70.6255175 104.55507637 -72.19221497 104.56742859 C-74.36355899 104.58127762 -76.53492486 104.5919961 -78.70629883 104.59985352 C-82.0162126 104.6170284 -85.32511782 104.66090342 -88.63476562 104.70507812 C-90.74478432 104.71520833 -92.85481152 104.72372341 -94.96484375 104.73046875 C-95.95050827 104.74797684 -96.93617279 104.76548492 -97.95170593 104.78352356 C-104.14369225 104.76412822 -107.89011645 104.10703401 -112.859375 100.3046875 C-114.179375 98.3246875 -115.499375 96.3446875 -116.859375 94.3046875 C-131.049375 94.3046875 -145.239375 94.3046875 -159.859375 94.3046875 C-159.859375 214.7546875 -159.859375 335.2046875 -159.859375 459.3046875 C-69.769375 459.3046875 20.320625 459.3046875 113.140625 459.3046875 C113.346875 421.7259375 113.553125 384.1471875 113.765625 345.4296875 C113.85666504 333.56531738 113.94770508 321.70094727 114.04150391 309.47705078 C114.0749488 298.83935472 114.0749488 298.83935472 114.09506226 288.20162964 C114.10437728 283.46409247 114.14184063 278.72767645 114.19638062 273.990448 C114.26507175 267.94380453 114.28552031 261.89878668 114.27134776 255.85178924 C114.27431029 253.63511673 114.29408676 251.41838632 114.33277631 249.20204949 C115.02582144 237.43918124 115.02582144 237.43918124 110.93418503 226.83919907 C108.46352501 224.35634871 105.97502481 222.34769296 103.140625 220.3046875 C89.95024512 205.48701451 82.70387563 185.57055797 82.9296875 165.90234375 C83.8433606 150.31914137 89.11577625 136.52329458 100.140625 125.3046875 C103.34344423 122.7395767 106.66360985 120.47859395 110.140625 118.3046875 C111.625625 117.3146875 111.625625 117.3146875 113.140625 116.3046875 C113.55671772 113.98168366 113.55671772 113.98168366 113.43359375 111.296875 C113.42392578 110.31074219 113.41425781 109.32460937 113.40429688 108.30859375 C113.3665918 106.75978516 113.3665918 106.75978516 113.328125 105.1796875 C113.30782227 103.61927734 113.30782227 103.61927734 113.28710938 102.02734375 C113.25167728 99.45261123 113.20227721 96.8789042 113.140625 94.3046875 C106.68148976 94.12704301 100.22298501 94.00455133 93.76196289 93.92016602 C91.56478334 93.8849865 89.36776738 93.83723379 87.17114258 93.77661133 C84.01082017 93.69158344 80.85266458 93.65197427 77.69140625 93.62109375 C76.71101883 93.58496475 75.73063141 93.54883575 74.72053528 93.51161194 C69.70405862 93.36459042 69.70405862 93.36459042 65.5874939 95.8041687 C64.33055773 97.61226252 64.33055773 97.61226252 63.4493866 99.50450134 C61.42761647 102.28542234 59.3359004 103.0863848 56.140625 104.3046875 C53.26050865 104.70998739 50.42577028 104.71528042 47.52075195 104.69287109 C46.25382507 104.70075653 46.25382507 104.70075653 44.96130371 104.70880127 C42.18364704 104.7219514 39.40656823 104.71328334 36.62890625 104.703125 C34.69410594 104.7051466 32.75930637 104.70805876 30.82450867 104.71182251 C26.77705605 104.71623861 22.72980248 104.70983564 18.68237305 104.69580078 C13.49019518 104.67867497 8.29848139 104.68857607 3.10632038 104.70651817 C-0.88533543 104.71734598 -4.87688072 104.71391488 -8.86853981 104.7061348 C-10.78353747 104.70413179 -12.69854512 104.70659557 -14.61353111 104.71357346 C-17.28518764 104.72117521 -19.95608567 104.70960345 -22.62768555 104.69287109 C-23.4209877 104.69894379 -24.21428986 104.70501648 -25.03163147 104.71127319 C-30.36861598 104.64921266 -30.36861598 104.64921266 -32.81916809 102.92886353 C-34.28519674 100.63981068 -34.72959923 99.02997876 -34.859375 96.3046875 C-32.66534515 91.70767257 -32.66534515 91.70767257 -29.859375 90.3046875 C-27.26664308 90.1823639 -24.69898614 90.1190207 -22.10498047 90.09936523 C-21.30489563 90.08946564 -20.50481079 90.07956604 -19.68048096 90.06936646 C-17.02920517 90.03771488 -14.37791144 90.01297961 -11.7265625 89.98828125 C-9.89095589 89.96771488 -8.05535404 89.94671849 -6.21975708 89.92530823 C-1.38319761 89.87005482 3.45340483 89.82065998 8.29003906 89.77246094 C13.2233463 89.72226976 18.15659096 89.66657127 23.08984375 89.61132812 C32.77338408 89.50370658 42.45697868 89.40227049 52.140625 89.3046875 C52.16589562 82.91431519 52.18345817 76.52395567 52.19555664 70.13354492 C52.20059808 67.95775877 52.20743107 65.78197603 52.21606445 63.60620117 C52.22813838 60.48615683 52.23385505 57.36615712 52.23828125 54.24609375 C52.24344254 53.26693497 52.24860382 52.28777618 52.25392151 51.27894592 C52.25399704 50.37808762 52.25407257 49.47722931 52.25415039 48.54907227 C52.256371 47.75187271 52.25859161 46.95467316 52.26087952 46.13331604 C52.34112956 44.28546469 52.34112956 44.28546469 51.140625 43.3046875 C49.80609327 43.19836408 48.46615202 43.1585267 47.12744141 43.14697266 C46.27630768 43.13671051 45.42517395 43.12644836 44.54824829 43.11587524 C43.1592482 43.10492325 43.1592482 43.10492325 41.7421875 43.09375 C39.79947073 43.06568222 37.8567625 43.03701776 35.9140625 43.0078125 C32.83724191 42.96651289 29.760581 42.92964435 26.68359375 42.90332031 C23.72361894 42.87577241 20.76438047 42.82989947 17.8046875 42.78125 C16.8827359 42.77799713 15.9607843 42.77474426 15.01089478 42.77139282 C13.7247377 42.74654312 13.7247377 42.74654312 12.41259766 42.72119141 C11.65838531 42.71310455 10.90417297 42.7050177 10.12710571 42.69668579 C7.58629423 42.19529972 6.71151147 41.33243418 5.140625 39.3046875 C4.33203125 36.37890625 4.33203125 36.37890625 3.703125 32.9921875 C1.76602018 23.94901942 -2.41106187 18.35745141 -10.046875 13.1171875 C-21.57579876 7.00336429 -33.11687135 8.98335521 -42.859375 17.3046875 Z M68.140625 62.3046875 C68.140625 67.5846875 68.140625 72.8646875 68.140625 78.3046875 C70.26673218 78.32656128 70.26673218 78.32656128 72.43579102 78.34887695 C77.71208481 78.40700194 82.98795819 78.48423455 88.26391602 78.56713867 C90.54411986 78.60032117 92.82440453 78.62837374 95.10473633 78.65112305 C98.38918382 78.68479132 101.67289514 78.73711476 104.95703125 78.79296875 C105.97084366 78.79935867 106.98465607 78.8057486 108.02919006 78.81233215 C113.81570511 78.93158576 118.04292804 79.49063725 123.140625 82.3046875 C126.96172552 86.42745385 128.24412176 88.99560323 128.45703125 94.53125 C128.49892578 95.5625 128.54082031 96.59375 128.58398438 97.65625 C128.62330078 98.73648438 128.66261719 99.81671875 128.703125 100.9296875 C128.74630859 102.01765625 128.78949219 103.105625 128.83398438 104.2265625 C128.94026927 106.9191132 129.04097004 109.61188326 129.140625 112.3046875 C134.750625 112.6346875 140.360625 112.9646875 146.140625 113.3046875 C146.19000506 106.66610809 146.22633519 100.02763523 146.25048828 93.38891602 C146.26055558 91.12978249 146.27421038 88.87066203 146.29150391 86.61157227 C146.31572008 83.36731751 146.32710075 80.12323479 146.3359375 76.87890625 C146.34626007 75.86632248 146.35658264 74.85373871 146.36721802 73.81047058 C146.36736908 72.86972183 146.36752014 71.92897308 146.36767578 70.9597168 C146.372117 70.13142868 146.37655823 69.30314056 146.38113403 68.44975281 C146.2732216 66.00683524 146.2732216 66.00683524 144.140625 63.3046875 C140.60880142 62.12741297 137.82726238 62.18474492 134.09887695 62.19116211 C133.38642822 62.19101608 132.67397949 62.19087006 131.93994141 62.1907196 C129.586232 62.19141599 127.23260183 62.19919558 124.87890625 62.20703125 C123.24651635 62.2088964 121.61412589 62.21031985 119.98173523 62.21131897 C115.68600925 62.21513649 111.39031711 62.22496026 107.09460449 62.23602295 C102.71086077 62.24625351 98.32711159 62.25082012 93.94335938 62.25585938 C85.34243067 62.2665832 76.74153594 62.28417382 68.140625 62.3046875 Z M108.140625 139.3046875 C100.64582131 149.33594222 97.01157677 160.80451069 98.140625 173.3046875 C102.36670842 197.71922968 117.69613802 214.89006068 136.05859375 230.5078125 C138.76312095 232.84192603 141.3883209 235.25961783 144.015625 237.6796875 C148.50134154 241.80730356 153.01256381 245.90352782 157.55859375 249.96484375 C159.47801349 251.70422715 161.37214071 253.45904227 163.25390625 255.23828125 C163.78564453 255.73714844 164.31738281 256.23601562 164.86523438 256.75 C165.89681154 257.71940339 166.92318673 258.69438319 167.94335938 259.67578125 C170.83096616 262.37873835 173.36443842 264.10098504 177.140625 265.3046875 C177.553125 264.88058594 177.965625 264.45648438 178.390625 264.01953125 C182.05539453 260.2974997 185.82687819 256.78916876 189.78125 253.37890625 C192.73926973 250.77839553 195.6275201 248.10734524 198.515625 245.4296875 C203.22064507 241.07015748 207.95299781 236.74514698 212.73046875 232.46484375 C214.41392065 230.95601247 216.09328924 229.44261837 217.76953125 227.92578125 C218.63449219 227.14332031 219.49945313 226.36085938 220.390625 225.5546875 C221.21949219 224.80445313 222.04835938 224.05421875 222.90234375 223.28125 C224.61590239 221.76805511 226.39664002 220.33063504 228.203125 218.9296875 C241.01102074 207.48433386 252.12300099 190.45132946 253.37890625 172.9921875 C253.65368292 159.34012552 250.80803567 147.61655726 241.328125 137.33984375 C234.39830785 130.73136893 227.36325101 128.11495992 217.828125 127.7421875 C204.10249697 128.17068143 194.13183259 134.51145636 183.92578125 143.1875 C180.70205103 145.84816026 178.93418303 147.21811753 174.703125 147.6796875 C170.42677083 146.02916484 168.08734669 143.70293885 164.80078125 140.57421875 C154.85573654 132.08953303 143.71867275 127.76057806 130.640625 127.99609375 C121.7964441 128.77588202 114.35682391 133.05276331 108.140625 139.3046875 Z " fill="#4895EF" transform="translate(225.859375,5.6953125)"/>
<path d="M0 0 C4.32667632 4.26974637 5.91992753 9.50855667 7.890625 15.11328125 C8.24010193 16.08283249 8.58957886 17.05238373 8.949646 18.05131531 C10.05888712 21.13519394 11.15459626 24.22368266 12.25 27.3125 C13.00171513 29.40982407 13.75430958 31.50683319 14.5078125 33.60351562 C16.34874394 38.73207235 18.17860213 43.86447574 20 49 C21.10122834 46.80777321 22.20131489 44.61498531 23.30078125 42.421875 C23.60794067 41.81069824 23.9151001 41.19952148 24.23156738 40.56982422 C26.75704048 35.52886672 29.17020764 30.44289534 31.54296875 25.328125 C33.25017811 22.6002516 34.0133461 22.101871 37 21 C40.29466248 20.73930359 40.29466248 20.73930359 44.25952148 20.7253418 C44.98359192 20.72023087 45.70766235 20.71511993 46.45367432 20.70985413 C48.84289863 20.69597459 51.23183395 20.69691361 53.62109375 20.69921875 C55.28491828 20.69533094 56.94874183 20.69099609 58.61256409 20.68623352 C62.09859434 20.67877487 65.58452332 20.67906002 69.07055664 20.68432617 C73.53394384 20.69012067 77.99691605 20.67318877 82.46023464 20.6499815 C85.8960868 20.63523718 89.33183917 20.6343734 92.76771736 20.63749123 C94.41312545 20.63697837 96.05853918 20.63174739 97.70391655 20.62167931 C100.00657865 20.60931826 102.30843442 20.61610393 104.61108398 20.62768555 C105.92028305 20.62705612 107.22948212 20.6264267 108.57835388 20.6257782 C112.21887873 21.02393853 114.10911241 21.7957641 117 24 C118.54586876 27.09173752 118.29359521 29.59429552 118 33 C116.41046143 35.19818115 116.41046143 35.19818115 114 37 C110.86151123 37.48101807 110.86151123 37.48101807 107.12011719 37.45410156 C106.43678314 37.45468567 105.7534491 37.45526978 105.04940796 37.45587158 C102.79804101 37.453092 100.54800968 37.42200908 98.296875 37.390625 C96.733182 37.38316209 95.16947963 37.37746939 93.60577393 37.37347412 C89.49558567 37.35822154 85.38596529 37.3189436 81.27600098 37.2746582 C77.07991213 37.23369701 72.88373127 37.21546133 68.6875 37.1953125 C60.4580731 37.15244842 52.22910725 37.08420233 44 37 C43.70399399 37.90844666 43.40798798 38.81689331 43.10301208 39.75286865 C42.26609074 42.21666173 41.39085014 44.57405444 40.35180664 46.95410156 C40.04130875 47.66794006 39.73081085 48.38177856 39.41090393 49.11724854 C39.0806572 49.86746277 38.75041046 50.617677 38.41015625 51.390625 C38.06496445 52.17644958 37.71977264 52.96227417 37.36412048 53.77191162 C36.63697737 55.42317799 35.90823477 57.07374084 35.17797852 58.72363281 C34.0614898 61.25228793 32.95748154 63.7861699 31.85351562 66.3203125 C31.14399383 67.92742114 30.43373298 69.53420375 29.72265625 71.140625 C29.39443375 71.89893616 29.06621124 72.65724731 28.7280426 73.4385376 C27.14280804 76.9826588 26.29969833 78.80020111 23 81 C16.89562034 81.66593233 16.89562034 81.66593233 13.98657227 79.50292969 C11.30275101 76.12151941 10.07480532 72.62368694 8.65234375 68.578125 C8.35437393 67.75930847 8.05640411 66.94049194 7.74940491 66.09686279 C6.80154544 63.48491709 5.86926883 60.86772344 4.9375 58.25 C4.3076788 56.50483331 3.67682965 54.76003724 3.04492188 53.015625 C1.87758882 49.79035296 0.7169301 46.56283113 -0.43774414 43.33300781 C-1.91734558 39.20611696 -3.45133483 35.10144513 -5 31 C-7.42173401 34.02091672 -9.13452077 37.08550095 -10.8125 40.5703125 C-11.33070313 41.63121094 -11.84890625 42.69210938 -12.3828125 43.78515625 C-13.46400293 46.01804953 -14.54211261 48.25243709 -15.6171875 50.48828125 C-16.13539063 51.54660156 -16.65359375 52.60492188 -17.1875 53.6953125 C-17.88939453 55.1496167 -17.88939453 55.1496167 -18.60546875 56.63330078 C-20 59 -20 59 -23 61 C-26.9427725 61.61332017 -28.51466777 61.34386161 -31.80078125 59.015625 C-35.67965389 55.63131314 -38.47540998 51.53301436 -41.375 47.3125 C-41.92027344 46.54099609 -42.46554688 45.76949219 -43.02734375 44.97460938 C-47 39.27449483 -47 39.27449483 -47 37 C-48.31194336 37.02618408 -49.62388672 37.05236816 -50.97558594 37.0793457 C-55.84325098 37.16984847 -60.7108417 37.22724994 -65.57910156 37.2746582 C-67.68599961 37.29980212 -69.79281043 37.33392207 -71.89941406 37.37719727 C-74.9279532 37.43785368 -77.9553393 37.46621083 -80.984375 37.48828125 C-81.92617615 37.51408768 -82.86797729 37.5398941 -83.83831787 37.56648254 C-90.3501926 37.5692752 -90.3501926 37.5692752 -93.62988281 34.69604492 C-95.4973301 31.02137984 -95.08919946 28.92111804 -94 25 C-92.42114034 22.94061784 -91.30857577 22.15428789 -89 21 C-87.51533288 20.89528269 -86.02614515 20.85132953 -84.5378418 20.83886719 C-83.61315598 20.82925964 -82.68847015 20.8196521 -81.73576355 20.80975342 C-80.73370377 20.80550354 -79.73164398 20.80125366 -78.69921875 20.796875 C-77.15642998 20.78832489 -77.15642998 20.78832489 -75.58247375 20.77960205 C-73.40273063 20.77014381 -71.22297314 20.76361481 -69.04321289 20.75976562 C-65.71149648 20.75006983 -62.3803994 20.71905784 -59.04882812 20.6875 C-56.93229533 20.68096907 -54.81575813 20.67571895 -52.69921875 20.671875 C-51.70323166 20.6595282 -50.70724457 20.6471814 -49.68107605 20.63446045 C-40.98629896 20.66239397 -40.98629896 20.66239397 -37 24 C-35.28174007 26.04060441 -33.72091422 28.02132916 -32.1875 30.1875 C-31.57745117 31.02571289 -31.57745117 31.02571289 -30.95507812 31.88085938 C-29.96186136 33.24799305 -28.97977066 34.6231981 -28 36 C-26.83046033 33.68891496 -25.66381212 31.37647014 -24.5 29.0625 C-24.14268799 28.35262939 -23.78537598 27.64275879 -23.41723633 26.91137695 C-21.48621062 23.05143688 -19.60183972 19.17662827 -17.79296875 15.2578125 C-17.43976563 14.49331787 -17.0865625 13.72882324 -16.72265625 12.94116211 C-16.04364484 11.46287099 -15.37026307 9.98197828 -14.703125 8.49829102 C-13.15582317 5.13042165 -11.8283249 2.41508567 -9 0 C-5.39297148 -1.20234284 -3.64185324 -1.0405295 0 0 Z " fill="#4895EF" transform="translate(189,170)"/>
<path d="M0 0 C0.8428656 -0.0071553 1.6857312 -0.01431061 2.55413818 -0.02168274 C5.33279048 -0.03855513 8.10982619 -0.019178 10.88842773 0.00219727 C12.8222619 0.00136851 14.75609599 -0.00109113 16.68992615 -0.00511169 C20.73930102 -0.00796859 24.78812243 0.00672237 28.83740234 0.03417969 C34.02854262 0.06828504 39.21869477 0.06223564 44.40988255 0.04351711 C48.40162905 0.03295113 52.39314543 0.04188091 56.38487053 0.05690193 C58.29903416 0.06208562 60.21322181 0.06159968 62.12738228 0.05535698 C64.80159364 0.04990871 67.47438764 0.07026581 70.1484375 0.09765625 C70.93971542 0.09113037 71.73099335 0.08460449 72.54624939 0.07788086 C76.12185063 0.14018035 78.1190026 0.33146828 80.99668884 2.53944397 C82.62667463 4.79308078 83.0773965 5.87909645 83.07202148 8.63110352 C83.09393555 9.29110352 83.11584961 9.95110352 83.13842773 10.63110352 C82.12840685 13.8430954 80.3126323 14.83881796 77.50952148 16.63110352 C74.58785335 17.02345025 72.04474154 17.18901686 69.12670898 17.16455078 C68.29520325 17.17316635 67.46369751 17.18178192 66.60699463 17.19065857 C63.86585118 17.21331134 61.12573055 17.2065816 58.38452148 17.19750977 C56.47550147 17.20274539 54.56648405 17.20902164 52.6574707 17.21629333 C48.65946262 17.22669604 44.6618105 17.2221375 40.66381836 17.20751953 C35.54217694 17.1903253 30.42165671 17.21383545 25.30014038 17.24900913 C21.35897396 17.27097549 17.41807618 17.26954362 13.47686768 17.26124382 C11.58863088 17.26042401 9.70037441 17.26729311 7.81219482 17.28201485 C5.171541 17.29944853 2.53290677 17.28492979 -0.10766602 17.26220703 C-0.88599792 17.27389923 -1.66432983 17.28559143 -2.46624756 17.29763794 C-6.46713658 17.22763993 -8.29434452 16.78564867 -11.4753418 14.27915955 C-13.49047852 11.63110352 -13.49047852 11.63110352 -14.11547852 8.63110352 C-12.5196968 0.97135128 -6.91293578 -0.10240994 0 0 Z " fill="#4895EF" transform="translate(107.490478515625,381.368896484375)"/>
<path d="M0 0 C0.84242752 -0.0065712 1.68485504 -0.0131424 2.55281067 -0.01991272 C5.34721968 -0.0396622 8.14157494 -0.05131103 10.93603516 -0.0612793 C12.36554441 -0.06739259 12.36554441 -0.06739259 13.82393265 -0.07362938 C18.86650629 -0.09449563 23.90905266 -0.10879581 28.95166016 -0.11816406 C34.16630621 -0.12923895 39.38052677 -0.16364968 44.5950222 -0.20333576 C48.59956673 -0.22944719 52.60400895 -0.23785094 56.60863113 -0.24144554 C58.53120426 -0.24632449 60.45377243 -0.25797548 62.37626266 -0.27648354 C65.06498978 -0.30076231 67.7526037 -0.29993095 70.44140625 -0.29296875 C71.23739731 -0.30577881 72.03338837 -0.31858887 72.85350037 -0.33178711 C76.42057113 -0.29807115 78.43909773 -0.13522144 81.32095337 2.05403137 C83.12617516 4.5602911 83.69956882 6.09116071 83.85009766 9.17700195 C83.13826165 11.9596336 82.64449062 13.6074168 80.27915955 15.30337524 C76.77602749 16.56329774 73.34909718 16.47184249 69.67260742 16.4675293 C68.44019821 16.47760513 68.44019821 16.47760513 67.18289185 16.48788452 C64.46903423 16.5068704 61.75542378 16.51078883 59.04150391 16.51293945 C57.15347695 16.51936635 55.265451 16.52609462 53.37742615 16.53311157 C49.42062063 16.54508536 45.46390243 16.54879223 41.50708008 16.54760742 C36.43828166 16.54740408 31.37004299 16.57472105 26.3013773 16.60915184 C22.40229218 16.63139328 18.50334243 16.63544583 14.60420036 16.63438797 C12.73549404 16.63674751 10.86678418 16.6455909 8.99814034 16.6610527 C6.38402234 16.68065964 3.77112019 16.67489618 1.15698242 16.6628418 C0.38643021 16.67408081 -0.38412201 16.68531982 -1.17802429 16.69689941 C-4.86686091 16.6536972 -6.9649076 16.29475114 -10.10658264 14.29507446 C-12.52774503 11.78533627 -13.14990234 10.66034346 -13.14990234 7.17700195 C-10.16769664 -0.20750741 -7.39204188 0.02484438 0 0 Z " fill="#4895EF" transform="translate(227.14990234375,381.822998046875)"/>
<path d="M0 0 C0.82160614 -0.00686325 1.64321228 -0.0137265 2.48971558 -0.02079773 C5.20368771 -0.03908823 7.91708301 -0.03522502 10.63110352 -0.02954102 C12.51913135 -0.03410183 14.40715752 -0.0394071 16.29518127 -0.04542542 C20.2520319 -0.054361 24.20868076 -0.0519284 28.16552734 -0.04199219 C33.2343577 -0.03050354 38.30249131 -0.05071007 43.37123013 -0.07990932 C47.27033406 -0.09826251 51.16927077 -0.0979806 55.06840706 -0.0922718 C56.93710368 -0.09211847 58.80581154 -0.09817258 60.67446709 -0.11056328 C63.28862989 -0.12545448 65.90150236 -0.11481046 68.515625 -0.09765625 C69.67145332 -0.1121582 69.67145332 -0.1121582 70.85063171 -0.12695312 C74.51401591 -0.07665795 76.64481308 0.29300205 79.77919006 2.2518158 C82.40136251 5.01376068 82.82250977 6.61334464 82.82250977 10.40405273 C80.69207498 14.96927013 80.69207498 14.96927013 77.82250977 16.40405273 C75.09784317 16.51808594 72.39814859 16.57189424 69.67260742 16.58105469 C68.8301799 16.58762589 67.98775238 16.59419708 67.11979675 16.60096741 C64.32538775 16.62071689 61.53103248 16.63236571 58.73657227 16.64233398 C57.78356609 16.64640951 56.83055992 16.65048504 55.84867477 16.65468407 C50.80610113 16.67555032 45.76355476 16.6898505 40.72094727 16.69921875 C35.50630121 16.71029364 30.29208065 16.74470437 25.07758522 16.78439045 C21.07304069 16.81050188 17.06859847 16.81890563 13.06397629 16.82250023 C11.14140316 16.82737917 9.21883499 16.83903017 7.29634476 16.85753822 C4.60761764 16.88181699 1.92000372 16.88098564 -0.76879883 16.87402344 C-1.96278542 16.89323853 -1.96278542 16.89323853 -3.18089294 16.9128418 C-6.76955486 16.87892175 -8.76520352 16.72246803 -11.64834595 14.49577332 C-13.25612575 12.296487 -14.01301643 11.11787043 -14.17749023 8.40405273 C-13.42606111 5.60327145 -12.62393607 3.86645653 -10.60655212 1.77696228 C-7.14970246 -0.17685451 -3.86628438 -0.02252806 0 0 Z " fill="#4895EF" transform="translate(228.177490234375,333.595947265625)"/>
<path d="M0 0 C0.8119986 -0.00525696 1.62399719 -0.01051392 2.46060181 -0.01593018 C5.13669236 -0.02910168 7.81218496 -0.02040231 10.48828125 -0.01025391 C12.35245884 -0.01227546 14.21663566 -0.01518758 16.08081055 -0.01895142 C19.98461448 -0.0233709 23.88821225 -0.01695577 27.79199219 -0.00292969 C32.7923168 0.01416196 37.79215832 0.00431877 42.79246521 -0.01364708 C46.64094676 -0.02449503 50.48931405 -0.02103392 54.33779907 -0.0132637 C56.18136655 -0.0112645 58.02494445 -0.01371115 59.86849976 -0.02070236 C62.44646631 -0.02833349 65.02365386 -0.01668963 67.6015625 0 C68.36119293 -0.00607269 69.12082336 -0.01214539 69.9034729 -0.0184021 C74.36753153 0.03505435 77.25504939 0.61957169 80.80078125 3.38818359 C82.34665001 6.47992111 82.09437646 8.98247912 81.80078125 12.38818359 C80.30381775 14.58140564 80.30381775 14.58140564 77.80078125 16.38818359 C74.88810396 16.78790567 72.35218245 16.9456509 69.43969727 16.92163086 C68.59858398 16.93024643 67.7574707 16.938862 66.89086914 16.94773865 C64.11182843 16.97043219 61.33379343 16.96365341 58.5546875 16.95458984 C56.62181803 16.95982419 54.68895113 16.96609997 52.75608826 16.97337341 C48.70502707 16.98378406 44.654317 16.97920698 40.60327148 16.96459961 C35.41322518 16.94741672 30.22428643 16.97089743 25.03436375 17.00608921 C21.04258393 17.02805687 17.05106934 17.02662316 13.05924797 17.0183239 C11.14589155 17.01750392 9.23251575 17.02437626 7.31921577 17.03909492 C4.64253957 17.056528 1.96785601 17.04200943 -0.70874023 17.01928711 C-1.49799393 17.03097931 -2.28724762 17.04267151 -3.10041809 17.05471802 C-7.16659361 16.9845345 -8.98712953 16.55812936 -12.20204163 13.98204041 C-14.19921875 11.38818359 -14.19921875 11.38818359 -14.64453125 9.25537109 C-14.53882812 8.59794922 -14.433125 7.94052734 -14.32421875 7.26318359 C-14.24429688 6.60060547 -14.164375 5.93802734 -14.08203125 5.25537109 C-11.45548561 -0.29988916 -5.35640549 -0.04282057 0 0 Z " fill="#4895EF" transform="translate(108.19921875,333.61181640625)"/>
<path d="M0 0 C0.82031204 0.00247742 1.64062408 0.00495483 2.48579407 0.00750732 C3.34933502 0.00239639 4.21287598 -0.00271454 5.10258484 -0.00798035 C7.96680059 -0.02191906 10.83077688 -0.02091636 13.69502258 -0.01861572 C15.68038015 -0.02250035 17.66573688 -0.02683453 19.65109253 -0.03160095 C23.81656079 -0.03907241 27.9819443 -0.03876523 32.14741516 -0.0335083 C37.49213866 -0.02771296 42.83651571 -0.04464179 48.18118191 -0.06785297 C52.28263384 -0.08256691 56.38400189 -0.0834652 60.48547554 -0.08034325 C62.45630136 -0.08085765 64.42713173 -0.0861177 66.39793205 -0.09615517 C69.15140834 -0.10845678 71.90420412 -0.10176577 74.65766907 -0.09014893 C75.47595688 -0.09779266 76.29424469 -0.1054364 77.1373291 -0.11331177 C82.70755937 -0.06122314 82.70755937 -0.06122314 84.81462193 1.62586689 C86.81002708 4.12622214 87.0098569 6.11786709 87.13642883 9.28216553 C85.87917712 12.3554475 84.96418956 13.84352329 82.01448059 15.40661621 C78.38517812 16.510708 74.96810975 16.5617371 71.21260071 16.54095459 C70.42986282 16.54445923 69.64712494 16.54796387 68.84066772 16.55157471 C66.2620803 16.56035266 63.68376888 16.55455683 61.10517883 16.54779053 C59.30826261 16.54913831 57.51134674 16.55107979 55.71443176 16.55358887 C51.95190452 16.5565348 48.18947235 16.55225956 44.42695618 16.54290771 C39.60832399 16.5315135 34.78991461 16.53807581 29.97129059 16.55005264 C26.26179837 16.55728557 22.55235881 16.55497672 18.84286499 16.54979706 C17.06628391 16.54846453 15.28969802 16.55009438 13.51312256 16.55475616 C11.02870547 16.55984493 8.54464737 16.55207823 6.06025696 16.54095459 C4.96288963 16.54702728 4.96288963 16.54702728 3.84335327 16.55322266 C-1.33565689 16.5103453 -5.13101808 16.01471862 -8.86357117 12.28216553 C-9.84427178 9.25833865 -9.97819537 7.66130714 -9.05107117 4.59466553 C-6.73981888 0.09380581 -4.85963734 0.04607362 0 0 Z " fill="#4895EF" transform="translate(223.8635711669922,286.71783447265625)"/>
<path d="M0 0 C0.85232712 -0.00686325 1.70465424 -0.0137265 2.58280945 -0.02079773 C5.40441478 -0.03912108 8.225467 -0.03522031 11.04711914 -0.02954102 C13.00623252 -0.03410028 14.9653443 -0.03940508 16.92445374 -0.04542542 C21.03270968 -0.05436748 25.14077135 -0.05192107 29.24902344 -0.04199219 C34.5163887 -0.03050316 39.78308352 -0.05070749 45.05036068 -0.07990932 C49.09697233 -0.09824722 53.14342262 -0.09798364 57.19006538 -0.0922718 C59.1321564 -0.09211828 61.07425814 -0.09818797 63.01630974 -0.11056328 C65.73135411 -0.12542544 68.44515117 -0.11483162 71.16015625 -0.09765625 C72.36581238 -0.1121582 72.36581238 -0.1121582 73.5958252 -0.12695312 C77.13763129 -0.07998684 79.23896218 0.10970764 82.14381409 2.21665955 C84.3477308 5.42848946 84.18770469 7.60354761 83.64477539 11.40405273 C81.4261451 14.31122346 80.1253261 15.24386916 76.64477539 16.40405273 C74.03993571 16.51039347 71.46145589 16.56129271 68.85620117 16.56518555 C67.66790207 16.5726329 67.66790207 16.5726329 66.45559692 16.58023071 C63.83375176 16.59484089 61.21196708 16.60165219 58.59008789 16.60717773 C56.76789346 16.61292984 54.94569904 16.61868756 53.12350464 16.62445068 C49.30197874 16.63495721 45.48047386 16.64080225 41.65893555 16.64428711 C36.76397294 16.64977314 31.86928832 16.67380493 26.97441292 16.70225906 C23.2100239 16.72088878 19.44570182 16.72609121 15.6812706 16.72762299 C13.87676345 16.73064895 12.07225746 16.7386756 10.26779556 16.75180817 C7.74236173 16.76887683 5.2176069 16.76698664 2.69213867 16.76049805 C1.5760321 16.77432022 1.5760321 16.77432022 0.43737793 16.78842163 C-4.006813 16.75268093 -6.83707803 16.16483776 -10.35522461 13.40405273 C-12.35522461 10.40405273 -12.35522461 10.40405273 -12.16772461 6.90405273 C-10.49669932 -0.29421003 -6.72222703 -0.03755434 0 0 Z " fill="#4895EF" transform="translate(106.355224609375,286.595947265625)"/>
<path d="M0 0 C2.05938216 1.57885966 2.84571211 2.69142423 4 5 C4.07092842 7.2072923 4.08415025 9.41667452 4.0625 11.625 C4.05347656 12.81351563 4.04445313 14.00203125 4.03515625 15.2265625 C4.02355469 16.14179688 4.01195312 17.05703125 4 18 C4.96421875 17.95359375 5.9284375 17.9071875 6.921875 17.859375 C8.18515625 17.82328125 9.4484375 17.7871875 10.75 17.75 C12.00296875 17.70359375 13.2559375 17.6571875 14.546875 17.609375 C18 18 18 18 20.39453125 19.83203125 C22.47862442 22.64631764 22.92864647 24.5036772 23 28 C20.86956522 32.56521739 20.86956522 32.56521739 18 34 C15.62597499 34.07116382 13.24999323 34.08409085 10.875 34.0625 C9.59367187 34.05347656 8.31234375 34.04445312 6.9921875 34.03515625 C5.51105469 34.01775391 5.51105469 34.01775391 4 34 C4.02320313 34.89203125 4.04640625 35.7840625 4.0703125 36.703125 C4.08835937 37.87359375 4.10640625 39.0440625 4.125 40.25 C4.14820313 41.41015625 4.17140625 42.5703125 4.1953125 43.765625 C4.00882671 46.85382971 3.68235394 48.45551451 2 51 C-0.69587803 53.09679403 -2.092944 52.99510821 -5.5625 52.8125 C-10.16959832 51.72354949 -10.16959832 51.72354949 -12 49 C-12.2172101 46.35003674 -12.28351554 43.94923442 -12.1875 41.3125 C-12.16719727 40.2596582 -12.16719727 40.2596582 -12.14648438 39.18554688 C-12.11120182 37.45670171 -12.05739583 35.72825235 -12 34 C-12.95261719 34.04640625 -13.90523438 34.0928125 -14.88671875 34.140625 C-16.14097656 34.17671875 -17.39523437 34.2128125 -18.6875 34.25 C-19.92886719 34.29640625 -21.17023438 34.3428125 -22.44921875 34.390625 C-26.59714393 33.9343076 -28.17676689 33.02981114 -31 30 C-31.6640625 28 -31.6640625 28 -31.625 26 C-31.63789063 25.34 -31.65078125 24.68 -31.6640625 24 C-30.5975857 20.78802281 -28.85403219 19.72693782 -26 18 C-22.44921875 17.609375 -22.44921875 17.609375 -18.6875 17.75 C-17.43324219 17.78609375 -16.17898438 17.8221875 -14.88671875 17.859375 C-13.45779297 17.92898437 -13.45779297 17.92898437 -12 18 C-12.05800781 16.96359375 -12.11601562 15.9271875 -12.17578125 14.859375 C-12.22269038 13.48962844 -12.26818932 12.11983308 -12.3125 10.75 C-12.35439453 10.06808594 -12.39628906 9.38617188 -12.43945312 8.68359375 C-12.5313588 4.89708003 -12.31024191 3.33666796 -9.70703125 0.51171875 C-6.02751204 -1.54307769 -4.00072023 -1.11131118 0 0 Z " fill="#4895EF" transform="translate(406,172)"/>
</svg>
