<svg width="38" height="32" viewBox="0 0 38 32" fill="none" xmlns="http://www.w3.org/2000/svg">
<path d="M32.854 0.855469C32.4134 0.855646 32.0067 1.08359 31.6313 1.42251C31.2557 1.76156 30.8993 2.22492 30.5562 2.77756C29.8698 3.88285 29.2429 5.34697 28.7658 6.86631C28.2888 8.38565 27.9623 9.95614 27.8978 11.2801C27.8333 12.6041 27.9883 13.7236 28.7187 14.2773C29.5492 14.9072 30.5477 15.4147 31.7066 15.8057C31.7083 17.021 31.7081 17.1965 31.7107 18.9434C31.4302 19.1605 31.2452 19.4746 31.2452 19.8888V30.3888C31.2452 32.1491 34.5265 32.132 34.5265 30.3888V19.8888C34.5265 19.4519 34.3186 19.124 34.0076 18.9059C34.005 17.1961 34.0052 17.0099 34.0035 15.8118C35.23 15.4202 36.2324 14.91 37.0018 14.2676C37.703 13.6821 37.8498 12.5591 37.7821 11.2309C37.7144 9.90263 37.391 8.33538 36.9182 6.82324C36.4454 5.31111 35.8245 3.85773 35.1432 2.76116C34.8026 2.21287 34.4479 1.75359 34.0738 1.41738C33.6998 1.08131 33.294 0.855644 32.8546 0.855469H32.854ZM32.854 1.51172C33.0604 1.51172 33.3303 1.63129 33.6349 1.90496C33.9394 2.17862 34.267 2.59437 34.5859 3.10774C35.2238 4.13447 35.8321 5.54935 36.2917 7.01909C36.7512 8.48883 37.0633 10.0168 37.1269 11.2642C37.1905 12.5117 36.9639 13.4447 36.5813 13.7641C35.9352 14.3036 35.0758 14.7589 34.0025 15.1217C34.0003 13.459 33.9963 10.8329 33.9963 10.3752C33.9963 9.59385 33.4301 9.08385 32.8484 9.08269C32.2668 9.08154 31.6995 9.59128 31.6995 10.3752C31.6995 10.8215 31.7034 13.4541 31.7056 15.1104C30.6941 14.7494 29.8306 14.2967 29.1155 13.7544H29.115C28.7278 13.4608 28.4931 12.5534 28.5536 11.3124C28.614 10.0715 28.9281 8.5396 29.3918 7.06267C29.8556 5.58574 30.4701 4.15965 31.1134 3.12363C31.4351 2.60562 31.7652 2.18624 32.0717 1.90957C32.3782 1.6329 32.6489 1.51172 32.854 1.51172ZM32.8474 9.73894C33.086 9.73943 33.3401 9.87358 33.3401 10.3752C33.3401 11.1736 33.3442 14.1911 33.3509 18.6357C33.1991 18.6033 33.0434 18.5817 32.8858 18.5814C32.7095 18.581 32.5347 18.605 32.3665 18.645C32.3598 14.1732 32.3557 11.1529 32.3557 10.3752C32.3557 9.86958 32.6087 9.73846 32.8474 9.73894ZM6.48306 12.6818C5.60752 12.6818 4.89062 13.399 4.89062 14.2748V14.3701C4.89062 14.896 5.15054 15.3634 5.54688 15.6539V16.6239C3.89251 16.6967 2.58029 17.2175 1.69192 18.2169C0.745257 19.2819 0.296875 20.8399 0.296875 22.8439C0.296875 24.848 0.745257 26.406 1.69192 27.471C2.58222 28.4726 3.89818 28.9935 5.55764 29.0645C5.60822 29.8268 5.84787 30.458 6.29951 30.9097C6.81193 31.4221 7.56184 31.6743 8.48975 31.7033C8.49316 31.7034 8.49658 31.7034 8.5 31.7033H19C19.9278 31.7033 20.6827 31.4654 21.1974 30.9507C21.6795 30.4686 21.8994 29.7595 21.9295 28.9096L27.5312 23.3079L27.9558 23.7319C28.0173 23.7933 28.1006 23.8277 28.1875 23.8277C28.2744 23.8277 28.3577 23.7933 28.4192 23.7319L29.7317 22.4194C29.7931 22.3579 29.8275 22.2746 29.8275 22.1877C29.8275 22.1008 29.7931 22.0175 29.7317 21.956L26.1224 18.3466C26.0608 18.2852 25.9775 18.2508 25.8906 18.2508C25.8037 18.2508 25.7204 18.2852 25.6589 18.3466L24.3464 19.6591C24.285 19.7206 24.2506 19.8039 24.2506 19.8908C24.2506 19.9777 24.285 20.061 24.3464 20.1226L24.7704 20.5471L21.9531 23.3643V15.6539C22.3495 15.3634 22.6094 14.896 22.6094 14.3701V14.2748C22.6094 13.399 21.8925 12.6818 21.0169 12.6818H6.48306ZM6.48306 13.3381H21.0169C21.5373 13.3381 21.9531 13.754 21.9531 14.2748V14.3701C21.9531 14.857 21.5875 15.2483 21.1144 15.2971H6.38564C5.91247 15.2483 5.54688 14.857 5.54688 14.3701V14.2748C5.54688 13.754 5.96275 13.3381 6.48306 13.3381ZM6.20312 15.9533H6.3113C6.36784 15.9595 6.42496 15.9631 6.48306 15.9631H21.0169C21.075 15.9631 21.1322 15.9595 21.1887 15.9533H21.2969V17.9221H6.20312V15.9533ZM5.54688 17.2802V18.5922C4.53897 18.6571 3.71859 19.0157 3.16233 19.6832C2.54667 20.422 2.26562 21.4876 2.26562 22.8439C2.26562 24.2003 2.54667 25.2659 3.16233 26.0047C3.71859 26.6722 4.53897 27.0308 5.54688 27.0957V28.4077C4.03334 28.3379 2.93203 27.8778 2.18308 27.0352C1.37974 26.1315 0.953125 24.7501 0.953125 22.8439C0.953125 20.9378 1.37974 19.5564 2.18308 18.6527C2.93203 17.8101 4.03334 17.35 5.54688 17.2802ZM6.20312 18.5783H21.2969V20.5471H6.20312V18.5783ZM25.8906 19.0423L29.036 22.1877L28.1875 23.0362L27.763 22.6122C27.7015 22.5509 27.6181 22.5164 27.5312 22.5164C27.4444 22.5164 27.361 22.5509 27.2995 22.6122L21.3933 28.5185C21.3318 28.5798 21.2972 28.6629 21.2969 28.7497C21.295 29.5701 21.0938 30.1269 20.7334 30.4872C20.3731 30.8475 19.8182 31.0471 19 31.0471H8.51025C7.68815 31.0214 7.12557 30.8088 6.76299 30.4462C6.40041 30.0836 6.20312 29.5414 6.20312 28.7502V21.2033H21.2969V24.1564C21.297 24.2213 21.3163 24.2846 21.3524 24.3384C21.3884 24.3923 21.4396 24.4342 21.4995 24.459C21.5594 24.4838 21.6253 24.4903 21.6889 24.4777C21.7524 24.4651 21.8108 24.4339 21.8567 24.3882L25.4661 20.7788C25.5275 20.7173 25.5619 20.634 25.5619 20.5471C25.5619 20.4602 25.5275 20.3768 25.4661 20.3153L25.0421 19.8908L25.8906 19.0423ZM32.8858 19.2428C33.378 19.2462 33.8702 19.4651 33.8702 19.8888V25.1408H31.9015V19.8888C31.9015 19.4513 32.3937 19.2393 32.8858 19.2428ZM5.54688 19.2474V26.4405C4.69554 26.3816 4.09091 26.0944 3.6658 25.5843C3.1877 25.0106 2.92188 24.1091 2.92188 22.8439C2.92188 21.5788 3.1877 20.6773 3.6658 20.1036C4.09083 19.5935 4.69577 19.3063 5.54688 19.2474ZM31.9015 25.7971H33.8702V27.1096H31.9015V25.7971ZM31.9015 27.7658H33.8702V30.3888C33.8702 31.2502 31.9015 31.2843 31.9015 30.3888V27.7658Z" fill="#4895EF"/>
</svg>
