<svg width="34" height="34" viewBox="0 0 34 34" fill="none" xmlns="http://www.w3.org/2000/svg">
<g clip-path="url(#clip0_27_3746)">
<path d="M6.3194 24.0906C3.53565 24.0906 1.271 22.0182 1.271 19.4709C1.271 16.9235 3.53565 14.8511 6.3194 14.8511C6.70067 14.8509 7.08093 14.8903 7.45402 14.9689V3.2405C7.45616 2.86336 7.58665 2.49819 7.82399 2.20509C8.06133 1.91199 8.39138 1.70842 8.75983 1.62789L15.9552 0.0772424C16.5897 -0.0610587 17.2469 -0.0568252 17.8795 0.0896375C18.5121 0.2361 19.1043 0.521141 19.6134 0.924198C20.1225 1.32726 20.5358 1.83828 20.8235 2.42041C21.1112 3.00255 21.2661 3.64127 21.277 4.29052C21.2786 4.40421 21.2412 4.51501 21.1711 4.60453C21.101 4.69404 21.0024 4.75688 20.8917 4.78259L11.3679 6.99458V16.4982C11.3679 16.8147 11.3792 17.1366 11.3911 17.4774C11.4356 18.749 11.4817 20.0637 10.9464 21.2571C10.1862 22.9519 8.32666 24.0907 6.3194 24.0907V24.0906ZM6.3194 15.8472C4.08496 15.8472 2.26709 17.4728 2.26709 19.4709C2.26709 21.4689 4.08496 23.0945 6.3194 23.0945C7.94097 23.0945 9.43518 22.1923 10.0376 20.8494C10.4781 19.8672 10.4361 18.67 10.3956 17.5122C10.3839 17.1778 10.3717 16.8321 10.3717 16.4981V6.59893C10.3717 6.48643 10.4098 6.37724 10.4798 6.28916C10.5498 6.20107 10.6475 6.13928 10.7571 6.11384L20.2523 3.90848C20.138 3.04355 19.6917 2.25701 19.0078 1.71529C18.6131 1.40027 18.1532 1.1772 17.6614 1.06228C17.1696 0.947366 16.6584 0.943497 16.165 1.05096L8.96967 2.60154C8.82338 2.63321 8.69223 2.71374 8.59779 2.82987C8.50336 2.94601 8.45128 3.09083 8.45011 3.2405V15.6236C8.45012 15.7031 8.4311 15.7814 8.39464 15.8521C8.35818 15.9227 8.30535 15.9836 8.24055 16.0296C8.17575 16.0757 8.10087 16.1056 8.02217 16.1167C7.94347 16.1279 7.86324 16.1201 7.78817 16.094C7.31591 15.9298 6.81937 15.8464 6.3194 15.8472Z" fill="#4895EF"/>
<path d="M14.424 33.978C11.6402 33.978 9.37549 31.9056 9.37549 29.3582C9.37549 26.8109 11.6401 24.7385 14.4239 24.7385C14.8052 24.7383 15.1855 24.7778 15.5586 24.8563V11.976C15.5607 11.5988 15.6912 11.2337 15.9285 10.9406C16.1658 10.6475 16.4959 10.4439 16.8643 10.3633L30.8787 7.34319C31.0996 7.29516 31.3284 7.29716 31.5484 7.34905C31.7685 7.40093 31.9741 7.50138 32.1502 7.64303C32.3264 7.78469 32.4687 7.96396 32.5665 8.16771C32.6644 8.37147 32.7155 8.59454 32.716 8.8206L32.7159 21.3911C32.7157 23.0678 32.7158 24.7445 32.716 26.4212C32.7161 26.6168 32.7193 26.8147 32.7226 27.0061C32.7427 28.2153 32.7636 29.4656 31.9689 30.6659C31.4939 31.3709 30.8536 31.949 30.1038 32.3496C29.3541 32.7503 28.5177 32.9614 27.6676 32.9644C24.8839 32.9644 22.6192 30.892 22.6192 28.3447C22.6192 25.7973 24.8839 23.7249 27.6676 23.7249C28.0489 23.7247 28.4291 23.7642 28.8022 23.8428V13.5631L19.4724 15.7301V26.3855C19.4724 26.702 19.4836 27.0239 19.4956 27.3647C19.5402 28.6363 19.5862 29.9511 19.0509 31.1445C18.2907 32.8393 16.4312 33.978 14.424 33.978ZM14.4239 25.7346C12.1895 25.7346 10.3716 27.3602 10.3716 29.3582C10.3716 31.3563 12.1895 32.9819 14.424 32.9819C16.0455 32.9819 17.5397 32.0796 18.142 30.7367C18.5826 29.7546 18.5407 28.5574 18.5002 27.3995C18.4884 27.0652 18.4763 26.7194 18.4763 26.3855V15.6024C18.4758 15.4133 18.5396 15.2297 18.6573 15.0817C18.7751 14.9338 18.9396 14.8303 19.124 14.7883L28.7708 12.5477C28.8936 12.5191 29.0212 12.5185 29.1442 12.546C29.2671 12.5736 29.3823 12.6285 29.4811 12.7068C29.5799 12.785 29.6597 12.8846 29.7147 12.998C29.7696 13.1115 29.7982 13.2358 29.7984 13.3619V24.22C29.7988 24.3284 29.7739 24.4355 29.7255 24.5325C29.6771 24.6296 29.6066 24.7139 29.5198 24.7789C29.4324 24.8442 29.3312 24.8885 29.2239 24.9083C29.1166 24.9282 29.0062 24.9229 28.9013 24.8931C28.5001 24.7785 28.0849 24.7206 27.6676 24.7209C25.4331 24.7209 23.6152 26.3466 23.6152 28.3446C23.6152 30.3427 25.4331 31.9683 27.6676 31.9683C29.0308 31.9683 30.3932 31.2412 31.1383 30.1159C31.7624 29.1732 31.7458 28.1767 31.7266 27.0227C31.7233 26.8272 31.72 26.6252 31.72 26.4215C31.7195 24.7446 31.7194 23.0678 31.7198 21.3909L31.7199 8.82053C31.72 8.74384 31.7028 8.66812 31.6696 8.59896C31.6365 8.52981 31.5882 8.469 31.5283 8.42103C31.4675 8.37179 31.3964 8.33685 31.3203 8.31881C31.2441 8.30076 31.1649 8.30007 31.0885 8.31677L17.0742 11.3369C16.9279 11.3686 16.7967 11.4491 16.7023 11.5653C16.6079 11.6814 16.5558 11.8262 16.5547 11.9759V25.2335C16.5551 25.342 16.5302 25.449 16.4818 25.5461C16.4334 25.6431 16.363 25.7275 16.2761 25.7924C16.1888 25.8578 16.0875 25.9021 15.9802 25.9219C15.8729 25.9417 15.7625 25.9365 15.6576 25.9066C15.2564 25.7921 14.8411 25.7342 14.4239 25.7346Z" fill="#4895EF"/>
</g>
<defs>
<clipPath id="clip0_27_3746">
<rect width="34" height="34" fill="white"/>
</clipPath>
</defs>
</svg>
