<svg width="32" height="32" viewBox="0 0 32 32" fill="none" xmlns="http://www.w3.org/2000/svg">
<g clip-path="url(#clip0_27_3760)">
<path d="M24 10.6673H8.00004C6.52937 10.6673 5.33337 9.47132 5.33337 8.00065V4.00065C5.33337 2.52998 6.52937 1.33398 8.00004 1.33398H24C25.4707 1.33398 26.6667 2.52998 26.6667 4.00065V8.00065C26.6667 9.47132 25.4707 10.6673 24 10.6673ZM8.00004 2.66732C7.26471 2.66732 6.66671 3.26532 6.66671 4.00065V8.00065C6.66671 8.73598 7.26471 9.33398 8.00004 9.33398H24C24.7354 9.33398 25.3334 8.73598 25.3334 8.00065V4.00065C25.3334 3.26532 24.7354 2.66732 24 2.66732H8.00004Z" fill="#4895EF"/>
<path d="M26 5.33398H28V6.66732H26V5.33398ZM17.3333 20.0007H16V14.0007C16 13.6333 15.7006 13.334 15.3333 13.334H5.33329C3.63863 13.334 2.66663 12.362 2.66663 10.6673V8.00065C2.66663 6.30598 3.63863 5.33398 5.33329 5.33398H5.99996V6.66732H5.33329C4.37396 6.66732 3.99996 7.04132 3.99996 8.00065V10.6673C3.99996 11.6267 4.37396 12.0007 5.33329 12.0007H15.3333C16.436 12.0007 17.3333 12.898 17.3333 14.0007V20.0007Z" fill="#4895EF"/>
<path d="M17.3333 32.0007H16C14.8973 32.0007 14 31.1033 14 30.0007V22.6673C14 20.58 14.9967 19.334 16.6667 19.334C18.3367 19.334 19.3333 20.58 19.3333 22.6673V30.0007C19.3333 31.1033 18.436 32.0007 17.3333 32.0007ZM16.6667 20.6673C16.3367 20.6673 15.3333 20.6673 15.3333 22.6673V30.0007C15.3333 30.368 15.6327 30.6673 16 30.6673H17.3333C17.7007 30.6673 18 30.368 18 30.0007V22.6673C18 20.6673 16.9967 20.6673 16.6667 20.6673Z" fill="#4895EF"/>
</g>
<defs>
<clipPath id="clip0_27_3760">
<rect width="32" height="32" fill="white"/>
</clipPath>
</defs>
</svg>
