<?xml version="1.0" encoding="UTF-8"?>
<svg xmlns="http://www.w3.org/2000/svg" width="30" height="30" viewBox="0 0 512 512">
<path d="M0 0 C7.61953652 6.24941803 12.27868853 13.27734162 15.12890625 22.74609375 C15.12890625 24.06609375 15.12890625 25.38609375 15.12890625 26.74609375 C16.0725 26.71128906 17.01609375 26.67648438 17.98828125 26.640625 C32.95661976 26.3250275 45.00356607 29.0083312 56.37890625 39.37109375 C61.5887875 44.85629393 66.12890625 52.07100962 66.12890625 59.74609375 C66.80605179 59.73943192 67.48319733 59.73277008 68.18086243 59.72590637 C75.27067281 59.65919543 82.36039306 59.61414542 89.45043945 59.58129883 C92.09142686 59.56627394 94.73238957 59.54584825 97.37329102 59.51977539 C101.18381876 59.48311497 104.99401469 59.46630369 108.8046875 59.453125 C109.972845 59.43764114 111.1410025 59.42215729 112.34455872 59.40620422 C123.53002241 59.4039419 133.47491022 61.25608549 142.12890625 68.74609375 C149.28383393 76.44899182 152.24890925 84.77935546 152.26033401 95.23676586 C152.26238665 95.87774437 152.26443928 96.51872288 152.26655412 97.17912498 C152.27221404 99.32957499 152.27076812 101.47996074 152.26934814 103.63041687 C152.27193236 105.18678051 152.27494568 106.74314348 152.27835155 108.29950553 C152.28641819 112.57870088 152.28821093 116.85787945 152.28894901 121.1370815 C152.29080015 125.75141116 152.29834779 130.36573213 152.30508423 134.98005676 C152.31866567 145.0710182 152.32469197 155.16197566 152.32909489 165.25294471 C152.33185762 171.55392844 152.33609503 177.85491063 152.34059906 184.15589333 C152.35279146 201.60188418 152.36309084 219.04787381 152.36647415 236.49386883 C152.36669372 237.61043466 152.36691328 238.72700048 152.3671395 239.87740164 C152.36735778 240.99663689 152.36757606 242.11587213 152.36780095 243.2690236 C152.36824442 245.53701508 152.36869098 247.80500656 152.36914062 250.07299805 C152.36936205 251.19799982 152.36958348 252.32300159 152.36981162 253.48209433 C152.37375954 271.71064388 152.39121349 289.93915345 152.41450015 308.16768756 C152.43821586 326.88316111 152.4506761 345.5986146 152.45184207 364.31410342 C152.4527587 374.82194465 152.45850811 385.32973378 152.47666168 395.83756065 C152.49206561 404.78533527 152.49718139 413.73304169 152.48892358 422.68082704 C152.48501813 427.24507761 152.48594156 431.80919087 152.49998093 436.37342453 C152.512726 440.55516752 152.51151702 444.7366701 152.49939021 448.91841278 C152.49743427 450.42785482 152.50050691 451.93731393 152.50923458 453.44673201 C152.57562153 465.70852501 151.30926395 476.12864618 143.12890625 485.74609375 C135.91997985 492.45684231 127.77513951 495.86377098 117.90324116 495.87752151 C116.86488442 495.88136266 115.82652768 495.8852038 114.75670558 495.88916135 C113.05536622 495.88786162 113.05536622 495.88786162 111.31965637 495.88653564 C109.5046091 495.89099233 109.5046091 495.89099233 107.6528942 495.89553905 C104.29721395 495.90271192 100.9415849 495.90539779 97.58590066 495.90613651 C93.96544408 495.90798967 90.34499853 495.91553833 86.72454834 495.92227173 C78.8091377 495.93584514 70.89373212 495.94187826 62.97831178 495.94628239 C58.0341565 495.94904656 53.09000318 495.95328424 48.14584923 495.95778656 C34.45203302 495.96997806 20.75821837 495.98027753 7.06439686 495.98366165 C5.75011288 495.983991 5.75011288 495.983991 4.40927772 495.984327 C3.53101326 495.98454528 2.6527488 495.98476356 1.74787027 495.98498845 C-0.03177464 495.98543191 -1.81141955 495.98587848 -3.59106445 495.98632812 C-4.47382643 495.98654955 -5.3565884 495.98677098 -6.26610074 495.98699912 C-20.56624056 495.99094615 -34.86632939 496.0083978 -49.16644951 496.03168765 C-63.8545593 496.05541593 -78.54264353 496.06786418 -93.23077279 496.06902957 C-101.47502025 496.06994551 -109.71920127 496.07567748 -117.9634304 496.09384918 C-124.984336 496.10927013 -132.00515463 496.1143589 -139.02607395 496.10611108 C-142.60605917 496.10221158 -146.18586936 496.1030997 -149.7658329 496.11716843 C-153.65293877 496.13230401 -157.53980002 496.12402005 -161.42692566 496.11358643 C-162.54999829 496.12164283 -163.67307092 496.12969923 -164.83017606 496.13799977 C-175.87939355 496.06874646 -185.50269018 493.58054119 -193.78125 485.99609375 C-202.67588518 476.62934417 -203.45783107 466.42399935 -203.37902832 454.03271484 C-203.38364287 452.44728206 -203.3899995 450.86185357 -203.3979373 449.27643394 C-203.41457772 444.94001167 -203.40640845 440.60394321 -203.39399242 436.26751995 C-203.38492253 431.58304683 -203.39892127 426.89863351 -203.40991211 422.21417236 C-203.42768122 413.04530092 -203.4238645 403.87656059 -203.41226155 394.70768404 C-203.40322118 387.25471707 -203.40200584 379.8017868 -203.40635681 372.34881592 C-203.40696974 371.28731933 -203.40758268 370.22582274 -203.40821418 369.13215959 C-203.40949311 366.97562423 -203.41078996 364.81908889 -203.41210455 362.66255355 C-203.42350564 342.4495451 -203.41040402 322.23660927 -203.38890308 302.02361274 C-203.37103254 284.68692943 -203.37413678 267.35035325 -203.39257812 250.01367188 C-203.41399314 229.87207335 -203.42240704 209.73053845 -203.41012907 189.58893013 C-203.4088549 187.44041062 -203.40759742 185.29189111 -203.40635681 183.14337158 C-203.40573971 182.08631024 -203.40512261 181.02924889 -203.40448681 179.94015539 C-203.4010358 172.49774673 -203.40685687 165.05537848 -203.41627502 157.61297607 C-203.42750338 148.54085788 -203.42443732 139.4688781 -203.40315205 130.39677572 C-203.39265294 125.76968107 -203.38850039 121.14281703 -203.40174866 116.51572418 C-203.41370198 112.27673664 -203.40706179 108.03819264 -203.38583845 103.79924512 C-203.38138481 102.26909803 -203.38361074 100.73891317 -203.3933416 99.20879054 C-203.46421903 87.13374168 -201.80204364 77.78833296 -193.28515625 68.79296875 C-185.61294882 62.28773139 -177.06814507 59.60969501 -167.14111328 59.63256836 C-166.04042511 59.63264389 -164.93973694 59.63271942 -163.80569458 59.63279724 C-162.04755936 59.64053917 -162.04755936 59.64053917 -160.25390625 59.6484375 C-159.04161346 59.64985245 -157.82932068 59.6512674 -156.58029175 59.65272522 C-152.71886702 59.6583103 -148.85750087 59.67086014 -144.99609375 59.68359375 C-142.37369876 59.68861067 -139.75130285 59.69317325 -137.12890625 59.69726562 C-130.70961553 59.70827486 -124.29035882 59.7249982 -117.87109375 59.74609375 C-117.71962891 58.79702148 -117.56816406 57.84794922 -117.41210938 56.87011719 C-115.75683628 47.31196084 -108.95521549 39.71520352 -101.484375 33.8828125 C-90.63415669 26.84152751 -79.39422955 26.28417481 -66.87109375 26.74609375 C-66.66484375 25.48796875 -66.45859375 24.22984375 -66.24609375 22.93359375 C-63.77356853 12.14593235 -57.82164334 4.13201595 -48.87109375 -2.25390625 C-32.9076568 -11.19856663 -14.98822208 -10.7518373 0 0 Z M-48.6640625 14.9609375 C-51.44268051 18.92756321 -53.00141295 21.96754635 -53.87109375 26.74609375 C-52.85160645 26.7711499 -51.83211914 26.79620605 -50.78173828 26.82202148 C-47.00589021 26.91606379 -43.23022748 27.01629212 -39.45458984 27.1184082 C-37.81921722 27.16176913 -36.18379898 27.20344336 -34.54833984 27.2434082 C-32.20005534 27.30108287 -29.85200071 27.36478504 -27.50390625 27.4296875 C-26.77052032 27.44639999 -26.0371344 27.46311249 -25.28152466 27.48033142 C-20.09883716 27.63222204 -20.09883716 27.63222204 -17.87109375 28.74609375 C-16.99609375 31.55859375 -16.99609375 31.55859375 -16.87109375 34.74609375 C-18.97107052 37.57302915 -20.18221882 38.6255568 -23.68327332 39.23815918 C-24.76643326 39.23497681 -25.8495932 39.23179443 -26.96557617 39.22851562 C-28.1975322 39.23532349 -29.42948822 39.24213135 -30.69877625 39.24914551 C-31.35464911 39.24347061 -32.01052197 39.23779572 -32.68626976 39.23194885 C-34.75202605 39.21463027 -36.81638938 39.22222533 -38.88215637 39.23620605 C-44.01546646 39.26580735 -49.14850883 39.25272465 -54.28186035 39.24102783 C-58.61663398 39.23278045 -62.95079839 39.24095267 -67.28548622 39.27015686 C-69.30655833 39.2771872 -71.32766867 39.26038554 -73.34867859 39.24304199 C-83.94290381 39.30084679 -91.26447492 41.50949966 -99.078125 48.74609375 C-111.77232553 62.90607342 -106.87109375 79.62092695 -106.87109375 98.74609375 C-53.41109375 98.74609375 0.04890625 98.74609375 55.12890625 98.74609375 C57.92383126 69.087079 57.92383126 69.087079 45.81640625 46.24609375 C37.70858526 40.24582374 30.24223761 39.21116414 20.31640625 39.24609375 C18.10155125 39.25375319 15.88655039 39.24407162 13.671875 39.21484375 C12.7027417 39.21935547 11.7336084 39.22386719 10.73510742 39.22851562 C7.38550235 38.60848568 6.21583615 37.38464039 4.12890625 34.74609375 C3.51171875 32.046875 3.51171875 32.046875 3.25390625 29.05859375 C2.06876361 20.59770589 -2.15957714 14.33325442 -8.8203125 9.03125 C-22.26878836 0.60353846 -38.53003854 2.44243731 -48.6640625 14.9609375 Z M-186.24609375 80.12109375 C-186.93832031 80.93707031 -186.93832031 80.93707031 -187.64453125 81.76953125 C-190.52263817 86.40749972 -191.12146924 90.96253423 -191.12556934 96.33416557 C-191.13140154 97.65093501 -191.13723373 98.96770445 -191.14324266 100.32437599 C-191.13960974 101.7789851 -191.13578538 103.23359374 -191.13179016 104.6882019 C-191.13481127 106.2386055 -191.13870055 107.78900761 -191.14338273 109.33940709 C-191.15367673 113.59742351 -191.15147734 117.85535587 -191.14720213 122.11337924 C-191.14473745 126.70652601 -191.15374587 131.29965241 -191.16123962 135.89279175 C-191.17399589 144.89038777 -191.17577915 153.88795397 -191.17343936 162.88555752 C-191.17165706 170.19846959 -191.17340396 177.51137261 -191.1776638 184.8242836 C-191.17825899 185.8646967 -191.17885418 186.90510981 -191.17946741 187.97705058 C-191.18067915 190.09058753 -191.18189328 192.20412447 -191.18310978 194.31766142 C-191.19398892 214.14333165 -191.19182107 233.96898487 -191.18572494 253.79465605 C-191.18055561 271.93396476 -191.19181097 290.07321976 -191.21082316 308.21251784 C-191.2301926 326.83535587 -191.23845911 345.45816849 -191.2346999 364.08101666 C-191.23278648 374.53735504 -191.23528916 384.99364771 -191.24941444 395.44997787 C-191.26131783 404.35167734 -191.26274485 413.25330296 -191.25062428 422.15500341 C-191.24472824 426.69673182 -191.24365619 431.23832509 -191.25562668 435.78004456 C-191.26646049 439.93882756 -191.263412 444.09736219 -191.24936499 448.25613345 C-191.24671116 449.7594511 -191.24910614 451.26278807 -191.25710086 452.7660868 C-191.50184921 465.19486178 -191.50184921 465.19486178 -185.96875 475.98828125 C-184.96134766 476.79652344 -184.96134766 476.79652344 -183.93359375 477.62109375 C-183.26457031 478.17539062 -182.59554687 478.7296875 -181.90625 479.30078125 C-174.67393134 484.43697684 -166.8242931 483.89187339 -158.27653503 483.87980652 C-157.1016955 483.88207208 -155.92685596 483.88433763 -154.71641523 483.88667184 C-151.46368296 483.89190117 -148.21098553 483.89265772 -144.9582504 483.89147747 C-141.44689945 483.89127314 -137.93555671 483.89679524 -134.42420959 483.90153503 C-127.54787987 483.90983528 -120.67155871 483.91258959 -113.79522439 483.91314741 C-108.20476803 483.91362287 -102.61431449 483.9156791 -97.02385902 483.91884804 C-81.16768927 483.92765291 -65.31152628 483.93226768 -49.45535406 483.93151756 C-48.17360736 483.93145763 -48.17360736 483.93145763 -46.8659668 483.93139648 C-45.58265192 483.93133516 -45.58265192 483.93133516 -44.27341149 483.9312726 C-30.40916211 483.93086618 -16.54493989 483.94043521 -2.68069836 483.95453485 C11.56108327 483.96890396 25.80285166 483.97580474 40.04464072 483.97494107 C48.03787266 483.97460929 56.03107612 483.97734827 64.02430153 483.98811913 C70.83000463 483.99723115 77.63566634 483.9993936 84.44137291 483.9926097 C87.91184021 483.98934804 91.38222812 483.98927497 94.85268784 483.99796295 C98.61966165 484.00567547 102.3864273 484.0010427 106.15339661 483.99333191 C107.78882383 484.00104725 107.78882383 484.00104725 109.45728999 484.00891846 C119.52626855 483.96340688 127.72897768 483.0455708 135.12890625 475.74609375 C139.98294589 469.62944265 140.25275534 462.70571062 140.2575407 455.16270638 C140.26076515 453.87242975 140.2639896 452.58215313 140.26731175 451.25277722 C140.26584083 449.83324176 140.26427313 448.4137064 140.26261902 446.99417114 C140.2644883 445.47661688 140.26678947 443.9590631 140.26948434 442.44151008 C140.27559419 438.27891637 140.27546971 434.11634277 140.27428997 429.9537456 C140.27408576 425.46149051 140.27960662 420.96924184 140.28434753 416.47698975 C140.29264992 407.67906209 140.29540218 398.88114113 140.29595991 390.08320989 C140.29643522 382.93194603 140.2984907 375.78068439 140.30166054 368.62942123 C140.31046559 348.35215767 140.31508009 328.07489939 140.31433006 307.7976339 C140.31429011 306.70474186 140.31425015 305.61184982 140.31420898 304.48583984 C140.3141681 303.39161291 140.31412722 302.29738598 140.3140851 301.17000066 C140.31367856 283.43236806 140.32325057 265.69475667 140.33734735 247.95713021 C140.35170922 229.74219374 140.35861766 211.52726763 140.35775357 193.31232536 C140.35742156 183.08681013 140.36017049 172.86131716 140.37093163 162.63580704 C140.38003407 153.93070501 140.38221393 145.22563532 140.3754222 136.5205306 C140.37215586 132.07996004 140.37210448 127.63945154 140.38077545 123.19888687 C140.38863616 119.13142765 140.38721341 115.06407976 140.37849132 110.99662326 C140.3769554 109.52763718 140.37877596 108.05864281 140.3843514 106.5896665 C140.76704631 92.80405421 140.76704631 92.80405421 135.50390625 80.43359375 C135.05789063 79.81871094 134.611875 79.20382813 134.15234375 78.5703125 C127.11042642 72.22171135 120.14328926 72.19769429 111.09765625 72.35546875 C109.86599731 72.36112854 108.63433838 72.36678833 107.36535645 72.37261963 C103.45280185 72.39491144 99.54118151 72.44509754 95.62890625 72.49609375 C92.96746132 72.51843435 90.30602516 72.53441692 87.64453125 72.55078125 C81.13867822 72.59134143 74.63483119 72.66965338 68.12890625 72.74609375 C68.12890625 81.32609375 68.12890625 89.90609375 68.12890625 98.74609375 C71.20976562 98.78347656 74.290625 98.82085937 77.46484375 98.859375 C80.4401775 98.90555199 83.41538351 98.95679954 86.390625 99.00854492 C88.46248652 99.04185198 90.53444004 99.06986572 92.60644531 99.0925293 C95.58047798 99.12596938 98.55366304 99.1782788 101.52734375 99.234375 C102.45759369 99.24076492 103.38784363 99.24715485 104.34628296 99.2537384 C105.63739487 99.28342964 105.63739487 99.28342964 106.95458984 99.3137207 C107.714039 99.32482376 108.47348816 99.33592682 109.25595093 99.34736633 C111.12890625 99.74609375 111.12890625 99.74609375 113.12890625 102.74609375 C113.37960458 105.35944748 113.37960458 105.35944748 113.38058853 108.57293701 C113.38580403 109.79624851 113.39101952 111.01956001 113.39639306 112.27994156 C113.39206856 113.64463611 113.38755523 115.00933007 113.38287354 116.37402344 C113.3851766 117.81815626 113.38835209 119.2622879 113.39232802 120.70641708 C113.40070582 124.68442971 113.39653727 128.66234683 113.39035559 132.64035988 C113.38584426 136.92670984 113.39280828 141.21304299 113.39831543 145.49938965 C113.40722522 153.90015218 113.40528038 162.30087904 113.39949015 170.70164299 C113.39497989 177.52696908 113.39435799 184.35228515 113.39653778 191.1776123 C113.39684425 192.1477161 113.39715071 193.1178199 113.39746647 194.11732078 C113.39810589 196.08784898 113.39875432 198.05837719 113.39941165 200.02890539 C113.40511959 218.52197414 113.39854978 237.01502309 113.38781092 255.50808859 C113.37887499 271.38821481 113.3804269 287.2683118 113.38964844 303.1484375 C113.40034288 321.57373155 113.40457022 339.99900824 113.39842391 358.42430496 C113.39778679 360.38772837 113.39715805 362.35115178 113.39653778 364.3145752 C113.39622923 365.28070669 113.39592068 366.24683818 113.39560278 367.24224639 C113.39387336 374.06217728 113.39679625 380.88209718 113.40149689 387.70202637 C113.40709656 396.00921701 113.40560857 404.31636984 113.3949354 412.62355614 C113.38966634 416.8648779 113.38764285 421.10613654 113.3942337 425.34745789 C113.40016986 429.22602592 113.39695692 433.104472 113.3862786 436.98302889 C113.38403461 438.3901153 113.38520307 439.7972119 113.39003018 441.20429182 C113.39606675 443.10927108 113.38871023 445.01427898 113.38058853 446.91925049 C113.38026383 447.97970203 113.37993912 449.04015358 113.37960458 450.13274002 C113.12890625 452.74609375 113.12890625 452.74609375 111.12890625 455.74609375 C109.12361324 456.11868924 109.12361324 456.11868924 106.60365105 456.11523724 C105.64521856 456.12121038 104.68678608 456.12718353 103.69931018 456.13333768 C102.63901603 456.12459915 101.57872188 456.11586063 100.48629761 456.1068573 C99.36569541 456.10942057 98.24509321 456.11198385 97.09053338 456.1146248 C93.31004956 456.11959292 89.52995915 456.10301962 85.74951172 456.08666992 C83.04974106 456.08415684 80.34997827 456.0861652 77.65020752 456.08799744 C71.82468415 456.08957286 65.99926135 456.08013571 60.17376328 456.06328392 C51.75101885 456.03893472 43.3283232 456.03109284 34.9055474 456.02731995 C21.24120323 456.02074904 7.57691269 456.00077057 -6.08740234 455.97241211 C-19.36344127 455.94488806 -32.63946565 455.9236464 -45.91552734 455.91088867 C-46.73343869 455.9101005 -47.55135003 455.90931233 -48.39404656 455.90850028 C-52.49714072 455.90458525 -56.60023499 455.90079411 -60.70332932 455.89706457 C-94.7592897 455.86594876 -128.81518516 455.81309561 -162.87109375 455.74609375 C-164.21679232 453.05469661 -163.99520702 450.98664625 -163.99414158 447.9714489 C-163.99613263 446.73434477 -163.99812368 445.49724064 -164.00017506 444.2226485 C-163.99732165 442.83722406 -163.99437605 441.4517998 -163.99134827 440.06637573 C-163.99178397 438.6044701 -163.99265885 437.14256455 -163.99393743 435.68065941 C-163.99618262 431.64901108 -163.99216078 427.61738911 -163.98715937 423.58574414 C-163.9828554 419.24354377 -163.98430126 414.90134497 -163.98506165 410.55914307 C-163.98558691 403.03118409 -163.98243981 395.50323375 -163.97682381 387.97527695 C-163.96870921 377.09101063 -163.96609363 366.20674851 -163.96483582 355.3224795 C-163.96264523 337.66501651 -163.95598498 320.00755814 -163.9465332 302.35009766 C-163.93735925 285.19384789 -163.93027833 268.03759938 -163.92602539 250.88134766 C-163.92576267 249.82447667 -163.92549994 248.76760568 -163.92522926 247.6787083 C-163.92392426 242.37688835 -163.92266054 237.0750684 -163.92141736 231.77324843 C-163.91104455 187.76419352 -163.89315154 143.75514423 -163.87109375 99.74609375 C-141.59609375 99.25109375 -141.59609375 99.25109375 -118.87109375 98.74609375 C-118.87109375 90.16609375 -118.87109375 81.58609375 -118.87109375 72.74609375 C-126.7004618 72.65410379 -134.52794336 72.57450712 -142.35742188 72.52636719 C-145.01919622 72.50855726 -147.68010403 72.4790309 -150.34179688 72.44433594 C-154.17458955 72.39563827 -158.00679738 72.37308259 -161.83984375 72.35546875 C-163.02348511 72.33482361 -164.20712646 72.31417847 -165.42663574 72.29290771 C-173.65322816 72.29068967 -180.72736945 73.32636383 -186.24609375 80.12109375 Z M-152.87109375 110.74609375 C-152.87109375 220.96609375 -152.87109375 331.18609375 -152.87109375 444.74609375 C-69.05109375 444.74609375 14.76890625 444.74609375 101.12890625 444.74609375 C101.12890625 334.52609375 101.12890625 224.30609375 101.12890625 110.74609375 C17.30890625 110.74609375 -66.51109375 110.74609375 -152.87109375 110.74609375 Z " fill="#082878" transform="translate(281.87109375,13.25390625)"/>
<path d="M0 0 C0.76441406 0.20447754 1.52882813 0.40895508 2.31640625 0.61962891 C8.32924318 2.35804308 13.25344716 4.39075178 16.625 9.9375 C18.68797127 17.33992632 16.3959593 24.75157456 14.375 32 C14.17455078 32.77601563 13.97410156 33.55203125 13.76757812 34.3515625 C12.2909151 39.70960915 10.56258627 43.84482235 5.7421875 47.0390625 C1.77444746 48.41193073 -2.1833233 48.27837806 -6.3125 47.75 C-10.77821013 45.5577423 -13.18282157 43.24598779 -15.3125 38.75 C-15.3125 38.09 -15.3125 37.43 -15.3125 36.75 C-22.15343255 39.99252294 -28.74443664 43.512489 -35.25 47.375 C-35.95165283 47.78975586 -36.65330566 48.20451172 -37.3762207 48.63183594 C-40.59434036 50.53670632 -43.80887272 52.44696771 -47.01318359 54.375 C-49.8131174 56.05583572 -52.62433439 57.71642755 -55.4375 59.375 C-56.7522229 60.17478271 -56.7522229 60.17478271 -58.09350586 60.99072266 C-58.93147705 61.4810498 -59.76944824 61.97137695 -60.6328125 62.4765625 C-61.73520264 63.13519287 -61.73520264 63.13519287 -62.85986328 63.80712891 C-67.36162443 65.53774821 -70.99406993 65.33364828 -75.37939453 63.39233398 C-76.39114746 62.76657471 -77.40290039 62.14081543 -78.4453125 61.49609375 C-79.00386932 61.15755875 -79.56242615 60.81902374 -80.13790894 60.4702301 C-81.91367702 59.39027754 -83.67570743 58.29007398 -85.4375 57.1875 C-86.5954334 56.47441412 -87.75428286 55.76281354 -88.9140625 55.05273438 C-89.48624008 54.70202377 -90.05841766 54.35131317 -90.64793396 53.98997498 C-92.38229698 52.93390766 -94.1245319 51.8917558 -95.86743164 50.84985352 C-98.18914626 49.45885498 -100.43187388 47.99384564 -102.66186523 46.46069336 C-108.52963096 42.5540897 -108.52963096 42.5540897 -115.28808594 42.29223633 C-118.46724079 43.75657271 -121.22877679 45.47263536 -124.125 47.4375 C-125.18307861 48.08984619 -126.24115723 48.74219238 -127.33129883 49.41430664 C-129.55358869 50.7866606 -131.76243759 52.18099503 -133.95800781 53.59570312 C-138.36272369 56.4244668 -142.83189632 59.13327728 -147.33276367 61.8059082 C-149.40798391 63.03875506 -151.47131377 64.2918922 -153.52075195 65.56713867 C-154.4562085 66.13150635 -155.39166504 66.69587402 -156.35546875 67.27734375 C-157.57786255 68.03132446 -157.57786255 68.03132446 -158.82495117 68.80053711 C-162.07307929 70.04030257 -164.00937508 69.73798698 -167.3125 68.75 C-169.3125 65.75 -169.3125 65.75 -169.37109375 62.34375 C-168.19690914 58.35758823 -167.06844735 57.33131486 -163.50024414 55.34082031 C-162.79891357 54.98084961 -162.09758301 54.62087891 -161.375 54.25 C-159.83288255 53.40186078 -158.29124865 52.55284199 -156.75 51.703125 C-155.89277344 51.24099609 -155.03554687 50.77886719 -154.15234375 50.30273438 C-148.66847265 47.30433168 -143.28193472 44.1342766 -137.875 41 C-134.67708657 39.16139504 -131.47910285 37.32298838 -128.27783203 35.49023438 C-126.33543496 34.35031948 -124.41306916 33.17539416 -122.51513672 31.96289062 C-121.65291504 31.41310547 -120.79069336 30.86332031 -119.90234375 30.296875 C-119.15718506 29.80541992 -118.41202637 29.31396484 -117.64428711 28.80761719 C-114.63711682 27.44366978 -112.58783153 27.4092049 -109.3125 27.75 C-106.78979492 28.78466797 -106.78979492 28.78466797 -104.29296875 30.2421875 C-103.36081543 30.77835693 -102.42866211 31.31452637 -101.46826172 31.86694336 C-100.48873535 32.44710205 -99.50920898 33.02726074 -98.5 33.625 C-97.48695801 34.20838135 -96.47391602 34.7917627 -95.43017578 35.39282227 C-90.64124823 38.16089032 -85.89682047 40.9898744 -81.19921875 43.91015625 C-80.43134033 44.38146973 -79.66346191 44.8527832 -78.87231445 45.33837891 C-77.44746988 46.21821924 -76.03254702 47.11439663 -74.62963867 48.02880859 C-72.52488452 49.38686923 -72.52488452 49.38686923 -69.3125 50.75 C-65.75436149 49.66088451 -62.61810218 47.89387065 -59.390625 46.0625 C-57.98695679 45.26851807 -57.98695679 45.26851807 -56.55493164 44.45849609 C-55.5674292 43.89469238 -54.57992676 43.33088867 -53.5625 42.75 C-52.54857178 42.1720166 -51.53464355 41.5940332 -50.48999023 40.99853516 C-48.42383348 39.81875656 -46.35864399 38.63728232 -44.29443359 37.45410156 C-41.54282992 35.88162787 -38.7825958 34.32564982 -36.01953125 32.7734375 C-34.47091212 31.89140066 -32.92270689 31.00863656 -31.375 30.125 C-30.6540918 29.72410156 -29.93318359 29.32320312 -29.19042969 28.91015625 C-27.02209457 27.69416023 -27.02209457 27.69416023 -24.3125 25.75 C-24.03910555 22.55901547 -24.03910555 22.55901547 -26.3125 19.6875 C-28.95771411 15.18682996 -29.42060531 10.84239571 -28.3125 5.75 C-21.63793482 -5.50315409 -11.07742819 -3.02419202 0 0 Z M-15.3125 9.75 C-14.72529381 13.63529692 -13.56367945 16.44534474 -11.58984375 19.83203125 C-11.05166016 20.76337891 -10.51347656 21.69472656 -9.95898438 22.65429688 C-9.39501953 23.61400391 -8.83105469 24.57371094 -8.25 25.5625 C-7.39825195 27.03106445 -7.39825195 27.03106445 -6.52929688 28.52929688 C-5.12995173 30.93993348 -3.72420071 33.3465851 -2.3125 35.75 C-1.3225 35.42 -0.3325 35.09 0.6875 34.75 C1.57942978 32.30390495 2.26606991 30.01627919 2.875 27.5 C3.05224609 26.83097656 3.22949219 26.16195312 3.41210938 25.47265625 C4.3386471 21.83089793 4.89866067 18.50720363 4.6875 14.75 C1.73033593 13.91247839 -1.228413 13.08069969 -4.1875 12.25 C-5.02925781 12.01152344 -5.87101563 11.77304688 -6.73828125 11.52734375 C-7.54394531 11.30175781 -8.34960938 11.07617188 -9.1796875 10.84375 C-9.92331543 10.63427734 -10.66694336 10.42480469 -11.43310547 10.20898438 C-13.31387827 9.67091777 -13.31387827 9.67091777 -15.3125 9.75 Z " fill="#082878" transform="translate(332.3125,145.25)"/>
<path d="M0 0 C0.65296053 -0.00453111 1.30592106 -0.00906223 1.97866827 -0.01373065 C4.17665084 -0.02643729 6.37438762 -0.0247503 8.57240295 -0.02310181 C10.1441683 -0.02908314 11.7159307 -0.03588776 13.28768921 -0.04345703 C17.56451094 -0.06116388 21.84125272 -0.06581435 26.11810756 -0.0670886 C29.68437983 -0.06898465 33.25063334 -0.07633872 36.81689841 -0.08343279 C45.22824808 -0.09973192 53.63955493 -0.10460033 62.05091858 -0.10317993 C70.73742965 -0.10197788 79.42369251 -0.12308887 88.11014074 -0.15466726 C95.55985975 -0.18078795 103.00949748 -0.19154901 110.45926195 -0.19026911 C114.91228072 -0.18975826 119.36507899 -0.19550887 123.81805229 -0.21662521 C128.00500482 -0.23593719 132.1915249 -0.23618081 136.37849236 -0.22159195 C137.91723255 -0.21949399 139.45599931 -0.22426319 140.99469376 -0.23631287 C143.09162186 -0.25167357 145.18704163 -0.24252096 147.28393555 -0.22705078 C148.45846755 -0.22814032 149.63299955 -0.22922985 150.84312344 -0.2303524 C153.70545959 0.26742554 153.70545959 0.26742554 155.61461735 2.10301781 C157.16632721 5.18186155 156.69223716 7.02515639 155.70545959 10.26742554 C152.13747803 12.64607991 150.60215046 12.52061641 146.36659241 12.52812195 C145.72094456 12.5319475 145.07529671 12.53577304 144.41008377 12.53971452 C142.24283498 12.55004785 140.07585095 12.54605186 137.90858459 12.54208374 C136.35637669 12.54643 134.80417094 12.55161286 133.25196838 12.55757141 C129.03304678 12.57098089 124.81421465 12.571538 120.59527588 12.56900811 C117.07617595 12.56793988 113.55709424 12.57281789 110.0379982 12.57761353 C101.73833611 12.58871512 93.43871927 12.58914224 85.13905334 12.58309937 C76.56900872 12.57705574 67.99912812 12.58937894 59.42911148 12.61066943 C52.07703731 12.62826444 44.72501545 12.63429019 37.37292099 12.63103169 C32.97920524 12.62921558 28.58560653 12.63188769 24.19190979 12.64574623 C20.06162985 12.65828615 15.93160639 12.65641713 11.80133057 12.64333534 C10.2835583 12.64096173 8.76576819 12.6437322 7.24801636 12.65195847 C5.17981885 12.6623619 3.11249224 12.65437832 1.04432678 12.64164734 C-0.11415771 12.64181508 -1.27264221 12.64198282 -2.4662323 12.64215565 C-5.29454041 12.26742554 -5.29454041 12.26742554 -7.17118835 10.96669292 C-9.0377564 8.14318074 -8.59171707 5.53636889 -8.29454041 2.26742554 C-5.52126228 -0.50585259 -3.88671704 0.01109484 0 0 Z " fill="#082878" transform="translate(214.29454040527344,265.7325744628906)"/>
<path d="M0 0 C1.11568359 -0.020625 2.23136719 -0.04125 3.38085938 -0.0625 C9.59595037 -0.09197287 14.25362749 0.12050571 19.6875 3.25 C24.09934356 8.01014699 24.85848597 11.1426897 24.92578125 17.453125 C24.933853 18.16853455 24.94192474 18.88394409 24.95024109 19.62103271 C24.96407958 21.13746724 24.9748028 22.65393288 24.98266602 24.17041016 C24.99983257 26.47749894 25.04371124 28.78313682 25.08789062 31.08984375 C25.09802212 32.56509365 25.1065368 34.04035572 25.11328125 35.515625 C25.13078934 36.2002179 25.14829742 36.88481079 25.16633606 37.59014893 C25.1439127 42.6010935 23.78227029 45.37136526 20.6875 49.25 C14.90097887 54.49403477 7.75500219 53.46624356 0.375 53.5 C-0.74068359 53.520625 -1.85636719 53.54125 -3.00585938 53.5625 C-9.22095037 53.59197287 -13.87862749 53.37949429 -19.3125 50.25 C-23.72434356 45.48985301 -24.48348597 42.3573103 -24.55078125 36.046875 C-24.558853 35.33146545 -24.56692474 34.61605591 -24.57524109 33.87896729 C-24.58907958 32.36253276 -24.5998028 30.84606712 -24.60766602 29.32958984 C-24.62483257 27.02250106 -24.66871124 24.71686318 -24.71289062 22.41015625 C-24.72302212 20.93490635 -24.7315368 19.45964428 -24.73828125 17.984375 C-24.75578934 17.2997821 -24.77329742 16.61518921 -24.79133606 15.90985107 C-24.7689127 10.8989065 -23.40727029 8.12863474 -20.3125 4.25 C-14.52597887 -0.99403477 -7.38000219 0.03375644 0 0 Z M-12.3125 14.25 C-12.41209621 16.09159023 -12.44330411 17.93696967 -12.4453125 19.78125 C-12.44660156 20.90144531 -12.44789063 22.02164063 -12.44921875 23.17578125 C-12.44535156 24.35527344 -12.44148437 25.53476562 -12.4375 26.75 C-12.44136719 27.92949219 -12.44523438 29.10898437 -12.44921875 30.32421875 C-12.44792969 31.44441406 -12.44664062 32.56460938 -12.4453125 33.71875 C-12.44418457 34.75451172 -12.44305664 35.79027344 -12.44189453 36.85742188 C-12.58215153 39.20297823 -12.58215153 39.20297823 -11.3125 40.25 C-9.61691274 40.34932153 -7.91724253 40.38080007 -6.21875 40.3828125 C-5.18878906 40.38410156 -4.15882813 40.38539063 -3.09765625 40.38671875 C-2.01355469 40.38285156 -0.92945313 40.37898438 0.1875 40.375 C1.81365234 40.38080078 1.81365234 40.38080078 3.47265625 40.38671875 C4.50261719 40.38542969 5.53257812 40.38414062 6.59375 40.3828125 C7.54572266 40.38168457 8.49769531 40.38055664 9.47851562 40.37939453 C11.66202138 40.49699456 11.66202138 40.49699456 12.6875 39.25 C12.78709621 37.40840977 12.81830411 35.56303033 12.8203125 33.71875 C12.82160156 32.59855469 12.82289063 31.47835938 12.82421875 30.32421875 C12.81841797 28.55498047 12.81841797 28.55498047 12.8125 26.75 C12.81636719 25.57050781 12.82023437 24.39101562 12.82421875 23.17578125 C12.82228516 21.49548828 12.82228516 21.49548828 12.8203125 19.78125 C12.81918457 18.74548828 12.81805664 17.70972656 12.81689453 16.64257812 C12.95715153 14.29702177 12.95715153 14.29702177 11.6875 13.25 C9.99191274 13.15067847 8.29224253 13.11919993 6.59375 13.1171875 C5.56378906 13.11589844 4.53382813 13.11460937 3.47265625 13.11328125 C2.38855469 13.11714844 1.30445313 13.12101563 0.1875 13.125 C-1.43865234 13.11919922 -1.43865234 13.11919922 -3.09765625 13.11328125 C-4.12761719 13.11457031 -5.15757812 13.11585938 -6.21875 13.1171875 C-7.64670898 13.11887939 -7.64670898 13.11887939 -9.10351562 13.12060547 C-11.28702138 13.00300544 -11.28702138 13.00300544 -12.3125 14.25 Z " fill="#082878" transform="translate(166.3125,230.75)"/>
<path d="M0 0 C1.11568359 -0.020625 2.23136719 -0.04125 3.38085938 -0.0625 C9.59595037 -0.09197287 14.25362749 0.12050571 19.6875 3.25 C24.09934356 8.01014699 24.85848597 11.1426897 24.92578125 17.453125 C24.933853 18.16853455 24.94192474 18.88394409 24.95024109 19.62103271 C24.96407958 21.13746724 24.9748028 22.65393288 24.98266602 24.17041016 C24.99983257 26.47749894 25.04371124 28.78313682 25.08789062 31.08984375 C25.09802212 32.56509365 25.1065368 34.04035572 25.11328125 35.515625 C25.13078934 36.2002179 25.14829742 36.88481079 25.16633606 37.59014893 C25.1439127 42.6010935 23.78227029 45.37136526 20.6875 49.25 C14.90097887 54.49403477 7.75500219 53.46624356 0.375 53.5 C-0.74068359 53.520625 -1.85636719 53.54125 -3.00585938 53.5625 C-9.22095037 53.59197287 -13.87862749 53.37949429 -19.3125 50.25 C-23.72434356 45.48985301 -24.48348597 42.3573103 -24.55078125 36.046875 C-24.558853 35.33146545 -24.56692474 34.61605591 -24.57524109 33.87896729 C-24.58907958 32.36253276 -24.5998028 30.84606712 -24.60766602 29.32958984 C-24.62483257 27.02250106 -24.66871124 24.71686318 -24.71289062 22.41015625 C-24.72302212 20.93490635 -24.7315368 19.45964428 -24.73828125 17.984375 C-24.75578934 17.2997821 -24.77329742 16.61518921 -24.79133606 15.90985107 C-24.7689127 10.8989065 -23.40727029 8.12863474 -20.3125 4.25 C-14.52597887 -0.99403477 -7.38000219 0.03375644 0 0 Z M-12.3125 14.25 C-12.41209621 16.09159023 -12.44330411 17.93696967 -12.4453125 19.78125 C-12.44660156 20.90144531 -12.44789063 22.02164062 -12.44921875 23.17578125 C-12.44535156 24.35527344 -12.44148437 25.53476562 -12.4375 26.75 C-12.44136719 27.92949219 -12.44523438 29.10898437 -12.44921875 30.32421875 C-12.44792969 31.44441406 -12.44664062 32.56460938 -12.4453125 33.71875 C-12.44418457 34.75451172 -12.44305664 35.79027344 -12.44189453 36.85742188 C-12.58215153 39.20297823 -12.58215153 39.20297823 -11.3125 40.25 C-9.61691274 40.34932153 -7.91724253 40.38080007 -6.21875 40.3828125 C-5.18878906 40.38410156 -4.15882813 40.38539063 -3.09765625 40.38671875 C-2.01355469 40.38285156 -0.92945313 40.37898438 0.1875 40.375 C1.81365234 40.38080078 1.81365234 40.38080078 3.47265625 40.38671875 C4.50261719 40.38542969 5.53257812 40.38414062 6.59375 40.3828125 C7.54572266 40.38168457 8.49769531 40.38055664 9.47851562 40.37939453 C11.66202138 40.49699456 11.66202138 40.49699456 12.6875 39.25 C12.78709621 37.40840977 12.81830411 35.56303033 12.8203125 33.71875 C12.82160156 32.59855469 12.82289063 31.47835938 12.82421875 30.32421875 C12.81841797 28.55498047 12.81841797 28.55498047 12.8125 26.75 C12.81636719 25.57050781 12.82023437 24.39101563 12.82421875 23.17578125 C12.82228516 21.49548828 12.82228516 21.49548828 12.8203125 19.78125 C12.81918457 18.74548828 12.81805664 17.70972656 12.81689453 16.64257812 C12.95715153 14.29702177 12.95715153 14.29702177 11.6875 13.25 C9.99191274 13.15067847 8.29224253 13.11919993 6.59375 13.1171875 C5.56378906 13.11589844 4.53382813 13.11460937 3.47265625 13.11328125 C2.38855469 13.11714844 1.30445313 13.12101562 0.1875 13.125 C-1.43865234 13.11919922 -1.43865234 13.11919922 -3.09765625 13.11328125 C-4.12761719 13.11457031 -5.15757812 13.11585938 -6.21875 13.1171875 C-7.64670898 13.11887939 -7.64670898 13.11887939 -9.10351562 13.12060547 C-11.28702138 13.00300544 -11.28702138 13.00300544 -12.3125 14.25 Z " fill="#082878" transform="translate(166.3125,386.75)"/>
<path d="M0 0 C1.22396484 -0.020625 2.44792969 -0.04125 3.70898438 -0.0625 C5.48692383 -0.07023437 5.48692383 -0.07023437 7.30078125 -0.078125 C8.92173706 -0.09214355 8.92173706 -0.09214355 10.57543945 -0.10644531 C15.48285305 0.45563391 18.7070188 2.16352083 22 5.8125 C24.75845833 9.79693981 24.87534356 12.72346579 24.92578125 17.453125 C24.933853 18.16853455 24.94192474 18.88394409 24.95024109 19.62103271 C24.96407958 21.13746724 24.9748028 22.65393288 24.98266602 24.17041016 C24.99983257 26.47749894 25.04371124 28.78313682 25.08789062 31.08984375 C25.09802212 32.56509365 25.1065368 34.04035572 25.11328125 35.515625 C25.13078934 36.2002179 25.14829742 36.88481079 25.16633606 37.59014893 C25.14391087 42.60150315 23.77853972 45.36881573 20.6875 49.25 C15.09099254 54.48544246 7.43612527 53.43299459 0.25 53.4375 C-1.28624023 53.45586914 -1.28624023 53.45586914 -2.85351562 53.47460938 C-10.68486267 53.48981587 -16.40275004 52.83143051 -22.3125 47.25 C-24.71580776 43.66442833 -24.6348168 40.02757015 -24.6484375 35.8515625 C-24.6584227 34.78269302 -24.6584227 34.78269302 -24.66860962 33.69223022 C-24.67871288 32.18774996 -24.68342736 30.68322509 -24.68310547 29.17871094 C-24.68747289 26.88921393 -24.72379599 24.60165548 -24.76171875 22.3125 C-24.76758884 20.84636071 -24.77155695 19.38021233 -24.7734375 17.9140625 C-24.78780853 17.23574371 -24.80217957 16.55742493 -24.81698608 15.85855103 C-24.76964997 10.87880695 -23.38605591 8.10534391 -20.3125 4.25 C-14.34720939 -0.99222508 -7.52749129 0.03141363 0 0 Z M-12.3125 14.25 C-12.41209621 16.09159023 -12.44330411 17.93696967 -12.4453125 19.78125 C-12.44660156 20.90144531 -12.44789063 22.02164062 -12.44921875 23.17578125 C-12.44535156 24.35527344 -12.44148437 25.53476562 -12.4375 26.75 C-12.44136719 27.92949219 -12.44523438 29.10898437 -12.44921875 30.32421875 C-12.44792969 31.44441406 -12.44664062 32.56460938 -12.4453125 33.71875 C-12.44418457 34.75451172 -12.44305664 35.79027344 -12.44189453 36.85742188 C-12.58215153 39.20297823 -12.58215153 39.20297823 -11.3125 40.25 C-9.61691274 40.34932153 -7.91724253 40.38080007 -6.21875 40.3828125 C-5.18878906 40.38410156 -4.15882813 40.38539063 -3.09765625 40.38671875 C-2.01355469 40.38285156 -0.92945313 40.37898438 0.1875 40.375 C1.81365234 40.38080078 1.81365234 40.38080078 3.47265625 40.38671875 C4.50261719 40.38542969 5.53257812 40.38414062 6.59375 40.3828125 C7.54572266 40.38168457 8.49769531 40.38055664 9.47851562 40.37939453 C11.66202138 40.49699456 11.66202138 40.49699456 12.6875 39.25 C12.78709621 37.40840977 12.81830411 35.56303033 12.8203125 33.71875 C12.82160156 32.59855469 12.82289063 31.47835938 12.82421875 30.32421875 C12.81841797 28.55498047 12.81841797 28.55498047 12.8125 26.75 C12.81636719 25.57050781 12.82023437 24.39101563 12.82421875 23.17578125 C12.82228516 21.49548828 12.82228516 21.49548828 12.8203125 19.78125 C12.81918457 18.74548828 12.81805664 17.70972656 12.81689453 16.64257812 C12.95715153 14.29702177 12.95715153 14.29702177 11.6875 13.25 C9.99191274 13.15067847 8.29224253 13.11919993 6.59375 13.1171875 C5.56378906 13.11589844 4.53382813 13.11460937 3.47265625 13.11328125 C2.38855469 13.11714844 1.30445313 13.12101562 0.1875 13.125 C-1.43865234 13.11919922 -1.43865234 13.11919922 -3.09765625 13.11328125 C-4.12761719 13.11457031 -5.15757812 13.11585938 -6.21875 13.1171875 C-7.64670898 13.11887939 -7.64670898 13.11887939 -9.10351562 13.12060547 C-11.28702138 13.00300544 -11.28702138 13.00300544 -12.3125 14.25 Z " fill="#082878" transform="translate(166.3125,308.75)"/>
<path d="M0 0 C1.009487 -0.00990463 2.018974 -0.01980927 3.05905151 -0.03001404 C4.16564117 -0.02551239 5.27223083 -0.02101074 6.41235352 -0.01637268 C8.16142502 -0.02666756 8.16142502 -0.02666756 9.9458313 -0.03717041 C13.81109699 -0.05551432 17.67595977 -0.05159024 21.54125977 -0.0459137 C23.54349681 -0.04932021 25.54573405 -0.05273365 27.54796886 -0.05726677 C33.84362875 -0.07131873 40.13915297 -0.06974485 46.43481445 -0.05836487 C52.93275087 -0.04687892 59.43027479 -0.06096535 65.92815685 -0.08776134 C71.50531773 -0.10990049 77.08234895 -0.11655992 82.65955067 -0.11068493 C85.99140175 -0.10731025 89.32292904 -0.11146322 92.65475464 -0.12693596 C96.36854074 -0.14175237 100.08140936 -0.13123695 103.79516602 -0.11402893 C104.90175568 -0.1236969 106.00834534 -0.13336487 107.14846802 -0.14332581 C108.66269852 -0.1285746 108.66269852 -0.1285746 110.20751953 -0.11352539 C111.08577896 -0.11331611 111.96403839 -0.11310682 112.86891174 -0.1128912 C115.10375977 0.38768005 115.10375977 0.38768005 116.88633728 2.25884914 C118.39637922 4.89936547 118.56485419 6.39056631 118.10375977 9.38768005 C116.46663098 11.58325464 115.57926217 12.30860122 112.85050106 12.76241016 C111.96356847 12.76224242 111.07663588 12.76207468 110.16282654 12.76190186 C109.14348022 12.76891617 108.12413391 12.77593048 107.07389832 12.78315735 C105.95638687 12.77551361 104.83887543 12.76786987 103.6875 12.75999451 C101.9213887 12.7654705 101.9213887 12.7654705 100.11959839 12.77105713 C96.89027068 12.77777989 93.66131806 12.771041 90.4320209 12.757725 C87.05502697 12.74641573 83.67804807 12.75051753 80.30104065 12.75247192 C74.63081912 12.75335495 68.96071713 12.74227185 63.29052734 12.72386169 C56.7301933 12.70268368 50.17003427 12.69918628 43.60967296 12.70542365 C37.30333225 12.71111303 30.99705332 12.70547737 24.69072151 12.69425011 C22.00454633 12.68959949 19.31840888 12.68873224 16.63223076 12.69083595 C12.88492534 12.6912051 9.13789001 12.67862876 5.390625 12.66233826 C4.27108932 12.66481567 3.15155365 12.66729309 1.99809265 12.66984558 C0.98156616 12.66276077 -0.03496033 12.65567596 -1.08229065 12.64837646 C-1.96884622 12.6463236 -2.85540178 12.64427073 -3.76882267 12.64215565 C-5.89624023 12.38768005 -5.89624023 12.38768005 -7.89624023 10.38768005 C-8.46077499 4.17779774 -8.46077499 4.17779774 -6.682724 1.68925381 C-4.33336786 -0.02241038 -2.89478299 0.00800905 0 0 Z " fill="#082878" transform="translate(213.896240234375,236.61231994628906)"/>
<path d="M0 0 C1.49944153 -0.01485695 1.49944153 -0.01485695 3.0291748 -0.03001404 C4.67267662 -0.02326157 4.67267662 -0.02326157 6.34938049 -0.01637268 C8.0814122 -0.02666756 8.0814122 -0.02666756 9.84843445 -0.03717041 C13.6764292 -0.05551526 17.50401711 -0.05158979 21.33204651 -0.0459137 C23.31568455 -0.04932032 25.29932278 -0.05273395 27.28295857 -0.05726677 C33.52112738 -0.07131951 39.75915928 -0.06974478 45.99732971 -0.05836487 C52.43276375 -0.04688451 58.86778102 -0.06095576 65.30316013 -0.08776134 C70.82853266 -0.10991465 76.35377433 -0.11655656 81.87918812 -0.11068493 C85.17921407 -0.10731296 88.47891339 -0.11144938 91.7789135 -0.12693596 C95.45897013 -0.14177148 99.13810326 -0.13122232 102.81813049 -0.11402893 C103.91177414 -0.1236969 105.00541779 -0.13336487 106.13220215 -0.14332581 C107.13464966 -0.13349167 108.13709717 -0.12365753 109.16992188 -0.11352539 C110.03988517 -0.11331611 110.90984846 -0.11310682 111.80617428 -0.1128912 C114.94552371 0.55802308 116.16064412 1.92191613 118.14845276 4.38768005 C118.58595276 6.95018005 118.58595276 6.95018005 118.14845276 9.38768005 C116.50788093 11.58081901 115.6246208 12.30849052 112.89519405 12.76241016 C112.00826146 12.76224242 111.12132887 12.76207468 110.20751953 12.76190186 C109.18817322 12.76891617 108.1688269 12.77593048 107.11859131 12.78315735 C106.00107986 12.77551361 104.88356842 12.76786987 103.73219299 12.75999451 C101.9660817 12.7654705 101.9660817 12.7654705 100.16429138 12.77105713 C96.93496368 12.77777989 93.70601105 12.771041 90.4767139 12.757725 C87.09971996 12.74641573 83.72274107 12.75051753 80.34573364 12.75247192 C74.67551211 12.75335495 69.00541012 12.74227185 63.33522034 12.72386169 C56.77488629 12.70268368 50.21472726 12.69918628 43.65436596 12.70542365 C37.34802524 12.71111303 31.04174631 12.70547737 24.73541451 12.69425011 C22.04923933 12.68959949 19.36310187 12.68873224 16.67692375 12.69083595 C12.92961834 12.6912051 9.182583 12.67862876 5.43531799 12.66233826 C4.31578232 12.66481567 3.19624664 12.66729309 2.04278564 12.66984558 C1.02625916 12.66276077 0.00973267 12.65567596 -1.03759766 12.64837646 C-1.92415322 12.6463236 -2.81070879 12.64427073 -3.72412968 12.64215565 C-5.85154724 12.38768005 -5.85154724 12.38768005 -7.85154724 10.38768005 C-8.41622837 4.1761876 -8.41622837 4.1761876 -6.63523769 1.68925381 C-4.29840359 -0.01595346 -2.88068015 0.00804952 0 0 Z " fill="#082878" transform="translate(213.85154724121094,314.61231994628906)"/>
<path d="M0 0 C1.3122908 -0.01268921 1.3122908 -0.01268921 2.65109253 -0.02563477 C4.0865593 -0.01652573 4.0865593 -0.01652573 5.55102539 -0.00723267 C7.0660112 -0.0151181 7.0660112 -0.0151181 8.61160278 -0.02316284 C11.95745204 -0.0363903 15.30282736 -0.02761483 18.64868164 -0.01748657 C20.96891369 -0.01950651 23.28914513 -0.02241728 25.609375 -0.02618408 C30.47507769 -0.03061117 35.3406153 -0.02416388 40.20629883 -0.01016235 C46.45115803 0.00692957 52.69563046 -0.00290953 58.94047546 -0.02087975 C63.73249235 -0.0317071 68.52441715 -0.02827603 73.31643677 -0.02049637 C75.6193954 -0.01849147 77.92236233 -0.02096375 80.22531128 -0.02793503 C83.44087959 -0.03553212 86.65581673 -0.02396932 89.87133789 -0.00723267 C90.82831573 -0.01330536 91.78529358 -0.01937805 92.77127075 -0.02563477 C93.64613129 -0.01717529 94.52099182 -0.00871582 95.42236328 0 C96.56276817 0.00169662 96.56276817 0.00169662 97.72621155 0.00342751 C100.27514684 0.48821203 101.16230552 1.32831543 102.71118164 3.38095093 C103.35436959 8.52645454 103.35436959 8.52645454 101.4585886 11.04506207 C99.26867536 12.71924603 98.11501565 12.75576987 95.37767029 12.75517273 C94.49295044 12.76218704 93.60823059 12.76920135 92.69670105 12.77642822 C91.72880142 12.76878448 90.76090179 12.76114075 89.76367188 12.75326538 C88.23164627 12.75874138 88.23164627 12.75874138 86.66867065 12.764328 C83.28553755 12.77244807 79.90288117 12.75881192 76.51977539 12.74423218 C74.1747284 12.74371379 71.82968096 12.74423067 69.4846344 12.7457428 C64.5676526 12.74565301 59.65083455 12.73520959 54.73388672 12.71713257 C48.41949058 12.69443283 42.10533358 12.6939029 35.79090786 12.70065022 C30.94832723 12.70398543 26.10580151 12.69736877 21.26323128 12.68752098 C18.93432973 12.68366189 16.60542208 12.68252368 14.27651787 12.68410683 C11.02732497 12.68447611 7.77844321 12.6718961 4.52929688 12.65560913 C3.55937302 12.65808655 2.58944916 12.66056396 1.59013367 12.66311646 C0.70823364 12.65603165 -0.17366638 12.64894684 -1.08229065 12.64164734 C-1.85085671 12.63959447 -2.61942278 12.6375416 -3.41127872 12.63542652 C-5.28881836 12.38095093 -5.28881836 12.38095093 -7.28881836 10.38095093 C-7.85527735 4.14990206 -7.85527735 4.14990206 -6.03733826 1.68210411 C-3.85890373 0.0610319 -2.69811576 0.00401407 0 0 Z " fill="#082878" transform="translate(213.288818359375,392.6190490722656)"/>
<path d="M0 0 C0.70810318 0.00247742 1.41620636 0.00495483 2.14576721 0.00750732 C2.89226532 0.00239639 3.63876343 -0.00271454 4.40788269 -0.00798035 C6.88252212 -0.02191268 9.35688417 -0.02091685 11.83155823 -0.01861572 C13.54787297 -0.02250075 15.26418675 -0.02683501 16.98049927 -0.03160095 C20.58103042 -0.03907106 24.18146352 -0.03876626 27.78199768 -0.0335083 C32.40033247 -0.02771352 37.01826623 -0.04464087 41.63653469 -0.06785297 C45.18211216 -0.08257193 48.72759266 -0.08346452 52.27319527 -0.08034325 C53.97607785 -0.08085742 55.67896572 -0.08611307 57.38181877 -0.09615517 C59.76173463 -0.10846654 62.14086431 -0.10176032 64.52076721 -0.09014893 C65.57988564 -0.10161453 65.57988564 -0.10161453 66.66040039 -0.11331177 C69.51684746 -0.08244551 71.44640628 -0.02912995 73.83560181 1.61793518 C75.50682933 4.23597479 75.27555407 6.26144879 74.89796448 9.28216553 C73.82887268 10.94540405 73.82887268 10.94540405 71.89796448 12.28216553 C69.3921668 12.578085 67.13448174 12.69224124 64.62843323 12.67034912 C63.89154266 12.67560608 63.1546521 12.68086304 62.39543152 12.6862793 C59.95856049 12.69948787 57.5223422 12.69073855 55.08546448 12.68060303 C53.39299901 12.68262353 51.70053439 12.68553476 50.0080719 12.68930054 C46.46054294 12.69372504 42.91324055 12.68728888 39.36573792 12.67327881 C34.81578538 12.65618673 30.26636371 12.66602725 25.71643066 12.6839962 C22.22145072 12.6948307 18.72659688 12.69138926 15.23161316 12.68361282 C13.5538578 12.68160989 11.87609104 12.68407337 10.198349 12.69105148 C7.85442223 12.69866064 5.51135815 12.68707017 3.16749573 12.67034912 C2.12475998 12.67945816 2.12475998 12.67945816 1.06095886 12.68875122 C-1.75065387 12.65154476 -3.66978405 12.5729535 -6.03684998 10.9805603 C-7.81803442 8.14053458 -7.39689114 5.52557734 -7.10203552 2.28216553 C-4.66070584 -0.15916415 -3.33261958 0.03653232 0 0 Z " fill="#082878" transform="translate(213.10203552246094,421.71783447265625)"/>
<path d="M0 0 C0.70810318 0.00247742 1.41620636 0.00495483 2.14576721 0.00750732 C2.89226532 0.00239639 3.63876343 -0.00271454 4.40788269 -0.00798035 C6.88252212 -0.02191268 9.35688417 -0.02091685 11.83155823 -0.01861572 C13.54787297 -0.02250075 15.26418675 -0.02683501 16.98049927 -0.03160095 C20.58103042 -0.03907106 24.18146352 -0.03876626 27.78199768 -0.0335083 C32.40033247 -0.02771352 37.01826623 -0.04464087 41.63653469 -0.06785297 C45.18211216 -0.08257193 48.72759266 -0.08346452 52.27319527 -0.08034325 C53.97607785 -0.08085742 55.67896572 -0.08611307 57.38181877 -0.09615517 C59.76173463 -0.10846654 62.14086431 -0.10176032 64.52076721 -0.09014893 C65.57988564 -0.10161453 65.57988564 -0.10161453 66.66040039 -0.11331177 C69.51684746 -0.08244551 71.44640628 -0.02912995 73.83560181 1.61793518 C75.50682933 4.23597479 75.27555407 6.26144879 74.89796448 9.28216553 C73.82887268 10.94540405 73.82887268 10.94540405 71.89796448 12.28216553 C69.3921668 12.578085 67.13448174 12.69224124 64.62843323 12.67034912 C63.89154266 12.67560608 63.1546521 12.68086304 62.39543152 12.6862793 C59.95856049 12.69948787 57.5223422 12.69073855 55.08546448 12.68060303 C53.39299901 12.68262353 51.70053439 12.68553476 50.0080719 12.68930054 C46.46054294 12.69372504 42.91324055 12.68728888 39.36573792 12.67327881 C34.81578538 12.65618673 30.26636371 12.66602725 25.71643066 12.6839962 C22.22145072 12.6948307 18.72659688 12.69138926 15.23161316 12.68361282 C13.5538578 12.68160989 11.87609104 12.68407337 10.198349 12.69105148 C7.85442223 12.69866064 5.51135815 12.68707017 3.16749573 12.67034912 C2.12475998 12.67945816 2.12475998 12.67945816 1.06095886 12.68875122 C-1.75065387 12.65154476 -3.66978405 12.5729535 -6.03684998 10.9805603 C-7.81803442 8.14053458 -7.39689114 5.52557734 -7.10203552 2.28216553 C-4.66070584 -0.15916415 -3.33261958 0.03653232 0 0 Z " fill="#082878" transform="translate(213.10203552246094,343.71783447265625)"/>
</svg>
