<svg width="39" height="39" viewBox="0 0 39 39" fill="none" xmlns="http://www.w3.org/2000/svg">
<g clip-path="url(#clip0_27_3753)">
<path d="M9.74999 32.9059C9.58994 32.9059 9.43146 32.8743 9.28359 32.8131C9.13572 32.7518 9.00137 32.6621 8.8882 32.5489C8.77503 32.4357 8.68525 32.3014 8.62401 32.1535C8.56276 32.0056 8.53124 31.8471 8.53124 31.6871L8.53132 25.1828C7.88115 25.4908 7.16367 25.6293 6.4456 25.5854C5.72753 25.5416 5.03221 25.3169 4.42432 24.9322C3.81643 24.5475 3.31571 24.0153 2.96874 23.3851C2.62177 22.7549 2.43982 22.0471 2.43982 21.3277C2.43982 20.6083 2.62177 19.9006 2.96874 19.2704C3.31571 18.6402 3.81643 18.108 4.42432 17.7233C5.03221 17.3386 5.72753 17.1139 6.4456 17.07C7.16367 17.0262 7.88115 17.1647 8.53132 17.4726L8.53124 10.9684C8.53124 10.8083 8.56276 10.6498 8.62401 10.502C8.68526 10.3541 8.77503 10.2197 8.88821 10.1066C9.00138 9.9934 9.13574 9.90362 9.28361 9.84238C9.43147 9.78113 9.58996 9.74961 9.75001 9.74961L16.8636 9.74969C16.5557 9.09952 16.4172 8.38204 16.461 7.66397C16.5048 6.94591 16.7296 6.25059 17.1143 5.6427C17.499 5.03481 18.0312 4.53409 18.6614 4.18712C19.2916 3.84015 19.9993 3.6582 20.7187 3.6582C21.4381 3.6582 22.1458 3.84015 22.776 4.18712C23.4062 4.53409 23.9384 5.03481 24.3232 5.6427C24.7079 6.25059 24.9326 6.94591 24.9764 7.66397C25.0202 8.38204 24.8817 9.09952 24.5738 9.74969L31.6874 9.74961C32.0106 9.74961 32.3206 9.87801 32.5492 10.1066C32.7778 10.3351 32.9062 10.6451 32.9062 10.9683L32.9063 17.4726C32.2561 17.1647 31.5386 17.0262 30.8205 17.07C30.1025 17.1139 29.4072 17.3386 28.7993 17.7233C28.1914 18.108 27.6906 18.6402 27.3437 19.2704C26.9967 19.9006 26.8148 20.6083 26.8148 21.3277C26.8148 22.0471 26.9967 22.7549 27.3437 23.3851C27.6906 24.0153 28.1914 24.5475 28.7993 24.9322C29.4072 25.3169 30.1025 25.5416 30.8205 25.5854C31.5386 25.6293 32.2561 25.4908 32.9063 25.1828L32.9062 31.6871C32.9062 32.0104 32.7778 32.3203 32.5492 32.5489C32.3207 32.7775 32.0107 32.9059 31.6874 32.9059L9.74999 32.9059Z" stroke="#4895EF" stroke-linecap="round" stroke-linejoin="round"/>
</g>
<defs>
<clipPath id="clip0_27_3753">
<rect width="39" height="39" fill="white"/>
</clipPath>
</defs>
</svg>
