<svg width="40" height="40" viewBox="0 0 40 40" fill="none" xmlns="http://www.w3.org/2000/svg">
<path fill-rule="evenodd" clip-rule="evenodd" d="M31.6667 8.80078C33.9679 8.80078 35.8333 7.00992 35.8333 4.80078C35.8333 2.59164 33.9679 0.800781 31.6667 0.800781C29.3655 0.800781 27.5 2.59164 27.5 4.80078C27.5 7.00992 29.3655 8.80078 31.6667 8.80078Z" stroke="#4895EF" stroke-width="1.5" stroke-linecap="round" stroke-linejoin="round"/>
<path d="M26.4483 34.3994L27.3283 27.3594C27.5112 25.6634 26.8729 23.9806 25.5967 22.7946C23.995 21.2986 22.8517 20.2906 22.0217 19.5946L24.5933 15.7786L24.7167 16.0154C25.9857 18.4557 28.5822 19.9981 31.4233 19.9994H35.8333C37.2141 19.9994 38.3333 18.9249 38.3333 17.5994C38.3333 16.2739 37.2141 15.1994 35.8333 15.1994H31.4233C30.4769 15.1991 29.6117 14.6857 29.1883 13.873L28.5217 12.593C27.2738 10.1973 24.5791 8.82636 21.8133 9.18023L12.1667 10.4202C10.7979 10.597 9.83758 11.8054 10.0217 13.1194C10.2058 14.4334 11.4646 15.3554 12.8333 15.1786L19.6367 14.3082L14.3783 22.1034C13.9177 22.7867 13.1278 23.1993 12.28 23.1994H8.72168" stroke="#4895EF" stroke-width="1.5" stroke-linecap="round" stroke-linejoin="round"/>
<path d="M5 28.0009H12.2817C14.825 28.0005 17.1948 26.7627 18.5767 24.7129L19.275 23.6777C19.99 24.2953 20.9167 25.1177 22.1083 26.2377C22.2897 26.4066 22.38 26.6462 22.3533 26.8873L21.8533 30.8393" stroke="#4895EF" stroke-width="1.5" stroke-linecap="round" stroke-linejoin="round"/>
<path d="M5 20.8008V30.4008" stroke="#4895EF" stroke-width="1.5" stroke-linecap="round" stroke-linejoin="round"/>
<path d="M19.1666 34.4004H29.1666" stroke="#4895EF" stroke-width="1.5" stroke-linecap="round" stroke-linejoin="round"/>
<path d="M2.08337 20.8008C2.31349 20.8008 2.50004 20.9799 2.50004 21.2008" stroke="#4895EF" stroke-width="1.5" stroke-linecap="round" stroke-linejoin="round"/>
<path d="M1.66663 21.2008C1.66663 20.9799 1.85317 20.8008 2.08329 20.8008" stroke="#4895EF" stroke-width="1.5" stroke-linecap="round" stroke-linejoin="round"/>
<path d="M2.08329 21.5992C1.85317 21.5992 1.66663 21.4201 1.66663 21.1992" stroke="#4895EF" stroke-width="1.5" stroke-linecap="round" stroke-linejoin="round"/>
<path d="M2.50004 21.1992C2.50004 21.4201 2.31349 21.5992 2.08337 21.5992" stroke="#4895EF" stroke-width="1.5" stroke-linecap="round" stroke-linejoin="round"/>
<path d="M2.08337 25.1992C2.31349 25.1992 2.50004 25.3783 2.50004 25.5992" stroke="#4895EF" stroke-width="1.5" stroke-linecap="round" stroke-linejoin="round"/>
<path d="M1.66663 25.5992C1.66663 25.3783 1.85317 25.1992 2.08329 25.1992" stroke="#4895EF" stroke-width="1.5" stroke-linecap="round" stroke-linejoin="round"/>
<path d="M2.08329 25.9996C1.85317 25.9996 1.66663 25.8205 1.66663 25.5996" stroke="#4895EF" stroke-width="1.5" stroke-linecap="round" stroke-linejoin="round"/>
<path d="M2.50004 25.5996C2.50004 25.8205 2.31349 25.9996 2.08337 25.9996" stroke="#4895EF" stroke-width="1.5" stroke-linecap="round" stroke-linejoin="round"/>
<path d="M2.08337 29.5996C2.31349 29.5996 2.50004 29.7787 2.50004 29.9996" stroke="#4895EF" stroke-width="1.5" stroke-linecap="round" stroke-linejoin="round"/>
<path d="M1.66663 29.9996C1.66663 29.7787 1.85317 29.5996 2.08329 29.5996" stroke="#4895EF" stroke-width="1.5" stroke-linecap="round" stroke-linejoin="round"/>
<path d="M2.08329 30.4C1.85317 30.4 1.66663 30.2209 1.66663 30" stroke="#4895EF" stroke-width="1.5" stroke-linecap="round" stroke-linejoin="round"/>
<path d="M2.50004 30C2.50004 30.2209 2.31349 30.4 2.08337 30.4" stroke="#4895EF" stroke-width="1.5" stroke-linecap="round" stroke-linejoin="round"/>
<path d="M2.08337 20.8008C2.31349 20.8008 2.50004 20.9799 2.50004 21.2008" stroke="#4895EF" stroke-width="1.5" stroke-linecap="round" stroke-linejoin="round"/>
<path d="M1.66663 21.2008C1.66663 20.9799 1.85317 20.8008 2.08329 20.8008" stroke="#4895EF" stroke-width="1.5" stroke-linecap="round" stroke-linejoin="round"/>
<path d="M2.08329 21.5992C1.85317 21.5992 1.66663 21.4201 1.66663 21.1992" stroke="#4895EF" stroke-width="1.5" stroke-linecap="round" stroke-linejoin="round"/>
<path d="M2.50004 21.1992C2.50004 21.4201 2.31349 21.5992 2.08337 21.5992" stroke="#4895EF" stroke-width="1.5" stroke-linecap="round" stroke-linejoin="round"/>
<path d="M2.08337 25.4668C2.15977 25.4668 2.22171 25.5263 2.22171 25.5996" stroke="#4895EF" stroke-width="1.5" stroke-linecap="round" stroke-linejoin="round"/>
<path d="M1.94495 25.5996C1.94495 25.5263 2.00688 25.4668 2.08328 25.4668" stroke="#4895EF" stroke-width="1.5" stroke-linecap="round" stroke-linejoin="round"/>
<path d="M2.08328 25.7324C2.00688 25.7324 1.94495 25.673 1.94495 25.5996" stroke="#4895EF" stroke-width="1.5" stroke-linecap="round" stroke-linejoin="round"/>
<path d="M2.22171 25.5996C2.22171 25.673 2.15977 25.7324 2.08337 25.7324" stroke="#4895EF" stroke-width="1.5" stroke-linecap="round" stroke-linejoin="round"/>
<path d="M2.08337 29.5996C2.31349 29.5996 2.50004 29.7787 2.50004 29.9996" stroke="#4895EF" stroke-width="1.5" stroke-linecap="round" stroke-linejoin="round"/>
<path d="M1.66663 29.9996C1.66663 29.7787 1.85317 29.5996 2.08329 29.5996" stroke="#4895EF" stroke-width="1.5" stroke-linecap="round" stroke-linejoin="round"/>
<path d="M2.08329 30.4C1.85317 30.4 1.66663 30.2209 1.66663 30" stroke="#4895EF" stroke-width="1.5" stroke-linecap="round" stroke-linejoin="round"/>
<path d="M2.50004 30C2.50004 30.2209 2.31349 30.4 2.08337 30.4" stroke="#4895EF" stroke-width="1.5" stroke-linecap="round" stroke-linejoin="round"/>
<path d="M29.1667 37.1992C29.1667 37.4201 28.9801 37.5992 28.75 37.5992" stroke="#4895EF" stroke-width="1.5" stroke-linecap="round" stroke-linejoin="round"/>
<path d="M28.75 36.8008C28.9801 36.8008 29.1667 36.9799 29.1667 37.2008" stroke="#4895EF" stroke-width="1.5" stroke-linecap="round" stroke-linejoin="round"/>
<path d="M28.3334 37.2008C28.3334 36.9799 28.5199 36.8008 28.75 36.8008" stroke="#4895EF" stroke-width="1.5" stroke-linecap="round" stroke-linejoin="round"/>
<path d="M28.75 37.5992C28.5199 37.5992 28.3334 37.4201 28.3334 37.1992" stroke="#4895EF" stroke-width="1.5" stroke-linecap="round" stroke-linejoin="round"/>
<path d="M24.5833 37.1992C24.5833 37.4201 24.3967 37.5992 24.1666 37.5992" stroke="#4895EF" stroke-width="1.5" stroke-linecap="round" stroke-linejoin="round"/>
<path d="M24.1666 36.8008C24.3967 36.8008 24.5833 36.9799 24.5833 37.2008" stroke="#4895EF" stroke-width="1.5" stroke-linecap="round" stroke-linejoin="round"/>
<path d="M23.75 37.2008C23.75 36.9799 23.9365 36.8008 24.1667 36.8008" stroke="#4895EF" stroke-width="1.5" stroke-linecap="round" stroke-linejoin="round"/>
<path d="M24.1667 37.5992C23.9365 37.5992 23.75 37.4201 23.75 37.1992" stroke="#4895EF" stroke-width="1.5" stroke-linecap="round" stroke-linejoin="round"/>
<path d="M20 37.1992C20 37.4201 19.8135 37.5992 19.5834 37.5992" stroke="#4895EF" stroke-width="1.5" stroke-linecap="round" stroke-linejoin="round"/>
<path d="M19.5834 36.8008C19.8135 36.8008 20 36.9799 20 37.2008" stroke="#4895EF" stroke-width="1.5" stroke-linecap="round" stroke-linejoin="round"/>
<path d="M19.1666 37.2008C19.1666 36.9799 19.3532 36.8008 19.5833 36.8008" stroke="#4895EF" stroke-width="1.5" stroke-linecap="round" stroke-linejoin="round"/>
<path d="M19.5833 37.5992C19.3532 37.5992 19.1666 37.4201 19.1666 37.1992" stroke="#4895EF" stroke-width="1.5" stroke-linecap="round" stroke-linejoin="round"/>
</svg>
