<svg width="40" height="40" viewBox="0 0 40 40" fill="none" xmlns="http://www.w3.org/2000/svg">
<path fill-rule="evenodd" clip-rule="evenodd" d="M27.2083 9.79232C29.5095 9.79232 31.375 7.92684 31.375 5.62565C31.375 3.32446 29.5095 1.45898 27.2083 1.45898C24.9071 1.45898 23.0416 3.32446 23.0416 5.62565C23.0416 7.92684 24.9071 9.79232 27.2083 9.79232Z" stroke="#4895EF" stroke-width="1.5" stroke-linecap="round" stroke-linejoin="round"/>
<path fill-rule="evenodd" clip-rule="evenodd" d="M33.475 18.855H32.5217C29.2217 18.855 28.7817 17.78 26.8384 15.1116C25.758 13.6276 24.3483 12.4142 22.72 11.5666L22.6667 11.53C22.585 11.485 22.5 11.445 22.415 11.4083C16.9429 8.74155 10.3404 10.6385 7.11837 15.8033L6.75504 16.385C6.02372 17.5572 6.38115 19.1003 7.55337 19.8316C8.7256 20.563 10.2687 20.2055 11 19.0333L11.3617 18.4516C12.6178 16.4289 14.8324 15.2015 17.2134 15.2083C17.39 15.2083 17.5667 15.2083 17.7417 15.23L12.9084 23.9233C12.467 24.717 11.6299 25.2089 10.7217 25.2083H5.33337C3.95266 25.2083 2.83337 26.3276 2.83337 27.7083C2.83337 29.089 3.95266 30.2083 5.33337 30.2083H10.7234C13.0383 30.2072 15.2232 29.1384 16.645 27.3116L20.3334 30.585C20.8653 31.0608 21.1686 31.7413 21.1667 32.455V36.0416C21.1667 37.4223 22.286 38.5416 23.6667 38.5416C25.0474 38.5416 26.1667 37.4223 26.1667 36.0416V32.455C26.1668 30.3121 25.2502 28.2716 23.6484 26.8483L19.2017 22.895L22.255 17.395C22.4479 17.6017 22.6283 17.8199 22.795 18.0483C25.6767 22.0083 27.6284 23.85 32.5217 23.85H33.475C34.8558 23.85 35.975 22.7307 35.975 21.35C35.975 19.9693 34.8558 18.85 33.475 18.85V18.855Z" stroke="#4895EF" stroke-width="1.5" stroke-linecap="round" stroke-linejoin="round"/>
</svg>
