<svg width="35" height="31" viewBox="0 0 35 31" fill="none" xmlns="http://www.w3.org/2000/svg">
<path d="M1 11.0876C2.16667 9.92092 5.6 7.58759 10 7.58759C15.5 7.58759 20.5 11.0876 23.5 7.58759C26.2057 4.43093 24 1.58762 22 1.08759C20.4661 0.704084 18.5 1.58761 18.5 3.5876C18.5 5.58758 20.5 5.58761 21 5.08761M1.5 16.5876C2.5 15.7543 5.6 14.0876 10 14.0876C15.5 14.0876 19 16.5876 22 17.5876C26 18.9209 31.5 19.0876 33.5 14.5876C35.5 10.0876 32.6403 7.55956 30 8.08762C27.5 8.58762 27.5 12.5876 30.5 12.0876M1 23.0876C2.5 21.5876 4.69341 19.9384 7.5 19.5876C11 19.1501 14.4505 20.0381 17 22.5876C18.5 24.0876 19.3324 27.3383 17 29.0876C15 30.5876 12.5 28.5876 12.5 27.0876C12.5 25.8876 13.5 25.0876 14.5 25.0876" stroke="#4895EF" stroke-width="1.5" stroke-linecap="round" stroke-linejoin="round"/>
</svg>
