<svg width="201" height="75" viewBox="0 0 201 75" fill="none" xmlns="http://www.w3.org/2000/svg">
<path d="M100.294 39.4882C99.7808 39.4882 99.3905 39.3527 99.1228 39.0817C98.8551 38.8107 98.7213 38.4155 98.7213 37.8961V24.0753C98.7213 23.5559 98.8551 23.172 99.1228 22.9236C99.3905 22.6526 99.7585 22.5171 100.227 22.5171C100.695 22.5171 101.052 22.6526 101.298 22.9236C101.565 23.172 101.699 23.5559 101.699 24.0753V26.6837H101.364C101.721 25.3287 102.39 24.3012 103.372 23.6011C104.353 22.901 105.591 22.5058 107.086 22.4155C107.443 22.3929 107.733 22.4832 107.956 22.6865C108.179 22.8672 108.301 23.1833 108.324 23.635C108.346 24.0641 108.246 24.4141 108.022 24.6851C107.799 24.9335 107.454 25.0803 106.985 25.1255L106.383 25.1593C104.911 25.3174 103.773 25.8029 102.97 26.6159C102.19 27.4289 101.799 28.5468 101.799 29.9695V37.8961C101.799 38.4155 101.666 38.8107 101.398 39.0817C101.153 39.3527 100.785 39.4882 100.294 39.4882Z" fill="black"/>
<path d="M90.5217 40.0218C89.2703 40.0218 88.2204 39.7808 87.372 39.2988C86.5448 38.8168 85.9191 38.1168 85.4949 37.1987C85.0919 36.2806 84.8904 35.156 84.8904 33.8248V25.3556H82.8542C82.4724 25.3556 82.1755 25.2523 81.9634 25.0458C81.7513 24.8162 81.6452 24.5179 81.6452 24.1506C81.6452 23.7605 81.7513 23.4621 81.9634 23.2555C82.1755 23.0489 82.4724 22.9457 82.8542 22.9457H84.8904V19.193C84.8904 18.6652 85.0176 18.275 85.2721 18.0225C85.5267 17.7471 85.8872 17.6094 86.3539 17.6094C86.8205 17.6094 87.1705 17.7471 87.4038 18.0225C87.6583 18.275 87.7856 18.6652 87.7856 19.193V22.9457H91.6352C92.0382 22.9457 92.3457 23.0489 92.5578 23.2555C92.7699 23.4621 92.876 23.7605 92.876 24.1506C92.876 24.5179 92.7699 24.8162 92.5578 25.0458C92.3457 25.2523 92.0382 25.3556 91.6352 25.3556H87.7856V33.5494C87.7856 34.8117 88.0295 35.7642 88.5173 36.4069C89.0051 37.0495 89.8111 37.3709 90.9353 37.3709C91.3383 37.3709 91.6776 37.3364 91.9534 37.2676C92.2291 37.1758 92.473 37.1299 92.6851 37.1299C92.876 37.1069 93.0351 37.1758 93.1623 37.3364C93.3108 37.4971 93.385 37.7955 93.385 38.2315C93.385 38.5529 93.332 38.8512 93.226 39.1267C93.1411 39.3791 92.9608 39.5513 92.6851 39.6431C92.4306 39.7349 92.0912 39.8152 91.667 39.8841C91.2428 39.9759 90.861 40.0218 90.5217 40.0218Z" fill="black"/>
<path d="M71.5807 40.5559C69.8103 40.5559 68.2792 40.1737 66.9874 39.4094C65.6955 38.6204 64.7027 37.5232 64.0089 36.1178C63.3151 34.6878 62.9682 33.0111 62.9682 31.088C62.9682 29.6579 63.1596 28.3758 63.5424 27.2416C63.9491 26.1074 64.5232 25.1458 65.2649 24.3568C66.0065 23.5432 66.9036 22.9268 67.9563 22.5076C69.0328 22.0885 70.241 21.8789 71.5807 21.8789C72.418 21.8789 73.3032 22.0145 74.2362 22.2857C75.1692 22.5569 76.0305 23.0008 76.82 23.6172C77.0831 23.8144 77.2506 24.0486 77.3224 24.3199C77.3941 24.5664 77.3941 24.8253 77.3224 25.0965C77.2745 25.3677 77.1549 25.602 76.9635 25.7992C76.796 25.9718 76.5688 26.0704 76.2817 26.0951C76.0185 26.1198 75.7314 26.0335 75.4204 25.8362C74.8463 25.3924 74.2362 25.0719 73.5903 24.8746C72.9683 24.6774 72.3702 24.5788 71.796 24.5788C70.9108 24.5788 70.1214 24.7267 69.4276 25.0226C68.7577 25.3184 68.1835 25.7499 67.7051 26.317C67.2505 26.8594 66.9036 27.5375 66.6644 28.3511C66.4252 29.1401 66.3055 30.0647 66.3055 31.1249C66.3055 33.2207 66.784 34.8727 67.741 36.0808C68.6979 37.2643 70.0496 37.8561 71.796 37.8561C72.3702 37.8561 72.9683 37.7698 73.5903 37.5972C74.2123 37.3999 74.8223 37.0794 75.4204 36.6356C75.7314 36.4383 76.0185 36.3644 76.2817 36.4137C76.5448 36.4383 76.7601 36.5493 76.9276 36.7465C77.119 36.9191 77.2386 37.141 77.2865 37.4123C77.3343 37.6588 77.3104 37.9177 77.2147 38.1889C77.1429 38.4601 76.9755 38.682 76.7123 38.8546C75.9467 39.4464 75.1094 39.8779 74.2003 40.1491C73.2912 40.4203 72.418 40.5559 71.5807 40.5559Z" fill="black"/>
<path d="M50.358 40.0223C48.5468 40.0223 46.9878 39.663 45.681 38.9445C44.3971 38.202 43.3998 37.1601 42.6891 35.8188C41.9784 34.4535 41.623 32.8488 41.623 31.0045C41.623 29.1842 41.9669 27.5914 42.6547 26.2261C43.3654 24.8609 44.3283 23.795 45.5434 23.0286C46.7815 22.2621 48.1914 21.8789 49.7733 21.8789C50.8967 21.8789 51.9055 22.0825 52.7996 22.4897C53.7167 22.8729 54.4962 23.4358 55.1381 24.1783C55.78 24.9208 56.2615 25.8309 56.5824 26.9088C56.9263 27.9626 57.0983 29.1602 57.0983 30.5015C57.0983 30.8847 56.9837 31.1841 56.7544 31.3997C56.5481 31.5913 56.2385 31.6871 55.8259 31.6871H44.0647V29.6033H55.0349L54.4503 30.1063C54.4503 28.8608 54.2669 27.8069 53.9001 26.9447C53.5562 26.0585 53.0403 25.3878 52.3525 24.9327C51.6877 24.4777 50.8509 24.2501 49.8421 24.2501C48.7417 24.2501 47.8017 24.5256 47.0222 25.0765C46.2427 25.6034 45.6466 26.3579 45.2339 27.3399C44.8213 28.298 44.6149 29.4117 44.6149 30.6811V30.8967C44.6149 33.0524 45.1078 34.6811 46.0937 35.7828C47.0795 36.8846 48.5009 37.4355 50.358 37.4355C51.0916 37.4355 51.8367 37.3397 52.5933 37.1481C53.3728 36.9565 54.1179 36.6092 54.8286 36.1062C55.1725 35.8906 55.482 35.7948 55.7571 35.8188C56.0551 35.8188 56.2959 35.9146 56.4793 36.1062C56.6627 36.2739 56.7773 36.4894 56.8232 36.7529C56.869 36.9924 56.8346 37.2559 56.72 37.5433C56.6054 37.8307 56.3876 38.0822 56.0666 38.2978C55.31 38.8487 54.4044 39.2798 53.3498 39.5912C52.3182 39.8786 51.3209 40.0223 50.358 40.0223Z" fill="black"/>
<path d="M20.7434 46.4258C20.2665 46.4258 19.8919 46.2821 19.6194 45.9946C19.3469 45.707 19.2106 45.2997 19.2106 44.7726V23.604C19.2106 23.0529 19.3469 22.6456 19.6194 22.3821C19.8919 22.0945 20.2665 21.9508 20.7434 21.9508C21.243 21.9508 21.6176 22.0945 21.8674 22.3821C22.1399 22.6456 22.2762 23.0529 22.2762 23.604V26.8745L21.9015 26.2276C22.2648 24.9098 22.9801 23.8556 24.0474 23.0649C25.1146 22.2742 26.3976 21.8789 27.8963 21.8789C29.3723 21.8789 30.6553 22.2503 31.7452 22.993C32.8352 23.7118 33.6867 24.7541 34.2998 26.1198C34.9129 27.4616 35.2195 29.0669 35.2195 30.9358C35.2195 32.7807 34.9129 34.398 34.2998 35.7876C33.7094 37.1533 32.8579 38.2076 31.7452 38.9503C30.6553 39.6691 29.3723 40.0285 27.8963 40.0285C26.4203 40.0285 25.1487 39.6332 24.0814 38.8425C23.0142 38.0518 22.2989 37.0096 21.9355 35.7158H22.3102V44.7726C22.3102 45.2997 22.174 45.707 21.9015 45.9946C21.629 46.2821 21.243 46.4258 20.7434 46.4258ZM27.181 37.4409C28.1574 37.4409 29.009 37.1893 29.7356 36.6861C30.485 36.183 31.064 35.4522 31.4727 34.4938C31.8815 33.5354 32.0858 32.3494 32.0858 30.9358C32.0858 28.8273 31.643 27.222 30.7575 26.1198C29.8719 25.0177 28.6797 24.4666 27.181 24.4666C26.1819 24.4666 25.3076 24.7182 24.5583 25.2213C23.8316 25.7005 23.2639 26.4193 22.8552 27.3777C22.4692 28.3361 22.2762 29.5221 22.2762 30.9358C22.2762 33.0442 22.719 34.6615 23.6046 35.7876C24.4901 36.8898 25.6823 37.4409 27.181 37.4409Z" fill="black"/>
<path d="M6.70269 40.5559C5.91484 40.5559 5.15214 40.487 4.41458 40.3493C3.67702 40.2287 2.98137 40.0393 2.32762 39.7809C1.67388 39.5226 1.08718 39.204 0.567537 38.8251C0.349622 38.6701 0.190377 38.4807 0.0898003 38.2568C0.00598675 38.0329 -0.0191574 37.8177 0.014368 37.611C0.0646562 37.3871 0.156851 37.1977 0.290953 37.0427C0.441817 36.8877 0.617825 36.793 0.818978 36.7585C1.02013 36.7241 1.23805 36.793 1.47272 36.9652C2.24381 37.499 3.04842 37.8865 3.88655 38.1276C4.74145 38.3687 5.68016 38.4893 6.70269 38.4893C8.17781 38.4893 9.259 38.2138 9.94627 37.6627C10.6503 37.1116 11.0023 36.3882 11.0023 35.4927C11.0023 34.7522 10.7509 34.1752 10.248 33.7619C9.74512 33.3314 8.8986 32.9956 7.70845 32.7545L5.04318 32.1861C3.46749 31.8417 2.28571 31.2734 1.49787 30.4812C0.726783 29.689 0.341241 28.6298 0.341241 27.3038C0.341241 26.4943 0.500486 25.7624 0.818978 25.108C1.13747 24.4363 1.59006 23.8594 2.17676 23.3772C2.76345 22.895 3.45072 22.5247 4.23857 22.2664C5.04318 22.0081 5.9316 21.8789 6.90384 21.8789C7.94313 21.8789 8.91537 22.0253 9.82055 22.3181C10.7425 22.6108 11.5723 23.0414 12.3098 23.6097C12.511 23.7647 12.6451 23.9541 12.7121 24.178C12.7792 24.3847 12.7876 24.5913 12.7373 24.798C12.7037 25.0047 12.6115 25.1769 12.4607 25.3146C12.3266 25.4524 12.1506 25.5299 11.9327 25.5471C11.7315 25.5644 11.5052 25.4869 11.2538 25.3146C10.5833 24.8324 9.89598 24.488 9.19195 24.2813C8.48792 24.0575 7.71683 23.9455 6.8787 23.9455C6.0238 23.9455 5.27786 24.0833 4.64087 24.3588C4.02065 24.6344 3.53454 25.0219 3.18252 25.5213C2.84727 26.0035 2.67964 26.5718 2.67964 27.2263C2.67964 28.0185 2.91432 28.6384 3.38367 29.0862C3.85303 29.534 4.64088 29.8784 5.74721 30.1195L8.38734 30.662C10.0636 31.0237 11.3041 31.5834 12.1087 32.3411C12.93 33.0817 13.3407 34.0805 13.3407 35.3377C13.3407 36.1299 13.1815 36.8446 12.863 37.4818C12.5613 38.119 12.1254 38.6701 11.5555 39.1351C10.9856 39.5829 10.2899 39.9359 9.46853 40.1943C8.64716 40.4354 7.72521 40.5559 6.70269 40.5559Z" fill="black"/>
<path d="M153.235 57.9422C143.273 63.4033 138.399 63.0042 131.09 55.8077C120.005 57.5787 115.348 56.6082 109.211 45.9356C104.942 34.9962 107.666 26.9019 117.482 18.7205C119.943 10.2404 123.067 8.44526 131.09 9.38199C134.561 3.62881 137.159 1.44492 143.363 0.0429546C147.448 -0.0335684 149.991 0.44195 154.836 1.91065C161.175 -1.11243 164.791 -0.716739 171.379 4.31212C185.22 3.54639 188.583 6.92467 191.924 15.2515C197.394 17.9564 199.42 20.3743 200.995 26.4578C201.106 34.7733 199.273 38.011 193.524 41.933C195.868 49.8138 194.287 52.7981 186.854 55.8077C186.854 55.8077 190.483 70.6905 190.056 72.8835C189.629 75.0764 188.93 75.3138 186.854 73.9507L173.78 57.9422C165.757 63.2476 161.259 63.1683 153.235 57.9422Z" fill="#5B0219"/>
<path d="M190.281 30.5557C190.281 31.2174 190.239 31.8151 190.153 32.3487H176.674C176.781 33.7575 177.304 34.8888 178.243 35.7426C179.182 36.5964 180.335 37.0233 181.701 37.0233C183.664 37.0233 185.052 36.2015 185.863 34.5579H189.801C189.267 36.1802 188.296 37.5142 186.888 38.5601C185.5 39.5847 183.771 40.097 181.701 40.097C180.014 40.097 178.499 39.7235 177.154 38.9764C175.831 38.2079 174.785 37.1407 174.016 35.7746C173.269 34.3872 172.896 32.7863 172.896 30.9719C172.896 29.1576 173.259 27.5674 173.984 26.2013C174.731 24.8139 175.767 23.7466 177.09 22.9995C178.435 22.2524 179.972 21.8789 181.701 21.8789C183.366 21.8789 184.849 22.2418 186.151 22.9675C187.453 23.6932 188.467 24.7178 189.193 26.0412C189.919 27.3433 190.281 28.8481 190.281 30.5557ZM186.471 29.4031C186.45 28.0583 185.97 26.9804 185.03 26.1693C184.091 25.3582 182.928 24.9526 181.541 24.9526C180.281 24.9526 179.203 25.3582 178.307 26.1693C177.41 26.9591 176.877 28.037 176.706 29.4031H186.471Z" fill="white"/>
<path d="M166.407 15.4746V39.1677H162.757V15.4746H166.407Z" fill="white"/>
<path d="M141.86 24.1514C142.479 23.2976 143.322 22.6039 144.389 22.0703C145.478 21.5153 146.684 21.2378 148.007 21.2378C149.565 21.2378 150.974 21.6113 152.234 22.3584C153.493 23.1055 154.486 24.1728 155.211 25.5602C155.937 26.9263 156.3 28.4952 156.3 30.2668C156.3 32.0384 155.937 33.6287 155.211 35.0374C154.486 36.4249 153.482 37.5135 152.202 38.3032C150.942 39.0717 149.544 39.4559 148.007 39.4559C146.641 39.4559 145.425 39.1891 144.357 38.6554C143.311 38.1218 142.479 37.4388 141.86 36.6063V39.1677H138.21V15.4746H141.86V24.1514ZM152.586 30.2668C152.586 29.0501 152.33 28.0042 151.817 27.1291C151.326 26.2326 150.665 25.5602 149.832 25.1119C149.021 24.6424 148.146 24.4076 147.207 24.4076C146.289 24.4076 145.414 24.6424 144.581 25.1119C143.77 25.5815 143.109 26.2646 142.596 27.1611C142.105 28.0576 141.86 29.1142 141.86 30.3308C141.86 31.5475 142.105 32.6148 142.596 33.5326C143.109 34.4291 143.77 35.1122 144.581 35.5817C145.414 36.0513 146.289 36.2861 147.207 36.2861C148.146 36.2861 149.021 36.0513 149.832 35.5817C150.665 35.0908 151.326 34.3864 151.817 33.4686C152.33 32.5507 152.586 31.4835 152.586 30.2668Z" fill="white"/>
<path d="M128.021 35.8024C127.884 35.3957 127.502 35.1218 127.073 35.1218H118.897C118.467 35.1218 118.086 35.3957 117.949 35.8024L116.756 39.3406C116.619 39.7473 116.238 40.0211 115.809 40.0211H113.995C113.309 40.0211 112.827 39.3461 113.049 38.6971L120.59 16.6838C120.728 16.2794 121.108 16.0078 121.536 16.0078H124.467C124.895 16.0078 125.275 16.2794 125.413 16.6838L132.954 38.6971C133.176 39.3461 132.694 40.0211 132.008 40.0211H130.161C129.732 40.0211 129.351 39.7473 129.214 39.3406L128.021 35.8024ZM125.345 31.9132C126.028 31.9132 126.51 31.2434 126.293 30.5956L123.946 23.5874C123.641 22.6789 122.357 22.6771 122.05 23.5849L119.682 30.593C119.463 31.2413 119.945 31.9132 120.629 31.9132H125.345Z" fill="white"/>
<path d="M100.778 58.752V59.7445H98.8032V66.1694H97.5865V59.7445H95.6014V58.752H100.778Z" fill="#5B0219"/>
<path d="M91.3484 66.2445C90.8503 66.2445 90.402 66.1591 90.0036 65.9883C89.6052 65.8104 89.2921 65.5614 89.0644 65.2412C88.8367 64.9211 88.7229 64.5475 88.7229 64.1206H90.025C90.0534 64.4408 90.1779 64.704 90.3985 64.9104C90.6262 65.1167 90.9428 65.2199 91.3484 65.2199C91.7681 65.2199 92.0954 65.1203 92.3302 64.9211C92.565 64.7147 92.6824 64.4515 92.6824 64.1313C92.6824 63.8823 92.6077 63.6795 92.4583 63.5229C92.316 63.3664 92.1346 63.2455 91.914 63.1601C91.7005 63.0747 91.4017 62.9822 91.0175 62.8826C90.5337 62.7545 90.1388 62.6264 89.8328 62.4984C89.534 62.3632 89.2779 62.1569 89.0644 61.8794C88.851 61.6019 88.7442 61.2319 88.7442 60.7694C88.7442 60.3425 88.851 59.969 89.0644 59.6488C89.2779 59.3286 89.5767 59.0832 89.9609 58.9124C90.3451 58.7416 90.7898 58.6562 91.295 58.6562C92.0136 58.6562 92.6006 58.8377 93.056 59.2006C93.5184 59.5563 93.7746 60.0472 93.8244 60.6734H92.4796C92.4583 60.403 92.3302 60.1718 92.0954 59.9796C91.8606 59.7875 91.5511 59.6915 91.1669 59.6915C90.8183 59.6915 90.5337 59.7804 90.3131 59.9583C90.0925 60.1362 89.9823 60.3923 89.9823 60.7267C89.9823 60.9544 90.0499 61.143 90.185 61.2924C90.3273 61.4347 90.5052 61.5485 90.7187 61.6339C90.9321 61.7193 91.2238 61.8118 91.5938 61.9114C92.0848 62.0466 92.4832 62.1818 92.7891 62.3169C93.1022 62.4521 93.3655 62.662 93.5789 62.9466C93.7995 63.2241 93.9098 63.5977 93.9098 64.0672C93.9098 64.4443 93.8066 64.8001 93.6003 65.1345C93.401 65.4689 93.1058 65.7393 92.7144 65.9456C92.3302 66.1448 91.8749 66.2445 91.3484 66.2445Z" fill="#5B0219"/>
<path d="M86.6665 58.752V66.1694H85.4498V58.752H86.6665Z" fill="#5B0219"/>
<path d="M80.8124 66.2445C80.3143 66.2445 79.8661 66.1591 79.4677 65.9883C79.0692 65.8104 78.7562 65.5614 78.5285 65.2412C78.3008 64.9211 78.187 64.5475 78.187 64.1206H79.489C79.5175 64.4408 79.642 64.704 79.8625 64.9104C80.0902 65.1167 80.4068 65.2199 80.8124 65.2199C81.2322 65.2199 81.5595 65.1203 81.7943 64.9211C82.0291 64.7147 82.1465 64.4515 82.1465 64.1313C82.1465 63.8823 82.0718 63.6795 81.9224 63.5229C81.7801 63.3664 81.5986 63.2455 81.378 63.1601C81.1646 63.0747 80.8658 62.9822 80.4816 62.8826C79.9977 62.7545 79.6028 62.6264 79.2969 62.4984C78.9981 62.3632 78.7419 62.1569 78.5285 61.8794C78.315 61.6019 78.2083 61.2319 78.2083 60.7694C78.2083 60.3425 78.315 59.969 78.5285 59.6488C78.7419 59.3286 79.0408 59.0832 79.425 58.9124C79.8092 58.7416 80.2539 58.6562 80.759 58.6562C81.4777 58.6562 82.0647 58.8377 82.52 59.2006C82.9825 59.5563 83.2386 60.0472 83.2884 60.6734H81.9437C81.9223 60.403 81.7943 60.1718 81.5595 59.9796C81.3247 59.7875 81.0152 59.6915 80.631 59.6915C80.2823 59.6915 79.9977 59.7804 79.7772 59.9583C79.5566 60.1362 79.4463 60.3923 79.4463 60.7267C79.4463 60.9544 79.5139 61.143 79.6491 61.2924C79.7914 61.4347 79.9693 61.5485 80.1827 61.6339C80.3962 61.7193 80.6879 61.8118 81.0579 61.9114C81.5488 62.0466 81.9473 62.1818 82.2532 62.3169C82.5663 62.4521 82.8295 62.662 83.043 62.9466C83.2635 63.2241 83.3738 63.5977 83.3738 64.0672C83.3738 64.4443 83.2707 64.8001 83.0643 65.1345C82.8651 65.4689 82.5698 65.7393 82.1785 65.9456C81.7943 66.1448 81.3389 66.2445 80.8124 66.2445Z" fill="#5B0219"/>
<path d="M73.731 66.2445C73.233 66.2445 72.7847 66.1591 72.3863 65.9883C71.9879 65.8104 71.6748 65.5614 71.4471 65.2412C71.2194 64.9211 71.1056 64.5475 71.1056 64.1206H72.4076C72.4361 64.4408 72.5606 64.704 72.7812 64.9104C73.0089 65.1167 73.3255 65.2199 73.731 65.2199C74.1508 65.2199 74.4781 65.1203 74.7129 64.9211C74.9477 64.7147 75.0651 64.4515 75.0651 64.1313C75.0651 63.8823 74.9904 63.6795 74.841 63.5229C74.6987 63.3664 74.5173 63.2455 74.2967 63.1601C74.0832 63.0747 73.7844 62.9822 73.4002 62.8826C72.9164 62.7545 72.5215 62.6264 72.2155 62.4984C71.9167 62.3632 71.6606 62.1569 71.4471 61.8794C71.2337 61.6019 71.1269 61.2319 71.1269 60.7694C71.1269 60.3425 71.2337 59.969 71.4471 59.6488C71.6606 59.3286 71.9594 59.0832 72.3436 58.9124C72.7278 58.7416 73.1725 58.6562 73.6777 58.6562C74.3963 58.6562 74.9833 58.8377 75.4387 59.2006C75.9011 59.5563 76.1573 60.0472 76.2071 60.6734H74.8623C74.841 60.403 74.7129 60.1718 74.4781 59.9796C74.2433 59.7875 73.9338 59.6915 73.5496 59.6915C73.201 59.6915 72.9164 59.7804 72.6958 59.9583C72.4752 60.1362 72.365 60.3923 72.365 60.7267C72.365 60.9544 72.4325 61.143 72.5677 61.2924C72.71 61.4347 72.8879 61.5485 73.1014 61.6339C73.3148 61.7193 73.6065 61.8118 73.9765 61.9114C74.4674 62.0466 74.8659 62.1818 75.1718 62.3169C75.4849 62.4521 75.7482 62.662 75.9616 62.9466C76.1822 63.2241 76.2925 63.5977 76.2925 64.0672C76.2925 64.4443 76.1893 64.8001 75.983 65.1345C75.7837 65.4689 75.4885 65.7393 75.0971 65.9456C74.7129 66.1448 74.2576 66.2445 73.731 66.2445Z" fill="#5B0219"/>
<path d="M67.6769 64.6548H64.5712L64.0376 66.1703H62.7675L65.425 58.7422H66.8338L69.4912 66.1703H68.2105L67.6769 64.6548ZM67.3354 63.6622L66.1294 60.215L64.9127 63.6622H67.3354Z" fill="#5B0219"/>
<path d="M60.9655 58.752V66.1694H59.7489V61.0892L57.4863 66.1694H56.6431L54.3699 61.0892V66.1694H53.1532V58.752H54.4659L57.07 64.5685L59.6635 58.752H60.9655Z" fill="#5B0219"/>
<path d="M46.3502 58.752V63.4799C46.3502 64.042 46.4961 64.4653 46.7878 64.7499C47.0866 65.0345 47.4993 65.1768 48.0258 65.1768C48.5594 65.1768 48.9721 65.0345 49.2638 64.7499C49.5627 64.4653 49.7121 64.042 49.7121 63.4799V58.752H50.9288V63.4586C50.9288 64.0633 50.7971 64.5756 50.5339 64.9954C50.2706 65.4152 49.9184 65.7283 49.4773 65.9346C49.0361 66.1409 48.5488 66.2441 48.0151 66.2441C47.4815 66.2441 46.9941 66.1409 46.553 65.9346C46.119 65.7283 45.7739 65.4152 45.5178 64.9954C45.2616 64.5756 45.1335 64.0633 45.1335 63.4586V58.752H46.3502Z" fill="#5B0219"/>
<path d="M41.8377 66.1694L38.9668 62.8502V66.1694H37.7501V58.752H38.9668V62.1352L41.8484 58.752H43.3746L40.1515 62.466L43.4279 66.1694H41.8377Z" fill="#5B0219"/>
<path d="M32.1238 66.2445C31.4336 66.2445 30.7968 66.0844 30.2134 65.7642C29.6371 65.4369 29.1782 64.9851 28.8366 64.4088C28.5022 63.8253 28.335 63.1708 28.335 62.445C28.335 61.7193 28.5022 61.0683 28.8366 60.4919C29.1782 59.9156 29.6371 59.4674 30.2134 59.1472C30.7968 58.8199 31.4336 58.6562 32.1238 58.6562C32.8211 58.6562 33.4579 58.8199 34.0342 59.1472C34.6176 59.4674 35.0765 59.9156 35.4109 60.4919C35.7453 61.0683 35.9126 61.7193 35.9126 62.445C35.9126 63.1708 35.7453 63.8253 35.4109 64.4088C35.0765 64.9851 34.6176 65.4369 34.0342 65.7642C33.4579 66.0844 32.8211 66.2445 32.1238 66.2445ZM32.1238 65.1879C32.6147 65.1879 33.0523 65.0776 33.4365 64.857C33.8207 64.6293 34.1196 64.3092 34.333 63.8965C34.5536 63.4767 34.6639 62.9929 34.6639 62.445C34.6639 61.8972 34.5536 61.4169 34.333 61.0042C34.1196 60.5915 33.8207 60.2749 33.4365 60.0544C33.0523 59.8338 32.6147 59.7235 32.1238 59.7235C31.6328 59.7235 31.1953 59.8338 30.8111 60.0544C30.4268 60.2749 30.1245 60.5915 29.9039 61.0042C29.6904 61.4169 29.5837 61.8972 29.5837 62.445C29.5837 62.9929 29.6904 63.4767 29.9039 63.8965C30.1245 64.3092 30.4268 64.6293 30.8111 64.857C31.1953 65.0776 31.6328 65.1879 32.1238 65.1879Z" fill="#5B0219"/>
<path d="M25.4341 66.1694L22.5632 62.8502V66.1694H21.3465V58.752H22.5632V62.1352L25.4448 58.752H26.9709L23.7478 62.466L27.0243 66.1694H25.4341Z" fill="#5B0219"/>
<path d="M16.3278 58.752L13.8731 63.4799V66.1694H12.6565V63.4799L10.1911 58.752H11.5465L13.2648 62.3913L14.9831 58.752H16.3278Z" fill="#5B0219"/>
<path d="M7.43883 62.3593C7.83727 62.4304 8.17523 62.6403 8.45272 62.989C8.73021 63.3376 8.86895 63.7325 8.86895 64.1736C8.86895 64.5507 8.76934 64.8922 8.57012 65.1982C8.37801 65.497 8.09697 65.7354 7.72699 65.9133C7.357 66.084 6.92654 66.1694 6.4356 66.1694H3.46863V58.752H6.29686C6.80203 58.752 7.23605 58.8373 7.59892 59.0081C7.96178 59.1789 8.23571 59.4101 8.4207 59.7018C8.60569 59.9864 8.69819 60.3066 8.69819 60.6623C8.69819 61.0892 8.58435 61.445 8.35667 61.7296C8.12899 62.0142 7.82304 62.2241 7.43883 62.3593ZM4.6853 61.8683H6.19014C6.58858 61.8683 6.89808 61.7794 7.11865 61.6015C7.34633 61.4165 7.46017 61.1533 7.46017 60.8118C7.46017 60.4774 7.34633 60.2177 7.11865 60.0327C6.89808 59.8406 6.58858 59.7445 6.19014 59.7445H4.6853V61.8683ZM6.32888 65.1768C6.74155 65.1768 7.06529 65.0772 7.30008 64.878C7.53488 64.6788 7.65228 64.4013 7.65228 64.0456C7.65228 63.6827 7.52776 63.3945 7.27874 63.1811C7.02971 62.9676 6.69886 62.8609 6.28619 62.8609H4.6853V65.1768H6.32888Z" fill="#5B0219"/>
</svg>
