<svg width="269" height="277" viewBox="0 0 269 277" fill="none" xmlns="http://www.w3.org/2000/svg">
<circle cx="122" cy="117" r="117" fill="url(#paint0_linear_21_2251)"/>
<circle cx="122" cy="117" r="116.5" stroke="#082878" stroke-opacity="0.2"/>
<circle cx="201" cy="73" r="68" fill="url(#paint1_linear_21_2251)"/>
<circle cx="201" cy="73" r="67.5" stroke="#082878" stroke-opacity="0.1"/>
<g clip-path="url(#clip0_21_2251)">
<path d="M36.8324 276.698C43.6406 276.698 49.1597 275.799 49.1597 274.689C49.1597 273.579 43.6406 272.68 36.8324 272.68C30.0242 272.68 24.505 273.579 24.505 274.689C24.505 275.799 30.0242 276.698 36.8324 276.698Z" fill="#BBE3F1"/>
<path d="M64.7311 276.698C71.5393 276.698 77.0585 275.799 77.0585 274.689C77.0585 273.579 71.5393 272.68 64.7311 272.68C57.9229 272.68 52.4037 273.579 52.4037 274.689C52.4037 275.799 57.9229 276.698 64.7311 276.698Z" fill="#BBE3F1"/>
<path d="M63.4335 263.236L65.6295 275.493H84.2453V274.036L73.6647 267.807L73.4651 263.487L63.4335 263.236Z" fill="#F78C68"/>
<path d="M73.6647 267.808L71.7682 260.775L62.0361 263.337L73.6647 267.808Z" fill="#D17645"/>
<path d="M75.4115 268.16C75.4115 268.16 73.8144 268.16 66.7773 269.416L64.2819 268.261V276.599L87.4394 276.499C87.4893 275.293 86.8405 274.138 85.7924 273.585L75.4115 268.16Z" fill="#FCF4E3"/>
<path d="M34.9359 263.236L32.7399 275.493H14.1241V274.036L24.7046 267.807L24.9043 263.487L34.9359 263.236Z" fill="#F78C68"/>
<path d="M24.7047 267.807L24.9043 263.487L34.4368 263.035L24.7047 267.807Z" fill="#D17645"/>
<path d="M22.9578 268.158C22.9578 268.158 24.5549 268.158 31.592 269.414L34.0874 268.259V276.597L10.9299 276.497C10.88 275.291 11.5288 274.136 12.5769 273.583L22.9578 268.158Z" fill="#FCF4E3"/>
<path d="M63.5832 154.435L74.014 263.739L59.2412 264.09L48.2114 194.62C47.3131 191.807 44.2188 191.857 43.2206 194.62L36.7824 263.739L23.3571 263.387C23.3571 263.387 20.7119 201.251 28.7472 150.969L63.5832 154.435Z" fill="#0377BD"/>
<path d="M33.7879 166.992L28.3978 262.03" stroke="#FBFAF4" stroke-width="0.685" stroke-miterlimit="10"/>
<path d="M66.6276 262.733L55.498 167.846" stroke="#FBFAF4" stroke-width="0.685" stroke-miterlimit="10"/>
<path opacity="0.82" d="M25.5032 178.797L67.9752 201.049L66.1286 179.902L25.5032 178.797Z" fill="#002439"/>
<path d="M38.7788 104.053L32.6401 135.498L14.9725 127.662C15.5714 127.561 24.2056 111.286 24.2056 111.286C24.2056 111.286 33.788 98.6277 38.7788 104.053Z" fill="#002E55"/>
<path d="M32.0412 104.556C43.57 98.3777 41.9729 99.8846 51.9546 99.8846C57.3946 99.8846 71.8181 106.013 73.7146 111.137C75.5113 115.959 74.1638 124.197 74.3634 125L68.624 123.242L67.6757 180.506L22.2092 178.849C22.2092 178.849 27.8988 132.987 28.0984 125.503C28.0485 125.051 31.2925 104.958 32.0412 104.556Z" fill="#002E55"/>
<path opacity="0.43" d="M66.6776 115.305L45.4166 179.451L67.3264 180.154L66.6776 115.305Z" fill="#5200A3"/>
<path d="M40.8251 91.7972L40.326 100.638L43.2706 109.328L52.5036 99.5329L50.9066 91.6465L40.8251 91.7972Z" fill="#F78C68"/>
<path d="M50.1579 91.8467C50.1579 91.8467 43.4203 102.596 40.6254 97.4726C39.8269 96.0159 38.4294 91.043 38.4294 91.043C38.4294 91.043 50.2078 91.3444 50.2577 91.3946" fill="#10192E"/>
<path d="M49.4567 133.498L47.4814 134.035L48.0155 136.023L49.9907 135.486L49.4567 133.498Z" fill="#223666"/>
<path d="M38.679 121.183L31.2926 123.192C30.8933 123.293 30.4441 123.042 30.3443 122.64L30.1447 121.886C30.0449 121.484 30.2944 121.032 30.6937 120.932L38.0801 118.923C38.4794 118.822 38.9286 119.073 39.0284 119.475L39.228 120.229C39.3278 120.63 39.0783 121.083 38.679 121.183Z" fill="#3E84C2"/>
<path d="M33.9876 118.621L33.788 118.672C32.9395 118.923 32.4404 119.777 32.69 120.631V120.681L35.934 119.777V119.727C35.6845 118.873 34.836 118.37 33.9876 118.621ZM34.1872 119.777C33.9876 119.827 33.8379 119.727 33.788 119.526C33.7381 119.325 33.8379 119.174 34.0375 119.124C34.2371 119.074 34.3869 119.174 34.4368 119.375C34.4867 119.526 34.3869 119.727 34.1872 119.777Z" fill="#506CA6"/>
<path d="M51.5553 146.449L32.7898 151.573C32.2907 151.724 31.7417 151.422 31.6419 150.92L24.4551 124.247C24.3054 123.745 24.6048 123.192 25.1039 123.092L43.9194 117.918C44.4185 117.767 44.9674 118.069 45.0673 118.571L52.2541 145.244C52.3539 145.796 52.0544 146.299 51.5553 146.449Z" fill="#FCF4E3"/>
<path d="M37.5424 120.608L31.9539 122.129L32.4359 123.923L38.0244 122.402L37.5424 120.608Z" fill="#506CA6"/>
<path d="M39.4276 120.982L30.544 123.393L30.1447 121.886C30.0449 121.484 30.2944 121.032 30.6937 120.932L38.0801 118.923C38.4794 118.822 38.9285 119.073 39.0284 119.475L39.4276 120.982Z" fill="#223666"/>
<path d="M16.7193 128.014C16.7193 128.014 8.68406 138.964 11.4789 146.8C14.2239 154.636 52.9028 144.841 52.9028 144.841L33.3388 133.087L27.2999 132.836L22.3589 130.977L16.7193 128.014Z" fill="#F78C68"/>
<path d="M47.5127 146.248L45.3168 145.495L32.6401 135.498L26.8008 133.389L42.1226 146.901L47.5127 146.248Z" fill="#ED864E"/>
<path d="M37.3314 139.315C37.3314 139.315 66.2783 161.015 74.3634 153.631C81.4005 142.48 73.4651 115.104 73.4651 115.104L60.988 120.277C60.988 120.277 61.1876 133.438 60.2893 133.086C59.341 132.735 37.1318 132.333 37.1318 132.333C37.1318 132.333 33.3388 127.762 26.8008 133.338L37.3314 139.315Z" fill="#F78C68"/>
<path d="M53.8511 149.513C59.6904 150.267 66.8273 148.81 69.9216 143.234C71.868 139.718 71.9179 135.248 71.6684 131.38C71.3689 126.859 70.5205 122.438 70.0713 117.918C70.0214 117.616 69.9715 117.415 69.8217 117.214L74.1638 114.854C74.1638 114.854 81.4005 142.531 74.3634 153.683C70.3707 157.35 61.2375 153.833 53.0526 149.413C53.3021 149.413 53.6015 149.463 53.8511 149.513Z" fill="#ED864E"/>
<path d="M79.7036 143.183C77.3579 131.932 76.5095 111.186 69.3227 104.606C66.0287 101.592 58.0434 101.541 55.3983 101.943C53.9509 102.144 56.7458 101.943 57.0452 103.35L59.9399 133.037L79.7036 143.183Z" fill="#002E55"/>
<path d="M38.8786 80.3938C39.1781 80.8459 39.6272 81.3482 40.1263 81.5492C41.1744 81.951 43.6199 82.5036 44.8177 81.6496C45.9656 80.7957 47.0137 80.7957 47.363 80.9966L50.0082 89.3853L49.8085 89.4858L49.9583 89.7871L52.6034 88.3807L51.0063 88.9332C52.9528 82.604 54.2005 79.4897 52.803 77.6813C54.3003 74.3158 49.2596 70.4982 46.5645 72.407C45.0173 69.7447 42.6716 71.5028 40.7751 72.8088C33.788 70.3977 35.0357 79.5901 38.2298 81.0971C38.5293 81.6496 38.4294 80.0924 38.8786 80.3938ZM51.1561 88.7825L50.5572 89.0839C50.9564 88.682 51.4056 88.4811 51.7051 88.3807L51.1561 88.7825Z" fill="#10192E"/>
<path d="M50.2078 88.4804C50.3077 88.6813 50.5572 88.7817 50.7568 88.5808C51.3058 88.0283 52.4537 87.2748 52.853 89.485C53.402 92.4487 50.2577 91.9463 50.0082 92.3482C49.5091 93.1519 48.8603 94.5082 46.7143 96.0653C45.5664 96.869 42.9711 97.6728 40.0764 96.7184C37.9304 96.0151 36.8823 88.5808 38.4295 79.1875C38.4295 79.1875 39.1781 80.594 40.2262 80.9456C41.3241 81.2972 43.2207 80.6442 44.4185 80.3428C45.4166 80.0917 47.2632 79.1875 48.511 80.0917C49.2596 80.4935 49.7088 87.1743 50.2078 88.4804Z" fill="#F78C68"/>
<path d="M52.3539 89.2852L50.657 90.541C50.7069 90.4907 51.3058 87.5271 52.3539 89.2852Z" fill="#D34A28"/>
<path d="M46.1652 85.7191C46.7142 86.1209 45.8658 84.3628 45.1171 84.1619C44.3685 83.961 43.6199 84.3126 43.4702 84.9656C43.4203 84.9656 44.8177 84.8149 46.1652 85.7191Z" fill="#10192E"/>
<path d="M39.1781 85.7693C38.4794 86.0204 38.7788 85.1162 39.3777 84.7144C40.1762 84.3628 41.0247 84.5637 41.3241 85.2669C41.2742 85.2167 39.6272 85.5683 39.1781 85.7693Z" fill="#10192E"/>
<path d="M42.1726 87.4779L41.3242 89.889C41.3242 89.9393 41.3242 89.9895 41.3741 89.9895L42.4221 90.0397C42.4721 90.0397 42.4721 89.9895 42.4721 89.9393L42.3223 87.4779C42.3223 87.4277 42.2225 87.3775 42.1726 87.4779Z" fill="#D34A28"/>
<path d="M43.9692 88.7338C44.1346 88.7338 44.2687 88.4414 44.2687 88.0807C44.2687 87.7201 44.1346 87.4277 43.9692 87.4277C43.8039 87.4277 43.6698 87.7201 43.6698 88.0807C43.6698 88.4414 43.8039 88.7338 43.9692 88.7338Z" fill="#10192E"/>
<path d="M40.8749 88.1296C40.8749 88.4812 41.0247 88.7826 41.1744 88.7826C41.3241 88.7826 41.4738 88.4812 41.4738 88.1296C41.4738 87.778 41.3241 87.4766 41.1744 87.4766C41.0247 87.4766 40.8749 87.778 40.8749 88.1296Z" fill="#10192E"/>
<path d="M40.326 90.8926C40.326 90.8926 43.8196 90.993 44.2687 90.9428C44.2687 90.9428 42.9212 93.0023 41.7234 92.9018C40.6254 92.8014 40.326 90.8926 40.326 90.8926Z" fill="white"/>
<path d="M37.6309 89.887C37.6309 89.887 37.8306 94.7093 39.2779 96.166C40.7252 97.6227 45.9656 97.6227 48.2614 94.6088C50.5073 91.5949 51.5054 91.9967 51.5054 91.9967C51.5054 91.9967 48.7605 93.0014 48.1616 93.1018C47.6126 93.2023 46.4647 91.0926 47.0636 90.4898C47.6625 89.887 51.2559 88.1289 51.2559 88.1289C51.2559 88.1289 46.7142 89.9875 45.1172 89.9875C44.6181 89.9875 42.7715 87.8275 40.326 89.4852C38.3296 90.8916 37.6309 89.887 37.6309 89.887Z" fill="#FBFBFB" stroke="#FBFBFB" stroke-width="0.2842" stroke-miterlimit="10"/>
<path d="M39.1281 100.787C39.1281 101.29 42.6217 112.14 42.6217 112.14L54.4001 100.285" stroke="#FBFAF4" stroke-width="0.5" stroke-miterlimit="10"/>
<path d="M56.6958 123.342H48.5608V125.2H56.6958V123.342Z" stroke="#FBFAF4" stroke-width="0.5" stroke-miterlimit="10"/>
<path d="M110.198 276.698C117.006 276.698 122.525 275.799 122.525 274.689C122.525 273.579 117.006 272.68 110.198 272.68C103.389 272.68 97.8703 273.579 97.8703 274.689C97.8703 275.799 103.389 276.698 110.198 276.698Z" fill="#BBE3F1"/>
<path d="M148.028 276.698C154.836 276.698 160.356 275.799 160.356 274.689C160.356 273.579 154.836 272.68 148.028 272.68C141.22 272.68 135.701 273.579 135.701 274.689C135.701 275.799 141.22 276.698 148.028 276.698Z" fill="#BBE3F1"/>
<path d="M97.5708 130.875C98.4691 131.829 93.129 174.526 93.129 174.526C93.129 174.526 91.0328 181.458 98.2695 188.792L104.209 131.578L97.5708 130.875Z" fill="#FFA98E"/>
<path d="M105.107 112.189C105.107 112.189 98.6688 112.642 97.3712 122.236C96.0236 131.83 96.0236 131.83 96.0236 131.83L102.661 132.483L105.107 112.189Z" fill="#6DCAE7"/>
<path d="M130.261 262.432L130.81 272.78L150.424 272.127L139.244 267.154L138.146 261.93L130.261 262.432Z" fill="#FFA98E"/>
<path d="M138.146 261.93L130.81 272.78L130.261 262.432L138.146 261.93Z" fill="#FF9C81"/>
<path d="M140.342 266.803L150.424 272.127L130.81 272.78L130.46 267.355L140.342 266.803Z" fill="#0377BD"/>
<path d="M150.723 275.492L130.81 275.995L130.71 272.629L150.673 272.127L150.723 275.492Z" fill="#FCF4E3"/>
<path d="M141.59 267.506L139.394 268.963" stroke="white" stroke-width="0.685" stroke-miterlimit="10"/>
<path d="M143.487 268.461L141.34 269.968" stroke="white" stroke-width="0.685" stroke-miterlimit="10"/>
<path d="M108.151 262.331L109.748 273.282L90.1345 273.633L101.364 267.856L100.715 261.879L108.151 262.331Z" fill="#FFA98E"/>
<path d="M100.715 261.879L108.151 262.331L109.748 273.281L100.715 261.879Z" fill="#FF9C81"/>
<path d="M99.9664 267.857L90.1345 273.634L109.748 273.282L109.05 267.656L99.9664 267.857Z" fill="#0377BD"/>
<path d="M98.4193 268.609L100.665 269.966" stroke="white" stroke-width="0.685" stroke-miterlimit="10"/>
<path d="M96.5726 269.664L98.7686 271.02" stroke="white" stroke-width="0.685" stroke-miterlimit="10"/>
<path d="M109.998 276.496L90.0846 276.999L89.9847 273.633L109.948 273.131L109.998 276.496Z" fill="#FCF4E3"/>
<path d="M109.199 146.898L126.368 148.657C126.368 148.657 132.906 142.076 140.791 261.728L129.812 262.532L116.536 178.494C116.187 177.289 114.54 177.59 114.59 178.846L110.896 263.084L99.3675 262.431C99.3675 262.431 93.4784 177.64 98.569 163.977C103.61 150.264 109.199 146.898 109.199 146.898Z" fill="#6DCAE7"/>
<path d="M99.1679 162.269C99.1679 162.269 106.155 165.232 109.748 158.652C113.392 152.072 114.34 148.455 114.34 148.455" stroke="black" stroke-width="0.685" stroke-miterlimit="10"/>
<path d="M121.876 148.756C121.876 148.756 121.527 163.524 125.669 164.88C129.762 166.236 131.758 165.935 131.758 165.935" stroke="black" stroke-width="0.685" stroke-miterlimit="10"/>
<path d="M125.619 164.881L137.198 261.778" stroke="#FBFAF4" stroke-width="0.685" stroke-miterlimit="10"/>
<path d="M103.41 162.871L103.959 262.631" stroke="#FBFAF4" stroke-width="0.685" stroke-miterlimit="10"/>
<path opacity="0.82" d="M132.956 173.37L108.8 147.4C108.8 147.4 95.275 156.342 96.7723 186.581L132.956 173.37Z" fill="#002439"/>
<path d="M112.194 95.3623C112.194 95.3623 106.255 94.5084 106.554 98.8786C106.854 103.249 109.449 102.395 109.449 102.395C109.449 102.395 108.301 106.464 111.894 105.459C115.538 104.454 115.787 100.938 115.638 99.4813C115.538 97.9744 112.194 95.3623 112.194 95.3623Z" fill="#FC461E"/>
<path d="M108.8 96.4667C108.8 96.4667 100.865 85.6166 111.545 80.0409C122.226 74.5154 125.27 86.1692 125.27 87.6761C125.27 89.1831 124.771 108.572 113.092 101.49L108.8 96.4667Z" fill="#FC461E"/>
<path d="M120.728 96.2656C120.728 96.2656 123.972 111.837 124.222 112.943C124.222 112.943 115.089 134.14 112.144 112.792C112.144 112.792 113.142 108.824 114.24 100.184L120.728 96.2656Z" fill="#FFA98E"/>
<path d="M120.229 86.1688C117.384 85.6163 114.739 88.9818 113.841 93.5026L113.791 93.8543C112.893 98.3751 114.789 104.051 118.532 103.197C120.778 102.695 121.427 99.3295 121.577 96.7175L123.673 95.4114C124.571 90.8906 123.074 86.7716 120.229 86.1688Z" fill="#000328"/>
<path d="M109.299 95.1088L111.545 94.3553L110.697 91.8438L108.451 92.5972C107.752 92.8484 107.403 93.6019 107.602 94.3051C107.852 95.0083 108.601 95.36 109.299 95.1088Z" fill="#FFA98E"/>
<path d="M124.671 90.5384L122.375 91.1914L123.124 93.7532L125.42 93.1002C126.118 92.8993 126.518 92.1458 126.318 91.4426C126.118 90.7896 125.37 90.3375 124.671 90.5384Z" fill="#FFA98E"/>
<path d="M124.97 91.2429L124.022 91.494L124.421 92.8503L125.37 92.5991C125.669 92.4986 125.819 92.147 125.719 91.7954C125.569 91.3936 125.27 91.1424 124.97 91.2429Z" fill="#F75A4C"/>
<path d="M108.7 93.2012L109.748 92.8496L110.247 94.2059L109.199 94.5575C108.9 94.6579 108.501 94.457 108.401 94.1054C108.201 93.7035 108.351 93.3017 108.7 93.2012Z" fill="#F75A4C"/>
<path d="M114.839 84.5109C110.497 85.5155 108.501 89.735 109.499 93.9042L109.599 94.2056C110.597 98.425 115.787 102.142 118.432 101.087L118.532 101.037C121.377 100.183 125.469 94.8084 124.471 90.5889L124.372 90.2875C123.373 86.0681 119.131 83.5062 114.839 84.5109Z" fill="#FFA98E"/>
<path d="M121.177 96.6672C122.225 96.6672 123.074 95.8126 123.074 94.7584C123.074 93.7042 122.225 92.8496 121.177 92.8496C120.13 92.8496 119.281 93.7042 119.281 94.7584C119.281 95.8126 120.13 96.6672 121.177 96.6672Z" fill="#FF9C81"/>
<path d="M111.645 94.4063C110.896 95.1598 110.896 96.3654 111.645 97.0686C112.394 97.8221 113.591 97.8221 114.29 97.0686C115.039 96.3151 115.039 95.1096 114.29 94.4063C113.541 93.7031 112.344 93.7031 111.645 94.4063Z" fill="#FF9C81"/>
<path d="M115.388 90.1861C115.688 90.1861 115.089 89.5331 114.39 89.6336C113.691 89.734 112.394 91.1907 112.394 91.1907C112.394 91.1907 114.39 90.1861 115.388 90.1861Z" fill="#001119"/>
<path d="M118.133 89.7343C117.933 89.7845 118.183 89.0813 118.432 89.031C118.732 88.9808 120.179 88.8803 121.028 89.885C121.028 89.885 119.481 89.4831 118.133 89.7343Z" fill="#001119"/>
<path d="M119.281 95.3105C119.181 95.3105 115.238 95.8631 115.139 95.8631C115.089 95.8631 116.486 97.7217 117.534 97.6714C118.582 97.571 119.281 95.3105 119.281 95.3105Z" fill="white"/>
<path d="M117.784 95.3606L116.786 95.461C116.586 95.461 116.436 95.3103 116.486 95.1094L116.586 92.3969C116.636 92.196 116.935 92.1457 117.085 92.3467L117.983 94.9085C118.083 95.1094 117.983 95.3103 117.784 95.3606Z" fill="#FF7A61"/>
<path d="M114.739 93.0996C114.839 93.4512 115.039 93.6521 115.238 93.6019C115.438 93.5516 115.488 93.2502 115.438 92.8986C115.338 92.547 115.139 92.3461 114.939 92.3963C114.739 92.4968 114.689 92.7982 114.739 93.0996Z" fill="#001119"/>
<path d="M118.432 92.5475C118.432 92.8992 118.632 93.1503 118.832 93.1503C119.031 93.1503 119.181 92.8489 119.131 92.4973C119.131 92.1457 118.932 91.8945 118.732 91.8945C118.532 91.9448 118.383 92.1959 118.432 92.5475Z" fill="#001119"/>
<path d="M108.95 91.9952C109.05 91.9952 111.894 91.8947 113.492 85.013C113.492 85.013 118.183 87.9264 124.322 90.2873C124.322 90.2873 124.172 80.7433 116.786 81.1452C106.904 81.6977 108.95 91.9952 108.95 91.9952Z" fill="#FC461E"/>
<path d="M109.05 92.1973C109.05 92.1973 113.492 96.3665 115.089 95.4121C116.686 94.4577 116.187 93.0512 119.131 94.4577C122.076 95.8139 124.671 90.5898 124.671 90.5898C124.671 90.5898 123.573 93.1517 124.471 93.3526C124.471 93.3526 121.776 101.741 117.834 101.339C113.891 100.887 111.795 98.7776 109.699 95.0102C109.649 95.0102 111.944 96.2158 109.05 92.1973Z" fill="#FBFBFB" stroke="#FBFBFB" stroke-width="0.2842" stroke-miterlimit="10"/>
<path d="M112.643 109.828L116.636 117.614L123.723 109.477L128.813 112.038C133.655 112.943 134.054 118.217 133.106 123.039L132.756 147.854C132.756 147.854 134.802 168.449 134.902 172.969L94.9257 172.819L100.416 122.436C102.013 115.906 103.56 111.687 109.1 110.833L112.643 109.828Z" fill="#6DCAE7"/>
<path opacity="0.3" d="M133.106 123.09C133.505 120.88 133.655 118.569 133.255 116.66C120.429 134.643 108.9 153.48 98.4193 172.92L134.952 173.07C134.852 168.549 132.806 147.954 132.806 147.954L133.106 123.09Z" fill="#002439"/>
<path d="M109.699 126.756H102.262V128.966H109.699V126.756Z" stroke="#FBFAF4" stroke-width="0.5" stroke-miterlimit="10"/>
<path d="M111.645 109.828L116.286 119.774L125.02 110.28" stroke="#FBFAF4" stroke-width="0.5" stroke-miterlimit="10"/>
<path d="M134.857 141.091L132.928 141.609L133.444 143.551L135.372 143.032L134.857 141.091Z" fill="#223666"/>
<path d="M131.309 130.625L129.662 130.876C129.362 130.926 129.113 130.725 129.063 130.424C129.013 130.122 129.213 129.871 129.512 129.821L131.558 129.519C131.858 129.469 132.107 129.67 132.157 129.971V130.122C132.207 130.424 132.008 130.725 131.708 130.725L131.309 130.775" stroke="#58BED0" stroke-width="0.1494" stroke-miterlimit="10"/>
<path d="M124.372 128.967L117.135 130.926C116.736 131.026 116.336 130.775 116.237 130.373L116.037 129.62C115.937 129.218 116.187 128.816 116.586 128.716L123.773 126.757C124.172 126.656 124.571 126.907 124.671 127.309L124.871 128.063C125.02 128.464 124.771 128.866 124.372 128.967Z" fill="#3E84C2"/>
<path d="M119.78 126.456L119.58 126.507C118.782 126.708 118.283 127.562 118.482 128.415V128.466L121.677 127.612V127.562C121.427 126.758 120.579 126.255 119.78 126.456ZM119.98 127.612C119.78 127.662 119.63 127.562 119.58 127.361C119.531 127.16 119.63 127.009 119.83 126.959C120.03 126.909 120.179 127.009 120.229 127.21C120.229 127.361 120.129 127.562 119.98 127.612Z" fill="#506CA6"/>
<path d="M136.899 153.782L118.532 158.704C118.033 158.855 117.534 158.554 117.384 158.051L110.447 131.881C110.297 131.378 110.597 130.876 111.096 130.725L129.462 125.803C129.961 125.652 130.46 125.953 130.61 126.456L137.547 152.626C137.697 153.129 137.398 153.631 136.899 153.782Z" fill="#081D06"/>
<path d="M123.288 128.403L117.791 129.881L118.255 131.628L123.751 130.15L123.288 128.403Z" fill="#506CA6"/>
<path d="M125.07 128.816L116.386 131.177L115.987 129.67C115.887 129.268 116.137 128.866 116.536 128.766L123.773 126.757C124.172 126.656 124.571 126.907 124.671 127.309L125.07 128.816Z" fill="#223666"/>
<path d="M151.172 137.406L150.823 136.803L151.023 136.703C147.379 130.373 143.187 123.592 138.795 117.464C131.009 108.372 127.416 112.441 126.568 113.948C124.871 118.469 131.708 124.898 134.204 128.816C135.501 130.876 136.899 132.885 138.695 135.497C135.202 136.703 131.009 138.009 125.42 139.264C117.884 138.712 117.135 138.109 115.887 138.561C115.887 138.561 114.14 138.31 114.889 138.963C115.089 139.164 119.181 140.269 118.882 140.42C118.632 140.57 111.246 142.128 111.545 142.781C111.845 143.484 116.336 142.63 116.486 142.982C116.636 143.333 111.795 143.635 111.895 144.288C111.994 144.941 116.835 144.489 116.736 144.79C116.686 145.091 112.144 145.142 112.244 145.644C112.344 146.146 117.185 145.845 117.384 145.995C117.584 146.196 113.042 146.196 112.893 146.849C112.793 147.301 117.135 147.301 118.482 147.151C123.224 146.548 125.819 145.594 126.917 145.342C128.115 145.393 137.697 144.74 148.427 143.383C151.172 142.931 152.67 139.767 151.172 137.406Z" fill="#FFA98E"/>
<path d="M144.684 126.254C142.788 123.24 141.79 120.578 139.743 117.715C131.958 108.623 125.669 111.034 124.821 112.541C123.274 116.71 133.455 131.077 133.106 130.574C136.849 130.223 140.991 126.907 144.684 126.254Z" fill="#6DCAE7"/>
<path d="M183.862 276.698C190.671 276.698 196.19 275.799 196.19 274.689C196.19 273.579 190.671 272.68 183.862 272.68C177.054 272.68 171.535 273.579 171.535 274.689C171.535 275.799 177.054 276.698 183.862 276.698Z" fill="#BBE3F1"/>
<path d="M215.105 276.698C221.913 276.698 227.432 275.799 227.432 274.689C227.432 273.579 221.913 272.68 215.105 272.68C208.297 272.68 202.778 273.579 202.778 274.689C202.778 275.799 208.297 276.698 215.105 276.698Z" fill="#BBE3F1"/>
<path d="M165.396 174.879C165.596 176.336 165.746 177.19 165.746 177.19C165.746 177.19 167.343 185.327 172.383 189.396C173.132 189.999 170.786 188.14 170.786 188.14C170.786 188.14 174.08 190.702 174.679 190.802C175.328 190.903 172.134 187.889 172.134 187.889C172.134 187.889 175.627 191.104 176.276 190.853C176.925 190.601 173.731 186.633 173.731 186.633C173.731 186.633 176.676 190.3 177.324 190.099C178.073 189.848 173.182 179.35 174.929 180.354C175.478 180.706 178.372 183.318 179.221 182.816C180.119 182.313 174.48 175.984 174.48 175.984C174.48 175.984 174.13 173.171 174.18 172.92L165.396 174.879Z" fill="#FB7B5C"/>
<path d="M208.767 264.291L211.611 276.698H230.477V275.191L219.746 268.912L218.449 264.492L208.767 264.291Z" fill="#FB7B5C"/>
<path d="M214.356 264.492L211.611 276.698L208.767 264.291L214.356 264.492Z" fill="#D34A28"/>
<path d="M219.896 268.912L216.702 272.378C215.854 273.283 214.506 273.333 213.658 272.429L210.014 268.762L211.761 276.698H230.676V275.191L219.896 268.912Z" fill="#FCF4E3" stroke="#FCF4E3" stroke-width="1.0208" stroke-miterlimit="10"/>
<path d="M182.814 264.139L180.019 276.596H161.104V275.089L171.834 268.81L172.683 264.39L182.814 264.139Z" fill="#FB7B5C"/>
<path d="M176.875 264.239L182.814 264.139L180.019 276.596L176.875 264.239Z" fill="#D34A28"/>
<path d="M171.635 268.811L174.829 272.277C175.677 273.181 177.025 273.231 177.873 272.327L181.517 268.66L179.77 276.597H160.855V275.09L171.635 268.811Z" fill="#FCF4E3" stroke="#FCF4E3" stroke-width="1.0208" stroke-miterlimit="10"/>
<path d="M209.116 163.526L219.497 266.902L209.116 267.053L194.443 189.395C193.395 186.933 192.147 188.39 191.898 189.696L182.315 267.003L172.084 266.249C172.084 266.249 171.086 210.14 175.627 162.822L209.116 163.526Z" fill="#002439" stroke="#002439" stroke-width="1.5604" stroke-miterlimit="10"/>
<path d="M215.804 130.875C212.659 148.406 211.262 164.128 211.262 164.128L173.981 163.526L170.587 110.23C175.178 106.161 181.517 103.901 186.158 103.75L197.936 103.398C197.936 103.398 203.975 104.252 209.166 105.106C213.508 105.86 215.404 107.618 217.65 111.486" fill="#0377BD"/>
<path opacity="0.38" d="M211.312 164.128L174.03 163.525L170.637 110.279" fill="#002E55"/>
<path d="M178.572 134.14C178.223 133.789 176.077 178.746 174.979 178.244L165.097 177.691C165.097 177.691 164.598 140.721 166.644 121.181C166.644 121.181 168.241 110.28 172.533 109.125C176.725 107.97 178.572 134.14 178.572 134.14Z" fill="#0377BD"/>
<path d="M178.572 134.14C178.223 133.789 176.526 175.531 175.428 175.079L162.801 173.02C162.801 173.02 164.598 140.721 166.644 121.181C166.644 121.181 168.241 110.28 172.533 109.125C176.725 107.97 178.572 134.14 178.572 134.14Z" fill="#FCF4E3"/>
<path d="M197.637 91.5938L199.883 104.101L192.746 107.517C192.746 107.517 188.204 106.864 186.058 104.353L187.256 91.9956L197.637 91.5938Z" fill="#FB7B5C"/>
<path d="M196.689 80.1412L197.986 92.3978C197.986 92.3978 192.447 106.211 186.957 92.7494L189.552 79.8398L196.689 80.1412Z" fill="#000128"/>
<path d="M184.062 85.4661L186.158 84.8633L186.657 87.3749L184.561 87.9776C183.912 88.1786 183.263 87.7265 183.164 87.0735C182.964 86.3702 183.413 85.667 184.062 85.4661Z" fill="#FB7B5C" stroke="#FB7B5C" stroke-width="1.4275" stroke-miterlimit="10"/>
<path d="M184.262 86.1183L185.11 85.8672L185.31 86.9221L184.461 87.1732C184.212 87.2737 183.912 87.0727 183.862 86.7714C183.812 86.47 183.962 86.1686 184.262 86.1183Z" fill="#D34A28"/>
<path d="M200.632 84.8129L198.486 85.1143L198.286 82.5525L200.432 82.2511C201.081 82.1506 201.68 82.6529 201.73 83.3562C201.779 84.0594 201.28 84.7124 200.632 84.8129Z" fill="#FB7B5C" stroke="#FB7B5C" stroke-width="1.4275" stroke-miterlimit="10"/>
<path d="M200.532 83.0546L199.633 83.155L199.683 84.2099L200.582 84.1094C200.831 84.0592 201.081 83.808 201.031 83.5067C201.081 83.2053 200.831 83.0043 200.532 83.0546Z" fill="#D34A28"/>
<path d="M192.497 94.3575C187.406 94.5585 185.26 91.1427 185.16 86.8228V86.4712C185.06 82.1512 187.406 75.2193 191.399 74.9179V74.8676C195.391 74.5663 199.534 80.9959 199.584 85.3158V85.6674C199.733 89.9874 198.186 93.9557 192.497 94.3575Z" fill="#FB7B5C" stroke="#FB7B5C" stroke-width="1.4275" stroke-miterlimit="10"/>
<path d="M192.896 91.5449C191.149 91.6956 189.702 90.5905 189.652 89.0836V88.8826L195.99 88.3301V88.531C196.04 89.9877 194.643 91.344 192.896 91.5449Z" fill="white"/>
<path d="M190.999 85.0662C190.999 85.3676 190.8 85.6188 190.6 85.6188C190.35 85.6188 190.201 85.3676 190.201 85.0662C190.201 84.7648 190.4 84.5137 190.6 84.5137C190.8 84.5137 190.999 84.7648 190.999 85.0662Z" fill="#000128"/>
<path d="M194.742 84.6639C194.742 84.9653 194.543 85.2164 194.343 85.2164C194.094 85.2164 193.944 84.9653 193.944 84.6639C193.944 84.3625 194.143 84.1113 194.343 84.1113C194.543 84.1113 194.742 84.3625 194.742 84.6639Z" fill="#000128"/>
<path d="M193.345 87.4274L191.848 87.5279C191.648 87.5279 191.548 87.3269 191.598 87.126L192.197 85.2674C192.247 85.0163 192.546 85.0163 192.646 85.2172L193.545 86.9753C193.644 87.126 193.545 87.4274 193.345 87.4274Z" fill="#D34A28"/>
<path d="M188.604 83.4572C188.204 83.8089 188.753 82.3521 189.302 82.1512C189.901 81.9503 190.5 82.1512 190.7 82.6535C190.75 82.6535 189.602 82.6033 188.604 83.4572Z" fill="#000128"/>
<path d="M195.441 82.353C195.94 82.6042 195.092 81.2982 194.443 81.2479C193.844 81.1475 193.245 81.5493 193.195 82.0516C193.195 82.0516 194.293 81.7502 195.441 82.353Z" fill="#000128"/>
<path d="M198.535 77.2285C198.485 77.128 198.436 77.0276 198.386 76.9271C198.885 76.6759 199.833 70.8491 198.835 71.05C187.007 73.9634 187.755 68.438 184.062 77.2285C183.962 77.4294 184.012 77.5801 184.062 77.781C184.012 77.9317 183.912 78.0824 183.862 78.2331C183.463 79.288 183.413 80.4936 183.563 81.5986C183.613 82.1512 184.611 85.1651 185.11 85.2153C185.31 85.2153 186.557 81.2973 187.256 79.1373C188.454 79.288 189.851 79.288 191.299 79.1373C192.896 78.9364 194.543 78.4341 195.89 77.982C196.888 79.3382 199.034 82.101 199.384 82.101C199.783 82.0507 198.835 77.982 198.535 77.2285Z" fill="#000128"/>
<path d="M184.162 103.6L186.358 99.6816L192.946 107.367L189.851 113.897L184.162 103.6Z" fill="#399AD4"/>
<path d="M201.53 103.6L199.334 99.6816L192.746 107.367L196.389 113.797L201.53 103.6Z" fill="#399AD4"/>
<path d="M185.16 85.1651C185.16 85.1651 189.103 87.5763 190.65 87.2246C192.197 86.873 192.197 85.8182 194.243 86.8228C196.29 87.7772 199.434 82.0508 199.434 82.0508C199.434 82.0508 198.386 85.2656 200.083 85.2154C200.083 85.2154 199.284 94.1566 193.594 94.7594C187.805 95.3622 185.01 88.38 185.01 88.38C185.01 88.38 185.809 88.0786 185.959 87.1242C186.108 86.1195 185.16 85.1651 185.16 85.1651Z" fill="#FBFAF4"/>
<path d="M185.659 101.289C184.411 101.54 188.055 188.391 188.055 188.391L170.437 188.742L170.936 113.596C170.886 109.125 173.831 105.107 178.123 103.851L185.659 101.289Z" fill="#FCF4E3"/>
<path d="M199.783 100.033L197.537 186.633H216.502L214.706 106.161L199.783 100.033Z" fill="#FCF4E3"/>
<path d="M183.513 102.193L179.67 113.998L182.714 116.409L180.369 121.834L186.208 145.041" stroke="#002439" stroke-width="0.5104" stroke-miterlimit="10"/>
<path d="M202.828 101.189L205.323 111.738L202.179 115.154L204.624 118.67L198.885 144.69" stroke="#002439" stroke-width="0.5104" stroke-miterlimit="10"/>
<path d="M211.112 128.365H203.876V129.721H211.112V128.365Z" stroke="#002439" stroke-width="0.4263" stroke-miterlimit="10"/>
<path d="M218.994 164.466L217.956 166.24L219.719 167.285L220.757 165.511L218.994 164.466Z" fill="#223666"/>
<path d="M202.778 163.224L198.885 169.855C198.685 170.206 198.186 170.357 197.837 170.106L197.138 169.704C196.789 169.503 196.639 169.001 196.888 168.649L200.781 162.018C200.981 161.667 201.48 161.516 201.829 161.767L202.528 162.169C202.877 162.37 202.977 162.872 202.778 163.224Z" fill="#3E84C2"/>
<path d="M197.637 164.68L197.537 164.881C197.088 165.634 197.338 166.589 198.086 167.041H198.136L199.833 164.127H199.783C199.034 163.675 198.086 163.927 197.637 164.68ZM198.585 165.383C198.485 165.534 198.286 165.584 198.136 165.484C197.986 165.383 197.936 165.182 198.036 165.032C198.136 164.881 198.336 164.831 198.485 164.931C198.585 164.981 198.685 165.233 198.585 165.383Z" fill="#506CA6"/>
<path d="M229.528 172.215L219.696 189.043C219.447 189.495 218.848 189.645 218.399 189.394L194.742 175.38C194.293 175.129 194.143 174.526 194.393 174.074L204.225 157.246C204.474 156.794 205.073 156.643 205.523 156.894L229.179 170.909C229.628 171.16 229.778 171.763 229.528 172.215Z" fill="#6DCAE7"/>
<path d="M201.538 163.6L198.601 168.621L200.192 169.564L203.129 164.543L201.538 163.6Z" fill="#506CA6"/>
<path d="M203.127 162.572L198.436 170.558L197.088 169.755C196.739 169.554 196.589 169.051 196.838 168.7L200.731 162.069C200.931 161.718 201.43 161.567 201.779 161.818L203.127 162.572Z" fill="#223666"/>
<path d="M221.393 174.225C221.194 175.681 221.044 176.535 221.044 176.535C221.044 176.535 219.447 184.673 214.406 188.742C213.658 189.344 216.003 187.486 216.003 187.486C216.003 187.486 212.709 190.048 212.11 190.148C211.462 190.249 214.656 187.235 214.656 187.235C214.656 187.235 211.162 190.449 210.513 190.198C209.865 189.947 213.059 185.979 213.059 185.979C213.059 185.979 210.114 189.646 209.465 189.445C208.717 189.194 213.608 178.695 211.861 179.7C211.312 180.052 208.417 182.664 207.569 182.161C206.67 181.659 212.31 175.33 212.31 175.33C212.31 175.33 212.659 172.517 212.61 172.266L221.393 174.225Z" fill="#FB7B5C"/>
<path d="M209.066 118.016C208.717 120.477 208.916 122.988 209.665 125.349C211.112 129.82 213.408 137.958 213.757 143.031C214.606 156.192 211.212 175.38 211.961 175.079L221.793 177.791C221.793 177.791 226.534 159.557 226.185 144.036C225.985 134.592 218.698 107.115 214.406 105.96C211.462 105.156 209.815 112.942 209.066 118.016Z" fill="#0377BD"/>
<path d="M209.066 118.016C208.717 120.477 208.916 122.989 209.665 125.35C211.112 129.821 213.408 137.958 213.757 143.031C214.606 156.192 209.914 170.81 210.613 170.508L225.536 173.221C225.536 173.221 229.029 158.252 228.68 142.73C228.48 133.286 218.748 107.015 214.456 105.91C211.462 105.157 209.815 112.943 209.066 118.016Z" fill="#FCF4E3" stroke="#FCF4E3" stroke-width="1.0208" stroke-miterlimit="10"/>
<path d="M188.105 124.244C188.105 122.687 186.857 121.381 185.26 121.381C183.713 121.381 182.415 122.637 182.415 124.244C182.415 125.801 183.663 127.107 185.26 127.107C186.807 127.107 188.105 125.801 188.105 124.244Z" fill="#081D06"/>
<path d="M185.26 125.802C186.114 125.802 186.807 125.105 186.807 124.245C186.807 123.385 186.114 122.688 185.26 122.688C184.405 122.688 183.713 123.385 183.713 124.245C183.713 125.105 184.405 125.802 185.26 125.802Z" fill="#399AD4"/>
<path d="M194.842 133.488L194.643 133.187C194.243 132.534 194.094 131.781 194.243 131.027L196.439 121.031C196.988 118.469 199.484 116.862 202.029 117.465C204.574 118.017 206.171 120.529 205.572 123.091L203.376 133.036C203.227 133.84 202.728 134.493 202.029 134.895L201.829 134.995" stroke="#081D06" stroke-width="1.0208" stroke-miterlimit="10"/>
<path d="M195.641 133.437L194.493 134.191C194.293 133.889 194.393 133.538 194.692 133.387L194.842 133.287C195.092 133.086 195.491 133.136 195.641 133.437Z" fill="#081D06"/>
<path d="M201.829 135.799L201.081 134.644C201.38 134.443 201.729 134.543 201.879 134.845L201.979 134.995C202.179 135.246 202.129 135.598 201.829 135.799Z" fill="#081D06"/>
<path d="M186.507 99.4805C186.507 99.4805 182.116 100.284 182.964 108.12C183.812 115.956 184.811 121.783 184.811 121.783" stroke="#081D06" stroke-width="1.0208" stroke-miterlimit="10"/>
<path d="M198.835 98.2751C198.835 98.2751 206.82 97.2203 202.328 117.313" stroke="#081D06" stroke-width="1.0208" stroke-miterlimit="10"/>
<path d="M88.0383 112.291C88.0383 110.834 86.8405 109.629 85.3932 109.629C83.9458 109.629 82.748 110.834 82.748 112.291C82.748 113.748 83.9458 114.953 85.3932 114.953C86.8405 115.004 88.0383 113.798 88.0383 112.291Z" fill="#FCF4E3" stroke="#FCF4E3" stroke-width="1.0208" stroke-miterlimit="10"/>
<path d="M155.764 224.207C155.764 222.75 154.566 221.545 153.119 221.545C151.671 221.545 150.474 222.75 150.474 224.207C150.474 225.664 151.671 226.869 153.119 226.869C154.566 226.92 155.764 225.714 155.764 224.207Z" fill="#FCF4E3" stroke="#FCF4E3" stroke-width="1.0208" stroke-miterlimit="10"/>
<path d="M241.706 112.994C241.706 111.538 240.508 110.332 239.061 110.332C237.614 110.332 236.416 111.538 236.416 112.994C236.416 114.451 237.614 115.657 239.061 115.657C240.508 115.657 241.706 114.451 241.706 112.994Z" fill="#FCF4E3" stroke="#FCF4E3" stroke-width="1.0208" stroke-miterlimit="10"/>
<path d="M239.71 199.994C242.356 199.994 244.501 197.835 244.501 195.172C244.501 192.509 242.356 190.35 239.71 190.35C237.064 190.35 234.919 192.509 234.919 195.172C234.919 197.835 237.064 199.994 239.71 199.994Z" stroke="#FCF4E3" stroke-width="1.8407" stroke-miterlimit="10"/>
<path d="M74.3135 97.4218C76.9596 97.4218 79.1047 95.2628 79.1047 92.5996C79.1047 89.9363 76.9596 87.7773 74.3135 87.7773C71.6674 87.7773 69.5223 89.9363 69.5223 92.5996C69.5223 95.2628 71.6674 97.4218 74.3135 97.4218Z" stroke="#FCF4E3" stroke-width="1.8407" stroke-miterlimit="10"/>
<path d="M6.38771 240.243C8.95655 239.604 10.5244 236.99 9.8896 234.405C9.25479 231.819 6.65773 230.241 4.08889 230.88C1.52005 231.519 -0.0477999 234.133 0.587001 236.719C1.2218 239.304 3.81887 240.882 6.38771 240.243Z" stroke="#FCF4E3" stroke-width="1.8407" stroke-miterlimit="10"/>
<path d="M218 93.7558C220.646 93.7558 222.791 91.5968 222.791 88.9336C222.791 86.2703 220.646 84.1113 218 84.1113C215.353 84.1113 213.208 86.2703 213.208 88.9336C213.208 91.5968 215.353 93.7558 218 93.7558Z" stroke="#FCF4E3" stroke-width="1.8407" stroke-miterlimit="10"/>
</g>
<defs>
<linearGradient id="paint0_linear_21_2251" x1="122" y1="3.99828e-06" x2="256.16" y2="234" gradientUnits="userSpaceOnUse">
<stop stop-color="#F0F9FD"/>
<stop offset="0.379808" stop-color="#FAF0F6"/>
<stop offset="1" stop-color="#F5FDFA"/>
</linearGradient>
<linearGradient id="paint1_linear_21_2251" x1="201" y1="5" x2="278.973" y2="141" gradientUnits="userSpaceOnUse">
<stop stop-color="#F0F9FD"/>
<stop offset="1" stop-color="#F5FDFA"/>
</linearGradient>
<clipPath id="clip0_21_2251">
<rect width="245" height="206" fill="white" transform="translate(0 71)"/>
</clipPath>
</defs>
</svg>
