<svg width="40" height="40" viewBox="0 0 40 40" fill="none" xmlns="http://www.w3.org/2000/svg">
<path fill-rule="evenodd" clip-rule="evenodd" d="M20.0016 11.6673C22.3028 11.6673 24.1683 9.80184 24.1683 7.50065C24.1683 5.19946 22.3028 3.33398 20.0016 3.33398C17.7004 3.33398 15.835 5.19946 15.835 7.50065C15.835 9.80184 17.7004 11.6673 20.0016 11.6673Z" stroke="#4895EF" stroke-width="1.5" stroke-linecap="round" stroke-linejoin="round"/>
<path fill-rule="evenodd" clip-rule="evenodd" d="M34.1666 31.6667H27.0566L22.8516 26.2617C22.6239 25.9692 22.5001 25.6091 22.5 25.2383V20H35.8333C37.214 20 38.3333 18.8807 38.3333 17.5C38.3333 16.1193 37.214 15 35.8333 15H4.16663C2.78591 15 1.66663 16.1193 1.66663 17.5C1.66663 18.8807 2.78591 20 4.16663 20H17.5V24.1667H14.1666C10.945 24.1667 8.33329 26.7783 8.33329 30V34.1667C8.33329 35.5474 9.45258 36.6667 10.8333 36.6667C12.214 36.6667 13.3333 35.5474 13.3333 34.1667V30C13.3333 29.5398 13.7064 29.1667 14.1666 29.1667H18.7783L23.8616 35.7017C24.3349 36.3101 25.0624 36.6662 25.8333 36.6667H34.1666C35.5473 36.6667 36.6666 35.5474 36.6666 34.1667C36.6666 32.786 35.5473 31.6667 34.1666 31.6667Z" stroke="#4895EF" stroke-width="1.5" stroke-linecap="round" stroke-linejoin="round"/>
<path d="M17.5017 24.166H22.5017" stroke="#4895EF" stroke-width="1.5" stroke-linecap="round" stroke-linejoin="round"/>
</svg>
